<svg id="completed" xmlns="http://www.w3.org/2000/svg" width="166.09" height="131.534" viewBox="0 0 166.09 131.534">
  <g id="Group_5069" data-name="Group 5069" transform="translate(43.169 56.568)">
    <g id="Group_5066" data-name="Group 5066">
      <ellipse id="Ellipse_84" data-name="Ellipse 84" cx="37.483" cy="37.483" rx="37.483" ry="37.483" fill="#50d890"/>
    </g>
    <g id="Group_5068" data-name="Group 5068" transform="translate(21.545 21.65)">
      <g id="Group_5067" data-name="Group 5067">
        <path id="Path_7774" data-name="Path 7774" d="M283.281,205.514c.473.387-6.529,9.807-15.635,21.032-1.947,2.362-3.808,4.624-5.526,6.7l-.759.916-.816-.83c-7.116-7.331-11.984-12.786-11.64-13.129s5.784,4.51,13.129,11.64l-1.561.086c1.689-2.1,3.508-4.4,5.426-6.772C275.02,213.918,282.809,205.127,283.281,205.514Z" transform="translate(-248.888 -205.501)" fill="#fff"/>
      </g>
    </g>
  </g>
  <g id="Group_5070" data-name="Group 5070" transform="translate(127.671 75.385)">
    <path id="Path_7775" data-name="Path 7775" d="M299.088,207.084c-1.117-3.937-6.228-3.551-6.228-3.551l.143,2.735c2.964-.515,4.8,2.964,4.8,2.964Z" transform="translate(-292.86 -203.523)" fill="#ffa41b"/>
  </g>
  <g id="Group_5071" data-name="Group 5071" transform="translate(19.088 83.646)">
    <path id="Path_7776" data-name="Path 7776" d="M223.248,212.854c-1.117-3.937-6.228-3.551-6.228-3.551l.143,2.735c2.964-.515,4.8,2.964,4.8,2.964Z" transform="translate(-217.02 -209.293)" fill="#e0e0e0"/>
  </g>
  <g id="Group_5072" data-name="Group 5072" transform="translate(83.459 25.614)">
    <path id="Path_7777" data-name="Path 7777" d="M263.641,175.876c5.942,1.8,9.636-5.054,9.636-5.054l-3.608-2.062c-1.761,4.195-7.688,3.708-7.688,3.708Z" transform="translate(-261.98 -168.76)" fill="#e0e0e0"/>
  </g>
  <g id="Group_5073" data-name="Group 5073" transform="translate(49.083 40.103)">
    <path id="Path_7778" data-name="Path 7778" d="M241.063,178.88c-2.763.286-3.093,3.765-3.093,3.765l1.847.215c0-2.033,2.534-2.878,2.534-2.878Z" transform="translate(-237.97 -178.88)" fill="#ffa41b"/>
  </g>
  <g id="Group_5074" data-name="Group 5074" transform="translate(162.505 61.551)">
    <path id="Path_7779" data-name="Path 7779" d="M320.741,197.783c.4-2.749-2.878-3.923-2.878-3.923l-.673,1.732c1.976.5,2.162,3.164,2.162,3.164Z" transform="translate(-317.19 -193.86)" fill="#e0e0e0"/>
  </g>
  <g id="Group_5075" data-name="Group 5075" transform="translate(64.746)">
    <path id="Path_7780" data-name="Path 7780" d="M252.461,154.793c.4-2.749-2.878-3.923-2.878-3.923l-.673,1.732c1.976.5,2.148,3.164,2.148,3.164Z" transform="translate(-248.91 -150.87)" fill="#ffa41b"/>
  </g>
  <g id="Group_5076" data-name="Group 5076" transform="translate(0 46.46)">
    <path id="Path_7781" data-name="Path 7781" d="M203.719,185.124c-.5,4.31,5.212,5.355,5.212,5.355l1.031-2.821c-3.422-.315-3.923-4.338-3.923-4.338Z" transform="translate(-203.688 -183.32)" fill="#ffa41b"/>
  </g>
  <g id="Group_5077" data-name="Group 5077" transform="translate(126.024 28.921)">
    <path id="Path_7782" data-name="Path 7782" d="M292.8,174.793c2.778.158,3.665-3.207,3.665-3.207l-1.79-.515c-.329,2.019-2.964,2.42-2.964,2.42Z" transform="translate(-291.71 -171.07)" fill="#ffa41b"/>
  </g>
  <g id="Group_5096" data-name="Group 5096" transform="translate(137.693 37.726)">
    <g id="Group_5082" data-name="Group 5082">
      <g id="Group_5079" data-name="Group 5079" transform="translate(0 5.999)">
        <g id="Group_5078" data-name="Group 5078">
          <path id="Path_7783" data-name="Path 7783" d="M304.442,181.639a11.567,11.567,0,0,1-4.582,0,11.571,11.571,0,0,1,4.582,0Z" transform="translate(-299.86 -181.41)" fill="#e0e0e0"/>
        </g>
      </g>
      <g id="Group_5081" data-name="Group 5081" transform="translate(6.786)">
        <g id="Group_5080" data-name="Group 5080">
          <path id="Path_7784" data-name="Path 7784" d="M304.829,177.22a11.854,11.854,0,0,1,0,4.639,11.857,11.857,0,0,1,0-4.639Z" transform="translate(-304.6 -177.22)" fill="#e0e0e0"/>
        </g>
      </g>
    </g>
    <g id="Group_5087" data-name="Group 5087" transform="translate(6.944 5.842)">
      <g id="Group_5084" data-name="Group 5084" transform="translate(2.663)">
        <g id="Group_5083" data-name="Group 5083">
          <path id="Path_7785" data-name="Path 7785" d="M306.57,181.529a11.568,11.568,0,0,1,4.582,0,11.566,11.566,0,0,1-4.582,0Z" transform="translate(-306.57 -181.3)" fill="#e0e0e0"/>
        </g>
      </g>
      <g id="Group_5086" data-name="Group 5086" transform="translate(0 1.833)">
        <g id="Group_5085" data-name="Group 5085">
          <path id="Path_7786" data-name="Path 7786" d="M304.939,187.219a11.86,11.86,0,0,1,0-4.639,6.042,6.042,0,0,1,.229,2.319A6.785,6.785,0,0,1,304.939,187.219Z" transform="translate(-304.71 -182.58)" fill="#e0e0e0"/>
        </g>
      </g>
    </g>
    <g id="Group_5089" data-name="Group 5089" transform="translate(9.22 7.676)">
      <g id="Group_5088" data-name="Group 5088">
        <path id="Path_7787" data-name="Path 7787" d="M307.947,184.541c-.1.086-.53-.286-.988-.83s-.73-1.045-.644-1.117.53.286.988.83S308.047,184.455,307.947,184.541Z" transform="translate(-306.299 -182.581)" fill="#e0e0e0"/>
      </g>
    </g>
    <g id="Group_5091" data-name="Group 5091" transform="translate(8.948 2.549)">
      <g id="Group_5090" data-name="Group 5090">
        <path id="Path_7788" data-name="Path 7788" d="M307.814,179.014c.086.086-.215.544-.687,1.017s-.916.787-1,.7.215-.544.687-1.017S307.728,178.928,307.814,179.014Z" transform="translate(-306.11 -179)" fill="#e0e0e0"/>
      </g>
    </g>
    <g id="Group_5093" data-name="Group 5093" transform="translate(3.794 2.997)">
      <g id="Group_5092" data-name="Group 5092">
        <path id="Path_7789" data-name="Path 7789" d="M304.128,180.683c-.086.1-.5-.129-.945-.5s-.744-.745-.659-.845.5.129.945.5S304.2,180.6,304.128,180.683Z" transform="translate(-302.51 -179.314)" fill="#e0e0e0"/>
      </g>
    </g>
    <g id="Group_5095" data-name="Group 5095" transform="translate(3.649 7.473)">
      <g id="Group_5094" data-name="Group 5094">
        <path id="Path_7790" data-name="Path 7790" d="M303.957,182.454c.086.086-.172.53-.6.988s-.845.773-.931.687.172-.53.6-.988S303.871,182.368,303.957,182.454Z" transform="translate(-302.409 -182.44)" fill="#e0e0e0"/>
      </g>
    </g>
  </g>
  <g id="Group_5115" data-name="Group 5115" transform="translate(12.96 24.955)">
    <g id="Group_5101" data-name="Group 5101">
      <g id="Group_5098" data-name="Group 5098" transform="translate(0 5.999)">
        <g id="Group_5097" data-name="Group 5097">
          <path id="Path_7791" data-name="Path 7791" d="M217.322,172.719a11.569,11.569,0,0,1-4.582,0,5.894,5.894,0,0,1,2.291-.229A6.55,6.55,0,0,1,217.322,172.719Z" transform="translate(-212.74 -172.49)" fill="#ffa41b"/>
        </g>
      </g>
      <g id="Group_5100" data-name="Group 5100" transform="translate(6.786)">
        <g id="Group_5099" data-name="Group 5099">
          <path id="Path_7792" data-name="Path 7792" d="M217.709,168.3a11.854,11.854,0,0,1,0,4.639,11.856,11.856,0,0,1,0-4.639Z" transform="translate(-217.48 -168.3)" fill="#ffa41b"/>
        </g>
      </g>
    </g>
    <g id="Group_5106" data-name="Group 5106" transform="translate(6.944 5.856)">
      <g id="Group_5103" data-name="Group 5103" transform="translate(2.663)">
        <g id="Group_5102" data-name="Group 5102">
          <path id="Path_7793" data-name="Path 7793" d="M219.45,172.619a11.568,11.568,0,0,1,4.582,0,11.568,11.568,0,0,1-4.582,0Z" transform="translate(-219.45 -172.39)" fill="#ffa41b"/>
        </g>
      </g>
      <g id="Group_5105" data-name="Group 5105" transform="translate(0 1.818)">
        <g id="Group_5104" data-name="Group 5104">
          <path id="Path_7794" data-name="Path 7794" d="M217.819,178.3a11.857,11.857,0,0,1,0-4.639,11.859,11.859,0,0,1,0,4.639Z" transform="translate(-217.59 -173.66)" fill="#ffa41b"/>
        </g>
      </g>
    </g>
    <g id="Group_5108" data-name="Group 5108" transform="translate(9.234 7.69)">
      <g id="Group_5107" data-name="Group 5107">
        <path id="Path_7795" data-name="Path 7795" d="M220.837,175.631c-.1.086-.53-.286-.988-.83s-.73-1.045-.644-1.117.53.286.988.83S220.923,175.545,220.837,175.631Z" transform="translate(-219.189 -173.671)" fill="#ffa41b"/>
      </g>
    </g>
    <g id="Group_5110" data-name="Group 5110" transform="translate(8.962 2.563)">
      <g id="Group_5109" data-name="Group 5109">
        <path id="Path_7796" data-name="Path 7796" d="M220.7,170.1c.086.086-.215.544-.687,1.017s-.916.787-1,.7.215-.544.687-1.017S220.618,170.018,220.7,170.1Z" transform="translate(-219 -170.09)" fill="#ffa41b"/>
      </g>
    </g>
    <g id="Group_5112" data-name="Group 5112" transform="translate(3.794 3.012)">
      <g id="Group_5111" data-name="Group 5111">
        <path id="Path_7797" data-name="Path 7797" d="M217.008,171.773c-.086.1-.5-.129-.945-.5s-.745-.745-.659-.845.5.129.945.5S217.094,171.673,217.008,171.773Z" transform="translate(-215.39 -170.404)" fill="#ffa41b"/>
      </g>
    </g>
    <g id="Group_5114" data-name="Group 5114" transform="translate(3.663 7.474)">
      <g id="Group_5113" data-name="Group 5113">
        <path id="Path_7798" data-name="Path 7798" d="M216.847,173.534c.086.086-.172.53-.6.988s-.845.773-.931.687.172-.53.6-.988S216.747,173.448,216.847,173.534Z" transform="translate(-215.299 -173.52)" fill="#ffa41b"/>
      </g>
    </g>
  </g>
</svg>
