<svg xmlns="http://www.w3.org/2000/svg" width="600" height="429.635" viewBox="0 0 600 429.635">
  <g id="leader-B" transform="translate(-482.68 -223.61)">
    <g id="_176_winner_flatline" data-name="#176_winner_flatline" transform="translate(544.354 227.266)">
      <rect id="Rectangle_764" data-name="Rectangle 764" width="156.49" height="116.464" transform="translate(163.542 308.588)" fill="#fff"/>
      <path id="Path_7799" data-name="Path 7799" d="M312.972,319.407H156.427a.927.927,0,0,1-.927-.927V202.017a.927.927,0,0,1,.927-.927h156.49a.927.927,0,0,1,.927.927V318.481A.927.927,0,0,1,312.972,319.407Zm-155.563-1.853H312.083V202.943H157.409Z" transform="translate(7.06 106.572)" fill="#231f20"/>
      <rect id="Rectangle_765" data-name="Rectangle 765" width="156.49" height="89.539" transform="translate(7.052 335.513)" fill="#fff"/>
      <path id="Path_7800" data-name="Path 7800" d="M228.441,307.012H72.007a.926.926,0,0,1-.927-.926V216.547a.927.927,0,0,1,.927-.927H228.441a.927.927,0,0,1,.927.927v89.539A.926.926,0,0,1,228.441,307.012ZM72.877,305.159H227.514V217.473H72.933Z" transform="translate(-64.955 118.967)" fill="#231f20"/>
      <rect id="Rectangle_766" data-name="Rectangle 766" width="156.49" height="68.415" transform="translate(320.032 356.638)" fill="#fff"/>
      <path id="Path_7801" data-name="Path 7801" d="M397.415,297.288H240.907a.945.945,0,0,1-.927-.926V227.947a.945.945,0,0,1,.927-.927H397.415a.945.945,0,0,1,.927.926v68.415A.945.945,0,0,1,397.415,297.288Zm-155.656-1.853H396.414v-66.6H241.87Z" transform="translate(79.125 128.692)" fill="#231f20"/>
      <path id="Path_7802" data-name="Path 7802" d="M206.034,267.957v-35.1l-8.932,6.893-5.893-8.042,15.751-11.582h10.359v47.9Z" transform="translate(37.522 122.814)" fill="#ffa41b"/>
      <path id="Path_7803" data-name="Path 7803" d="M106.384,271.049v-8.1l15.992-14.472a15.159,15.159,0,0,0,2.446-2.946,6.337,6.337,0,0,0,.927-3.354,4.763,4.763,0,0,0-1.39-3.558,5.559,5.559,0,0,0-7.69.334,7.746,7.746,0,0,0-1.853,4.5l-9.265-1.279a14.361,14.361,0,0,1,5.151-9.747,15.083,15.083,0,0,1,4.8-2.631,18.051,18.051,0,0,1,5.707-.889,20.217,20.217,0,0,1,5.559.741,14.6,14.6,0,0,1,4.762,2.316,11.6,11.6,0,0,1,3.317,3.947,11.841,11.841,0,0,1,1.26,5.559,12.637,12.637,0,0,1-.593,3.966,12.23,12.23,0,0,1-1.594,3.28,17.533,17.533,0,0,1-2.316,2.8c-.871.871-1.853,1.742-2.687,2.594l-9.562,8.487h16.677v8.45Z" transform="translate(-35.55 130.304)" fill="#d1d3d4"/>
      <path id="Path_7804" data-name="Path 7804" d="M306.02,264.533a11.786,11.786,0,0,1-1.353,5.819,12.211,12.211,0,0,1-3.576,4.058,15.674,15.674,0,0,1-4.948,2.372,20.5,20.5,0,0,1-5.559.778,23.031,23.031,0,0,1-5.429-.63,17.288,17.288,0,0,1-4.818-1.946,14.268,14.268,0,0,1-3.8-3.373,14.049,14.049,0,0,1-2.428-4.948l9.043-2.372a7.245,7.245,0,0,0,2.39,3.558,6.8,6.8,0,0,0,4.577,1.538,7.744,7.744,0,0,0,2.113-.3,5.558,5.558,0,0,0,1.853-.889,5.057,5.057,0,0,0,1.39-1.594,4.967,4.967,0,0,0,.556-2.446,4.521,4.521,0,0,0-.723-2.613,5.319,5.319,0,0,0-1.853-1.649,9.86,9.86,0,0,0-2.705-.871,18.29,18.29,0,0,0-3.02-.259h-2.705v-7.06h2.835a17.7,17.7,0,0,0,2.668-.2,7.189,7.189,0,0,0,2.279-.76,4.132,4.132,0,0,0,2.242-3.947,3.946,3.946,0,0,0-1.575-3.391,5.948,5.948,0,0,0-3.6-1.149,5.559,5.559,0,0,0-3.706,1.242,5.837,5.837,0,0,0-2,3.335l-9.043-2.094a13.472,13.472,0,0,1,2.261-4.559,14.123,14.123,0,0,1,3.558-3.243,16.364,16.364,0,0,1,4.5-1.964,18.7,18.7,0,0,1,4.985-.667,20.385,20.385,0,0,1,5.3.686,14.658,14.658,0,0,1,4.614,2.15,11.6,11.6,0,0,1,3.28,3.706A10.192,10.192,0,0,1,304.871,246a8.71,8.71,0,0,1-1.946,5.763,9.414,9.414,0,0,1-4.948,3.169v.185a10.492,10.492,0,0,1,3.187,1.3,9.952,9.952,0,0,1,2.483,2.15,9.265,9.265,0,0,1,2.205,6.041Z" transform="translate(108.24 134.91)" fill="#d1d3d4"/>
      <path id="Path_7805" data-name="Path 7805" d="M193.9,118.525s-4.429-16.881-2.983-18.049a10.229,10.229,0,0,1,4.651-1.353S198.937,85.337,212.687,83c2.242-.389,6.819,3.706,6.819,7.653s-6.1,8.468-6.1,8.468S197.158,119.1,193.9,118.525Z" transform="translate(37.022 5.815)" fill="#fff"/>
      <path id="Path_7806" data-name="Path 7806" d="M194.333,119.742h-.222a.871.871,0,0,1-.667-.611c-3.039-11.563-3.947-17.919-2.705-18.92a9.451,9.451,0,0,1,4.54-1.5c.852-2.724,5.151-14.046,17.622-16.159a5.67,5.67,0,0,1,4.225,1.686,9.543,9.543,0,0,1,3.595,6.8c0,4.132-5.559,8.487-6.356,9.1C210.473,104.881,198.076,119.742,194.333,119.742Zm19.031-35.56H213.2c-13.064,2.224-16.418,15.362-16.455,15.492a.852.852,0,0,1-.778.649,8.987,8.987,0,0,0-4.169,1.149c-.408,1.038,1.223,9.265,3.095,16.455,2.631-1.112,11.118-10.321,18.234-18.975a.556.556,0,0,1,.148-.148c1.612-1.186,5.763-4.892,5.763-7.8a8.061,8.061,0,0,0-3-5.559,4.836,4.836,0,0,0-2.668-1.26Z" transform="translate(36.66 5.45)" fill="#231f20"/>
      <path id="Path_7807" data-name="Path 7807" d="M206.38,170.114l19.661,55.647,9.3-11.211-11.489-50.31" transform="translate(50.463 75.137)" fill="#fff"/>
      <path id="Path_7808" data-name="Path 7808" d="M226.441,226.971h-.148a.852.852,0,0,1-.649-.556l-19.661-55.591a.853.853,0,0,1,.519-1.093.871.871,0,0,1,1.075.519l19.16,54.257,8.1-9.747-11.4-49.9a.834.834,0,0,1,.63-1.019.871.871,0,0,1,1.019.649l11.489,50.292a.889.889,0,0,1-.167.741l-9.265,11.118a.8.8,0,0,1-.7.334Z" transform="translate(50.081 74.779)" fill="#231f20"/>
      <path id="Path_7809" data-name="Path 7809" d="M209.572,176.544s-27,34.671-36.913,41.916l-7.95-7.134s23.311-36.338,29.779-47.716Z" transform="translate(14.916 74.6)" fill="#fff"/>
      <path id="Path_7810" data-name="Path 7810" d="M173.045,219.7a.871.871,0,0,1-.574-.222l-7.931-7.134a.834.834,0,0,1-.148-1.075c.222-.371,23.367-36.449,29.649-47.7a.908.908,0,0,1,.593-.408.852.852,0,0,1,.7.185l15.01,12.971a.834.834,0,0,1,.111,1.149c-1.112,1.427-27.184,34.856-37.061,42.083A.852.852,0,0,1,173.045,219.7Zm-6.838-8.135,6.875,6.189c9.265-7.412,31.984-36.06,35.634-40.767l-13.62-11.73c-6.449,11.322-25.757,41.638-28.815,46.308Z" transform="translate(14.531 74.209)" fill="#231f20"/>
      <path id="Path_7811" data-name="Path 7811" d="M194.128,137.13C186.531,156.4,177.21,189.9,177.21,189.9l22.978,13.805s11.971-26.054,17.4-44.7l9.654,41.119,28.871-7.245L239.435,137.13Z" transform="translate(25.579 52.011)" fill="#231f20"/>
      <path id="Path_7812" data-name="Path 7812" d="M200.551,204.9a.852.852,0,0,1-.426-.111L177.184,191a.834.834,0,0,1-.371-.926c.093-.334,9.414-33.763,16.937-52.868a.815.815,0,0,1,.76-.519h45.214a.834.834,0,0,1,.778.593l16.77,55.758a.872.872,0,0,1,0,.649.853.853,0,0,1-.519.389l-28.871,7.245a.76.76,0,0,1-.63-.111.834.834,0,0,1-.371-.5l-8.95-38.154a438.212,438.212,0,0,1-16.659,41.879.76.76,0,0,1-.5.426A.556.556,0,0,1,200.551,204.9ZM178.536,189.91l21.644,12.971c2.094-4.6,12.175-27.258,16.974-43.751a.815.815,0,0,1,.8-.593.834.834,0,0,1,.778.63l9.469,40.3,27.24-6.838-16.344-54.35H195.047C188.135,155.98,179.815,185.444,178.536,189.91Z" transform="translate(25.217 51.636)" fill="#231f20"/>
      <path id="Path_7813" data-name="Path 7813" d="M216.48,200.6l10.247-8.005s15.325-4.336,16.01-1.853S219.852,212,219.852,212Z" transform="translate(59.079 97.091)" fill="#231f20"/>
      <path id="Path_7814" data-name="Path 7814" d="M220.207,213.114a.593.593,0,0,1-.241,0,.778.778,0,0,1-.537-.537l-3.354-11.341a.853.853,0,0,1,.278-.889l10.247-8.005a1.018,1.018,0,0,1,.278-.148c7.412-2.075,16.27-3.984,17.03-1.353s-12.23,13.379-23.182,22.237a.87.87,0,0,1-.519.037ZM217.8,201.254l2.854,9.654c10.3-8.283,20.81-17.548,21.625-19.642-1.2-.611-7.8.463-14.824,2.427Z" transform="translate(58.706 96.735)" fill="#231f20"/>
      <path id="Path_7815" data-name="Path 7815" d="M166.876,189.36s-4.781,4.67-4.614,5.355,19.327,19.846,19.494,15.881-6.93-14.1-6.93-14.1Z" transform="translate(12.824 96.566)" fill="#231f20"/>
      <path id="Path_7816" data-name="Path 7816" d="M181.637,212.317c-4,0-19.754-16.844-19.791-17.03s-.3-1.149,4.836-6.134a.8.8,0,0,1,1.112,0l7.931,7.116c.871,1.2,7.412,10.618,7.208,14.824a1.26,1.26,0,0,1-1.167,1.316Zm-18.086-17.363c1.964,2.427,14.824,14.824,17.752,15.677-.185-3.243-4.911-10.637-6.782-13.3l-7.245-6.412a37.318,37.318,0,0,0-3.725,4.04Z" transform="translate(12.462 96.197)" fill="#231f20"/>
      <path id="Path_7817" data-name="Path 7817" d="M197.665,67.574c-20.2-6.856-18.531-27.8-18.419-27.981l.167-1.853h12.415v3.966h-8.6a22.793,22.793,0,0,0,15.807,22.07Z" transform="translate(27.25 -32.774)" fill="#231f20"/>
      <path id="Path_7818" data-name="Path 7818" d="M198.025,68.756a.631.631,0,0,1-.259,0c-20.773-7.06-18.994-28.63-18.975-28.852l.167-1.853a.815.815,0,0,1,.815-.741h12.415a.815.815,0,0,1,.815.815v3.966a.815.815,0,0,1-.815.815h-7.764A21.773,21.773,0,0,0,199.656,63.29a.8.8,0,0,1,.463.426.778.778,0,0,1,0,.612l-1.279,3.706A.815.815,0,0,1,198.025,68.756ZM180.514,38.978v1.056c0,.185-1.594,19.976,17.1,26.869l.741-2.205a23.478,23.478,0,0,1-15.584-22.57.76.76,0,0,1,.222-.574.815.815,0,0,1,.593-.241h7.783V38.978Z" transform="translate(26.89 -33.141)" fill="#231f20"/>
      <path id="Path_7819" data-name="Path 7819" d="M204.979,67.549,203.7,63.842a22.811,22.811,0,0,0,15.807-22.07h-8.6v-4h12.323l.167,1.853C223.416,39.771,225.177,60.692,204.979,67.549Z" transform="translate(48.177 -32.748)" fill="#231f20"/>
      <path id="Path_7820" data-name="Path 7820" d="M205.34,68.739a.8.8,0,0,1-.723-.519l-1.279-3.706a.778.778,0,0,1,0-.612.908.908,0,0,1,.482-.426,21.81,21.81,0,0,0,15.232-20.384h-7.764a.815.815,0,0,1-.815-.815V38.145a.815.815,0,0,1,.815-.815h12.323a.815.815,0,0,1,.815.741l.167,1.853c0,.222,1.853,21.755-18.975,28.852a.667.667,0,0,1-.278-.037Zm-.241-4.058.741,2.205c18.716-6.912,17.122-26.665,17.1-26.869V38.961H212.03V41.3h7.783a.815.815,0,0,1,.593.241.834.834,0,0,1,.222.574A23.5,23.5,0,0,1,205.1,64.681Z" transform="translate(47.815 -33.124)" fill="#231f20"/>
      <path id="Path_7821" data-name="Path 7821" d="M227.352,35.931l-41.879-.371S185.1,53.535,189.7,64.931c3.8,9.469,8.413,13.194,12.323,14.713a11.118,11.118,0,0,1,.815,4.67,23.5,23.5,0,0,1-2.224,7.894h11.6a17.049,17.049,0,0,1-2.316-7.8,20.754,20.754,0,0,1,.723-4.744A28.444,28.444,0,0,0,223.591,64.3C227.482,53.775,227.352,35.931,227.352,35.931Z" transform="translate(32.622 -34.633)" fill="#fff"/>
      <path id="Path_7822" data-name="Path 7822" d="M212.614,93.561h-11.6a.927.927,0,0,1-.8-.445.89.89,0,0,1,0-.889,22.459,22.459,0,0,0,2.131-7.542,10.136,10.136,0,0,0-.612-3.891c-5.114-2.15-9.265-7.227-12.471-15.1C184.633,54.258,185,36.8,185,35.968a.945.945,0,0,1,.927-.908h0l41.86.371a.927.927,0,0,1,.927.927c0,.741,0,18.123-3.91,28.7a29.649,29.649,0,0,1-12.971,15.677,20.27,20.27,0,0,0-.574,4.114,16.1,16.1,0,0,0,2.187,7.3.936.936,0,0,1-.834,1.408ZM202.44,91.708h8.654a15.807,15.807,0,0,1-1.723-6.893,22.571,22.571,0,0,1,.741-4.948.927.927,0,0,1,.5-.612,27.5,27.5,0,0,0,12.434-14.824c3.354-8.913,3.706-23.385,3.706-27.129l-39.9-.371c0,3.706.278,18.531,4.151,28.074,3.039,7.579,7.023,12.341,11.8,14.213a.982.982,0,0,1,.537.519,12.268,12.268,0,0,1,.871,5.04,22.756,22.756,0,0,1-1.779,6.93Z" transform="translate(32.222 -35.06)" fill="#231f20"/>
      <path id="Path_7823" data-name="Path 7823" d="M189.418,62h31.15a2.316,2.316,0,0,1,2.316,2.316v9.265H187.12V64.316a2.316,2.316,0,0,1,2.3-2.316Z" transform="translate(34.033 -12.079)" fill="#fff"/>
      <path id="Path_7824" data-name="Path 7824" d="M223.31,74.895H187.546a.927.927,0,0,1-.927-.927V64.7a3.243,3.243,0,0,1,3.224-3.243h31.15a3.243,3.243,0,0,1,3.243,3.243v9.265A.927.927,0,0,1,223.31,74.895Zm-34.837-1.853h33.911V64.777a1.39,1.39,0,0,0-1.39-1.39h-31.15a1.39,1.39,0,0,0-1.371,1.39Z" transform="translate(33.607 -12.539)" fill="#231f20"/>
      <rect id="Rectangle_767" data-name="Rectangle 767" width="65.19" height="9.08" rx="1.53" transform="translate(206.44 61.132)" fill="#fff"/>
      <path id="Path_7825" data-name="Path 7825" d="M241.918,78.457h-59.5a3.706,3.706,0,0,1-3.706-3.706V71.286a3.706,3.706,0,0,1,3.706-3.706h59.5a3.706,3.706,0,0,1,3.706,3.706V74.7a3.706,3.706,0,0,1-3.706,3.762Zm-59.5-9.08a1.853,1.853,0,0,0-1.853,1.853v3.41a1.853,1.853,0,0,0,1.853,1.853h59.5a1.853,1.853,0,0,0,1.853-1.853V71.286a1.853,1.853,0,0,0-1.853-1.853Z" transform="translate(26.859 -7.319)" fill="#231f20"/>
      <path id="Path_7826" data-name="Path 7826" d="M239.087,167.467s-5.077-36.579-4.521-40.007l-11.378-20.05-21.514,1.482-13.62,20.847s-1.279,7.542-4.744,43.287Z" transform="translate(30.783 26.658)" fill="#ffa41b"/>
      <path id="Path_7827" data-name="Path 7827" d="M208.075,116.854c.686,4.392,3.595,13.805-5,11.971a9.376,9.376,0,0,1-2.539-1.112c-5.1-2.872-5.374-5.985-5.763-11.433-.167-2.353-.76-17.326-.76-17.326l16.511-7.264s2.5,16.381,2.224,21.347a4.151,4.151,0,0,1-4.67,3.817Z" transform="translate(39.911 13.248)" fill="#fff"/>
      <path id="Path_7828" data-name="Path 7828" d="M205.477,130.288a10.413,10.413,0,0,1-2.15-.259,9.691,9.691,0,0,1-2.78-1.186c-5.559-3.132-5.8-6.708-6.208-12.1-.167-2.353-.723-16.677-.76-17.363a.908.908,0,0,1,.519-.815l16.511-7.245a.871.871,0,0,1,.741,0,.927.927,0,0,1,.445.611c.093.686,2.5,16.529,2.205,21.514a4.614,4.614,0,0,1-1.538,3.41,5.559,5.559,0,0,1-2.965,1.186,2.38,2.38,0,0,0,.167.834c.63,3.354,1.5,7.968-.76,10.192A4.781,4.781,0,0,1,205.477,130.288ZM195.248,99.879c.111,2.78.574,14.676.723,16.677.408,5.374.593,8.079,5.337,10.766a8.858,8.858,0,0,0,2.316,1,4.373,4.373,0,0,0,4.04-.519c1.612-1.575.834-5.67.278-8.654-.13-.667-.241-1.3-.334-1.853a.871.871,0,0,1,.222-.7.815.815,0,0,1,.686-.259,4.355,4.355,0,0,0,2.8-.834,2.984,2.984,0,0,0,.945-2.205c.241-4.077-1.5-16.325-2.038-20.069Z" transform="translate(39.544 12.86)" fill="#231f20"/>
      <path id="Path_7829" data-name="Path 7829" d="M200.527,105.18h-.63a.815.815,0,0,1-.723-.889.834.834,0,0,1,.908-.741,3.354,3.354,0,0,0,1.594-.167,16.212,16.212,0,0,0-2.65-3.706.815.815,0,1,1,1.2-1.093c3.836,4.225,3.169,5.207,2.928,5.559A3.206,3.206,0,0,1,200.527,105.18Zm1.186-1.686Z" transform="translate(43.975 18.863)" fill="#231f20"/>
      <path id="Path_7830" data-name="Path 7830" d="M202.18,106.052H202c-1.853,0-3.354-1.334-4.725-3.706a.822.822,0,1,1,1.427-.815c1.056,1.853,2.205,2.817,3.373,2.891,1.76.167,3.206-1.853,3.224-1.853a.823.823,0,0,1,1.334.964,6.319,6.319,0,0,1-4.447,2.52Z" transform="translate(42.599 21.29)" fill="#231f20"/>
      <path id="Path_7831" data-name="Path 7831" d="M197.147,99.639a.778.778,0,0,1-.445-.13.815.815,0,0,1-.241-1.13c.185-.3,1.2-1.853,2.557-1.7a2.112,2.112,0,0,1,1.76,1.334.834.834,0,1,1-1.464.76c-.148-.3-.315-.445-.389-.445a3.477,3.477,0,0,0-1.093.945.834.834,0,0,1-.686.371Z" transform="translate(41.889 17.492)" fill="#231f20"/>
      <path id="Path_7832" data-name="Path 7832" d="M203.7,99.453a.8.8,0,0,1-.723-.426c-.148-.278-.593-.852-1.019-.926-.093,0-.278.315-.334.574a.834.834,0,0,1-1,.593.8.8,0,0,1-.593-.982,2.057,2.057,0,0,1,2.205-1.853,3.6,3.6,0,0,1,2.187,1.853.852.852,0,0,1-.334,1.112A.76.76,0,0,1,203.7,99.453Z" transform="translate(45.025 17.289)" fill="#231f20"/>
      <path id="Path_7833" data-name="Path 7833" d="M197.486,101.851a3.15,3.15,0,0,0-4.3-.778,2.15,2.15,0,0,0-.723.852,2.409,2.409,0,0,0,0,1.612,4.355,4.355,0,0,0,4.892,2.946" transform="translate(38.473 20.802)" fill="#fff"/>
      <path id="Path_7834" data-name="Path 7834" d="M196.966,107.839a5.244,5.244,0,0,1-4.929-3.706,3.3,3.3,0,0,1,0-2.205,2.965,2.965,0,0,1,.982-1.186,3.873,3.873,0,0,1,2.946-.63,3.929,3.929,0,0,1,2.557,1.631.834.834,0,0,1-.241,1.167.852.852,0,0,1-1.186-.241,2.279,2.279,0,0,0-3.076-.556,1.372,1.372,0,0,0-.445.5,1.52,1.52,0,0,0,0,1.038,3.521,3.521,0,0,0,3.91,2.353.815.815,0,0,1,1,.649.852.852,0,0,1-.649,1A4.149,4.149,0,0,1,196.966,107.839Z" transform="translate(38.066 20.374)" fill="#231f20"/>
      <path id="Path_7835" data-name="Path 7835" d="M194.607,165.121S177.448,75.915,177.1,73.043s6.282-6.856,7.264-3.891,2.335,8.635,2.335,8.635,4.614-3.447,4.744-.649-3,3.817-2.965,4.744,18.642,63,18.642,63" transform="translate(25.471 -6.871)" fill="#fff"/>
      <path id="Path_7836" data-name="Path 7836" d="M195,166.373a.834.834,0,0,1-.815-.686c-.7-3.706-17.2-89.261-17.548-92.115-.315-2.576,3.113-5.226,5.559-5.782a2.557,2.557,0,0,1,3.336,1.52c.7,2.168,1.612,5.689,2.075,7.412,1.167-.723,2.909-1.557,4.058-1.019a1.853,1.853,0,0,1,1,1.723A5.3,5.3,0,0,1,190.3,81.8l-.593.537c.815,3.317,13.6,46.067,18.531,62.633a.852.852,0,0,1-.574,1.056.834.834,0,0,1-1.056-.556c-5.559-18.679-18.53-62.207-18.679-63.133s.574-1.279,1.223-1.853a3.706,3.706,0,0,0,1.76-2.928,1.476,1.476,0,0,0,0-.278,6.578,6.578,0,0,0-3.354,1.557.8.8,0,0,1-.778.13.815.815,0,0,1-.537-.593s-1.39-5.67-2.335-8.561c0-.185-.2-.667-1.371-.408-2.02.445-4.392,2.65-4.243,3.91.352,2.817,17.345,91.133,17.511,92.022a.852.852,0,0,1-.667,1Z" transform="translate(25.075 -7.288)" fill="#231f20"/>
      <path id="Path_7837" data-name="Path 7837" d="M204.15,142.107l14.157-61.151s-5.059-2.52-2.78-5.077c.76-.852,5.559,1.594,5.559,1.594s.667-8.1,2.724-8.617a3.261,3.261,0,0,1,4.281,3.224c0,2.576-11.563,92.652-11.563,92.652" transform="translate(48.561 -6.371)" fill="#fff"/>
      <path id="Path_7838" data-name="Path 7838" d="M216.878,165.907h-.111a.834.834,0,0,1-.723-.945c3.984-31.113,11.544-90.466,11.544-92.467a2.446,2.446,0,0,0-.852-2,2.817,2.817,0,0,0-2.372-.408c-.76.185-1.76,4.021-2.075,7.875a.834.834,0,0,1-.426.667.908.908,0,0,1-.815,0,12.843,12.843,0,0,0-4.651-1.668,1.019,1.019,0,0,0-.2.889c.185,1.038,1.853,2.242,2.872,2.743a.852.852,0,0,1,.445.964l-14.139,61.151a.852.852,0,0,1-1.019.63.834.834,0,0,1-.63-1.019l14.009-60.539a6.485,6.485,0,0,1-3.206-3.706,2.817,2.817,0,0,1,.76-2.465c.278-.315,1.075-1.2,5.429.852.334-2.946,1.167-7.635,3.243-8.153a4.5,4.5,0,0,1,3.817.741,4.058,4.058,0,0,1,1.52,3.317c0,2.613-11.118,88.946-11.582,92.653a.815.815,0,0,1-.834.889Z" transform="translate(48.174 -6.823)" fill="#231f20"/>
      <path id="Path_7839" data-name="Path 7839" d="M203.45,130.326a1.241,1.241,0,0,1-.519-.111c-2.075-1.019-6.115-14.324-7.746-19.994a.852.852,0,1,1,1.631-.482c2.316,8.024,5.263,16.677,6.6,18.642.871-1.853,2.409-10.062,3.447-17.567a.841.841,0,1,1,1.668.222c-1.668,12.175-3.243,18.642-4.67,19.216a1.057,1.057,0,0,1-.408.074Z" transform="translate(40.867 28.073)" fill="#231f20"/>
      <circle id="Ellipse_85" data-name="Ellipse 85" cx="6.782" cy="6.782" r="6.782" transform="translate(237.256 158.232)" fill="#fff"/>
      <path id="Path_7840" data-name="Path 7840" d="M202.985,135.259a7.635,7.635,0,1,1,7.635-7.635,7.635,7.635,0,0,1-7.635,7.635Zm0-13.564a5.93,5.93,0,1,0,5.93,5.93A5.93,5.93,0,0,0,202.985,121.695Z" transform="translate(41.054 37.39)" fill="#231f20"/>
      <path id="Path_7841" data-name="Path 7841" d="M202.612,40.958l2.854,5.782,6.374.927a.927.927,0,0,1,.519,1.575l-4.6,4.5,1.093,6.356a.927.927,0,0,1-1.353.982l-5.726-2.946-5.707,3a.927.927,0,0,1-1.353-.982l1.093-6.356L191.2,49.3a.908.908,0,0,1,.519-1.575l6.375-.927,2.854-5.782a.927.927,0,0,1,1.668-.056Z" transform="translate(37.257 -30.452)" fill="#ffa41b"/>
      <path id="Path_7842" data-name="Path 7842" d="M111.38,179.84l12.786,55.314,13.805-3.651L127.539,179.84Z" transform="translate(-30.577 88.445)" fill="#fff"/>
      <path id="Path_7843" data-name="Path 7843" d="M124.56,236.347a.945.945,0,0,1-.445-.13.889.889,0,0,1-.389-.537l-12.786-55.2a.848.848,0,0,1,.834-1.038h16.159a.834.834,0,0,1,.834.667L139.2,231.77a.834.834,0,0,1-.612.982l-13.824,3.706Zm-11.637-55.313,12.36,53.423,12.193-3.243L127.34,181.034Z" transform="translate(-30.971 88.103)" fill="#231f20"/>
      <path id="Path_7844" data-name="Path 7844" d="M93.27,176.468l4.855,66.191H113.19l-.037-68.859Z" transform="translate(-46.026 83.292)" fill="#fff"/>
      <path id="Path_7845" data-name="Path 7845" d="M113.546,243.887H98.518a.852.852,0,0,1-.852-.778l-4.855-66.191a.852.852,0,0,1,.741-.889l19.883-2.687a.964.964,0,0,1,.667.2.853.853,0,0,1,.3.649v68.859a.889.889,0,0,1-.241.593A.945.945,0,0,1,113.546,243.887ZM99.259,242.2h13.435V175.157l-18.123,2.427Z" transform="translate(-46.418 82.899)" fill="#231f20"/>
      <path id="Path_7846" data-name="Path 7846" d="M91.786,147.729c.111,28.481-.686,64.857-.686,64.857l26.61-1.445-2.465-41.545,9.766,42.083,25.313-.8L137,147.71Z" transform="translate(-47.877 61.036)" fill="#231f20"/>
      <path id="Path_7847" data-name="Path 7847" d="M91.476,213.786a.8.8,0,0,1-.815-.834c0-.352.778-36.709.686-64.857a.815.815,0,0,1,.241-.574.8.8,0,0,1,.574-.241h45.214a.8.8,0,0,1,.8.649L151.5,211.1a.834.834,0,0,1-.148.686.815.815,0,0,1-.63.3l-25.294.8a.778.778,0,0,1-.815-.63l-7.6-32.669,1.853,31.91a.8.8,0,0,1-.2.593.815.815,0,0,1-.556.259l-26.628,1.445ZM93,148.929c0,25.591-.574,57.445-.686,63.208l24.924-1.353-2.427-40.767a.8.8,0,0,1,.686-.852.815.815,0,0,1,.908.612l9.636,41.416,23.663-.723-12.971-61.577Z" transform="translate(-48.252 60.669)" fill="#231f20"/>
      <path id="Path_7848" data-name="Path 7848" d="M99.366,124.085a33.355,33.355,0,0,1-3.706-11.47c-.259-5.1,1.7-13.12,10.47-14.343,8.061-1.13,12.971,3.224,14.009,9.451a20.254,20.254,0,0,1-2.224,13.9C117.359,122.14,99.366,124.085,99.366,124.085Z" transform="translate(-44.005 18.711)" fill="#fff"/>
      <path id="Path_7849" data-name="Path 7849" d="M99.777,125.279a.834.834,0,0,1-.741-.445,33.856,33.856,0,0,1-3.854-11.748c-.315-6.245,2.427-13.991,11.118-15.214,7.857-1.093,13.713,2.872,14.973,10.136a20.791,20.791,0,0,1-2.446,14.639c-.259.259-.741.741-19.031,2.724Zm9.154-25.943a16.819,16.819,0,0,0-2.316.167c-7.635,1.075-10.025,7.931-9.729,13.472a31.15,31.15,0,0,0,3.373,10.6c6.337-.686,16.01-1.853,17.511-2.261a20.235,20.235,0,0,0,1.853-12.971,10.192,10.192,0,0,0-10.692-9.061Z" transform="translate(-44.416 18.369)" fill="#231f20"/>
      <path id="Path_7850" data-name="Path 7850" d="M106,153.241l45.214-58.908s-3.984-4.021-1-5.689c1-.574,4.725,3.28,4.725,3.28s3.224-7.412,5.355-7.282a3.261,3.261,0,0,1,3,4.373c-.834,2.446-46.03,82.739-46.03,82.739" transform="translate(-35.166 7.233)" fill="#fff"/>
      <path id="Path_7851" data-name="Path 7851" d="M117.665,173.054a.908.908,0,0,1-.426-.111.871.871,0,0,1-.315-1.149C129.45,149.557,162.1,91.372,162.9,89.185a2.335,2.335,0,0,0-.185-2.15,2.742,2.742,0,0,0-2.094-1.167h0c-.8,0-2.965,3.261-4.484,6.782a.871.871,0,0,1-.63.5.834.834,0,0,1-.76-.241,13.25,13.25,0,0,0-3.873-3.095,1.112,1.112,0,0,0-.482.8c-.167,1.186,1.316,2.983,1.853,3.521a.852.852,0,0,1,0,1.112l-45.122,58.908a.852.852,0,1,1-1.353-1.019L150.5,94.781a6.411,6.411,0,0,1-1.853-4.41,2.835,2.835,0,0,1,1.5-2.075c.371-.2,1.427-.8,4.874,2.557,1.26-2.687,3.706-6.819,5.707-6.671a4.466,4.466,0,0,1,3.373,1.853,4.058,4.058,0,0,1,.371,3.706c-.834,2.446-41.471,74.641-46.1,82.868a.871.871,0,0,1-.7.445Z" transform="translate(-35.564 6.84)" fill="#231f20"/>
      <path id="Path_7852" data-name="Path 7852" d="M142.446,187.5s-6.263-45.344-5.707-48.791l-11.378-20.05-21.514,1.482L90.042,137.079A422.9,422.9,0,0,0,91.6,183.128Z" transform="translate(-48.857 36.255)" fill="#d1d3d4"/>
      <path id="Path_7853" data-name="Path 7853" d="M112.4,128.436c.667,4.392,3.595,13.805-5,11.971a9.488,9.488,0,0,1-2.557-1.112c-5.1-2.872-5.355-5.985-5.763-11.433-.167-2.353-1.149-20.828-1.149-20.828s7.1,2.168,11.526,1a7.764,7.764,0,0,0,5.392-4.744s2.5,16.362,2.205,21.329a4.132,4.132,0,0,1-4.651,3.817Z" transform="translate(-42.05 23.144)" fill="#fff"/>
      <path id="Path_7854" data-name="Path 7854" d="M109.775,141.875a8.765,8.765,0,0,1-4.948-1.445c-5.559-3.132-5.8-6.69-6.189-12.1-.185-2.353-1.13-20.106-1.167-20.865a.815.815,0,0,1,.334-.7.8.8,0,0,1,.76-.148s6.93,2.094,11.118.982a6.856,6.856,0,0,0,4.781-4.169.852.852,0,0,1,.871-.593.871.871,0,0,1,.778.723c0,.667,2.5,16.511,2.224,21.514a4.688,4.688,0,0,1-1.557,3.391,5.429,5.429,0,0,1-2.946,1.186,1.7,1.7,0,0,0,.148.834c.63,3.354,1.5,7.968-.76,10.192A4.688,4.688,0,0,1,109.775,141.875ZM99.231,108.52c.222,4.1.945,17.66,1.093,19.642.389,5.374.593,8.079,5.337,10.766a8.842,8.842,0,0,0,2.3,1,4.355,4.355,0,0,0,4.04-.519c1.631-1.575.852-5.67.278-8.654-.13-.667-.241-1.279-.315-1.853a.908.908,0,0,1,.2-.7.889.889,0,0,1,.686-.259,4.336,4.336,0,0,0,2.8-.834,2.983,2.983,0,0,0,.945-2.205,150.821,150.821,0,0,0-1.853-18.734,8.728,8.728,0,0,1-4.688,3.02c-3.539,1-8.58-.074-10.822-.63Z" transform="translate(-42.443 22.75)" fill="#231f20"/>
      <path id="Path_7855" data-name="Path 7855" d="M104.656,116.773h-.63a.8.8,0,0,1-.723-.889.815.815,0,0,1,.889-.741,3.446,3.446,0,0,0,1.612-.167,17.1,17.1,0,0,0-2.668-3.706.82.82,0,0,1,1.223-1.093c3.817,4.225,3.15,5.207,2.909,5.559a3.169,3.169,0,0,1-2.613,1.038Zm1.167-1.686Z" transform="translate(-37.787 28.784)" fill="#231f20"/>
      <path id="Path_7856" data-name="Path 7856" d="M106.319,117.639h-.2c-1.853,0-3.354-1.334-4.725-3.706a.815.815,0,0,1,.3-1.112.834.834,0,0,1,1.13.3c1.075,1.853,2.205,2.835,3.373,2.891,1.742,0,3.224-1.853,3.224-1.853a.852.852,0,0,1,1.149-.185.815.815,0,0,1,.185,1.149,6.208,6.208,0,0,1-4.429,2.52Z" transform="translate(-39.192 31.18)" fill="#231f20"/>
      <path id="Path_7857" data-name="Path 7857" d="M101.755,112.063a3.113,3.113,0,0,0-4.169-1.26,2.131,2.131,0,0,0-.815.76,2.353,2.353,0,0,0-.2,1.594,4.336,4.336,0,0,0,4.559,3.484" transform="translate(-43.262 29.25)" fill="#fff"/>
      <path id="Path_7858" data-name="Path 7858" d="M101.145,117.895a5.226,5.226,0,0,1-5.022-4.188,3.169,3.169,0,0,1,.315-2.187,3.058,3.058,0,0,1,1.112-1.056,3.854,3.854,0,0,1,3.02-.278,3.706,3.706,0,0,1,2.335,1.853.852.852,0,0,1-1.519.76,2.261,2.261,0,0,0-3-.908,1.13,1.13,0,0,0-.482.445,1.556,1.556,0,0,0-.111,1.038,3.484,3.484,0,0,0,3.706,2.78.846.846,0,1,1,.148,1.686Z" transform="translate(-43.653 28.867)" fill="#231f20"/>
      <path id="Path_7859" data-name="Path 7859" d="M107.562,142.792a1.334,1.334,0,0,1-.519-.13c-2.075-1-6.1-14.324-7.727-19.994a.852.852,0,0,1,.574-1.056.834.834,0,0,1,1.038.593c2.316,7.987,5.263,16.677,6.6,18.531.889-2.02,2.65-11.563,3.854-20.384a.852.852,0,0,1,1.686.241c-1.853,13.991-3.706,21.384-5.1,21.959a1,1,0,0,1-.408.241Z" transform="translate(-40.898 37.102)" fill="#231f20"/>
      <circle id="Ellipse_86" data-name="Ellipse 86" cx="6.782" cy="6.782" r="6.782" transform="translate(59.623 179.727)" fill="#fff"/>
      <path id="Path_7860" data-name="Path 7860" d="M107.133,146.849a7.635,7.635,0,1,1,7.616-7.616,7.634,7.634,0,0,1-7.616,7.616Zm0-13.546a5.93,5.93,0,1,0,5.93,5.93A5.93,5.93,0,0,0,107.133,133.3Z" transform="translate(-40.728 47.276)" fill="#231f20"/>
      <path id="Path_7861" data-name="Path 7861" d="M122.189,119.8S71.915,146.855,68.45,156.046s35.56,34.671,40.007,38.006,7.116,2.316,6.949-1.167-5.559-6.43-5.559-6.43.8-3.706-.2-5.151c-1.5-2.112-4.169,1.112-4.169,1.112L85.48,157.232l28.185-12.6" transform="translate(-67.384 37.227)" fill="#fff"/>
      <path id="Path_7862" data-name="Path 7862" d="M113.407,197.348a8.913,8.913,0,0,1-5.077-2.224c-.574-.426-1.7-1.2-3.224-2.279-18.79-12.971-39.97-29.056-37.061-36.709,3.539-9.4,52.071-35.579,54.146-36.69a.841.841,0,1,1,.8,1.482c-17.289,9.265-50.7,28.759-53.368,35.8-1.853,4.911,10.414,16.677,36.45,34.726,1.557,1.093,2.705,1.853,3.261,2.316,2.094,1.557,3.891,2.205,4.836,1.7s.8-1.52.778-2.168c-.111-2.446-3.706-4.966-5.077-5.726a.871.871,0,0,1-.408-.927,8.042,8.042,0,0,0,0-4.484c-.222-.3-.408-.352-.556-.352h0c-.723,0-1.853,1.019-2.242,1.52-.167.2-.445.222-.667.3a.852.852,0,0,1-.649-.315L85.2,158.231a.852.852,0,0,1-.148-.723.815.815,0,0,1,.463-.574l28.185-12.6a.842.842,0,1,1,.686,1.538L87.223,158.027l18.753,23.5a4.318,4.318,0,0,1,2.946-1.39,2.316,2.316,0,0,1,1.853,1.075,7.968,7.968,0,0,1,.445,5.207c1.445.908,5.263,3.576,5.411,6.819a3.706,3.706,0,0,1-1.668,3.706,3.372,3.372,0,0,1-1.557.408Z" transform="translate(-67.774 36.84)" fill="#231f20"/>
      <path id="Path_7863" data-name="Path 7863" d="M120.616,220.488,119.467,211H104.439s-19.568,9.562-18.531,9.562Z" transform="translate(-52.339 115.026)" fill="#231f20"/>
      <path id="Path_7864" data-name="Path 7864" d="M121,221.721H86.289a.889.889,0,0,1-.834-.649c-.185-.815-.241-1.056,19.012-10.47a.76.76,0,0,1,.352-.093h15.028a.815.815,0,0,1,.815.723l1.112,9.58a.834.834,0,0,1-.2.63A.816.816,0,0,1,121,221.721Zm-31.78-1.631H120.07l-.908-7.931H105.023C100.057,214.568,92.9,218.126,89.217,220.09Z" transform="translate(-52.72 114.608)" fill="#231f20"/>
      <path id="Path_7865" data-name="Path 7865" d="M118.28,211.833s1.853,11.915,2.854,11.915S149.578,209.739,148,207.923s-15.918.259-15.918.259Z" transform="translate(-24.691 111.765)" fill="#231f20"/>
      <path id="Path_7866" data-name="Path 7866" d="M121.529,224.973c-.686,0-1.742,0-3.706-12.619a.834.834,0,0,1,.611-.908l13.805-3.706c4.54-.667,15.065-1.964,16.677,0a1.186,1.186,0,0,1,.13,1.279C147.805,212.205,122.937,224.973,121.529,224.973Zm-1.853-12.138a69.451,69.451,0,0,0,2.242,10.414c3.354-1.2,23.256-11.822,25.646-14.565-1.742-.63-8.746-.185-14.824.7Z" transform="translate(-25.086 111.356)" fill="#231f20"/>
      <ellipse id="Ellipse_87" data-name="Ellipse 87" cx="0.852" cy="1.594" rx="0.852" ry="1.594" transform="translate(61.111 135.184) rotate(-5.12)" fill="#231f20"/>
      <ellipse id="Ellipse_88" data-name="Ellipse 88" cx="0.852" cy="1.594" rx="0.852" ry="1.594" transform="translate(69.204 134.464) rotate(-5.12)" fill="#231f20"/>
      <path id="Path_7867" data-name="Path 7867" d="M309.717,130.66s-15.51,1.242-18.53,6.764-23.608,87.594-20.124,87.594,6.282-10.173,6.282-10.173,5.04,6.69,4.948,2.52,0-13.564,0-13.564l21.477-50.44" transform="translate(105.303 46.492)" fill="#fff"/>
      <path id="Path_7868" data-name="Path 7868" d="M271.427,226.216a1.13,1.13,0,0,1-.945-.574c-2.705-4.577,18.03-84.184,20.291-88.3,3.224-5.837,18.53-7.134,19.235-7.171a.815.815,0,0,1,.908.76.834.834,0,0,1-.778.927c-4.188.334-15.566,2.112-17.882,6.319s-21.347,78.884-20.383,86.259c1.853-.741,4-5.8,5.022-9.488a.845.845,0,0,1,1.482-.278,14.621,14.621,0,0,0,3.41,3.484,1.408,1.408,0,0,0,0-.426c-.093-4.132,0-13.509,0-13.6a.872.872,0,0,1,0-.315l21.477-50.44a.852.852,0,0,1,1.557.667l-21.31,50.347v13.379c0,1.186-.334,1.853-1.056,2.15-1.2.426-2.928-1.112-4.41-2.872C277.023,220.231,274.651,226.216,271.427,226.216Zm.537-1.408ZM281.748,218.359Z" transform="translate(104.938 46.071)" fill="#231f20"/>
      <path id="Path_7869" data-name="Path 7869" d="M294.48,134.38s-10.044-12.582-4.04-21.18,25.238-7.579,23.182-6.523a18.7,18.7,0,0,0-3.706,2.594s14.676,3.391,16.4,9.914-8.969,23.5-8.969,23.5,4.948,1.853,3.132,2.854S300.355,150.483,294.48,134.38Z" transform="translate(120.539 25.445)" fill="#fff"/>
      <path id="Path_7870" data-name="Path 7870" d="M313.428,147.943a23.776,23.776,0,0,1-8.191-1.353,18.29,18.29,0,0,1-11.118-11.415c-1.056-1.371-10.025-13.4-3.984-22.088,5.355-7.672,20.643-8.061,23.775-7.264a1.2,1.2,0,0,1,1.112.982,1,1,0,0,1-.611,1,17.3,17.3,0,0,0-2.316,1.464c4,1.13,13.916,4.447,15.4,10.1,1.594,5.985-6.337,19.679-8.543,23.293,1.538.649,3.039,1.557,3.132,2.613a1.39,1.39,0,0,1-.815,1.39A20.384,20.384,0,0,1,313.428,147.943Zm-2.965-40.767c-5.188,0-15.065,1.334-18.938,6.875-5.559,7.987,3.91,20.05,4.021,20.161a1,1,0,0,1,.13.241,16.678,16.678,0,0,0,10.155,10.525,23.589,23.589,0,0,0,14.38.3,11.3,11.3,0,0,0-2.8-1.427.815.815,0,0,1-.5-.519.834.834,0,0,1,0-.723c2.928-4.633,10.21-17.771,8.876-22.83s-11.822-8.394-15.769-9.265a.852.852,0,0,1-.63-.612.834.834,0,0,1,.241-.834,18.805,18.805,0,0,1,2.335-1.853c-.389,0-.908-.019-1.5-.019Z" transform="translate(120.14 25.058)" fill="#231f20"/>
      <path id="Path_7871" data-name="Path 7871" d="M301.278,190.7l-5.893,57.667H280.32L285.1,190.7Z" transform="translate(113.538 97.709)" fill="#fff"/>
      <path id="Path_7872" data-name="Path 7872" d="M295.772,249.585H280.707a.834.834,0,0,1-.63-.278.778.778,0,0,1-.2-.63l4.762-57.648a.852.852,0,0,1,.852-.778h16.159a.8.8,0,0,1,.63.278.815.815,0,0,1,.222.649l-5.874,57.648a.852.852,0,0,1-.852.76ZM281.633,247.9h13.3l5.707-55.962H286.192Z" transform="translate(113.151 97.325)" fill="#231f20"/>
      <path id="Path_7873" data-name="Path 7873" d="M315.9,187.328l-4.855,66.191H295.98l.037-68.859Z" transform="translate(126.896 92.556)" fill="#fff"/>
      <path id="Path_7874" data-name="Path 7874" d="M311.421,254.747H296.392a.852.852,0,0,1-.593-.241.833.833,0,0,1-.259-.593V185.054a.852.852,0,0,1,.3-.649.964.964,0,0,1,.667-.2l19.883,2.687a.834.834,0,0,1,.741.889l-4.855,66.191a.852.852,0,0,1-.852.778Zm-14.213-1.686h13.435l4.725-64.616-18.123-2.428Z" transform="translate(126.521 92.163)" fill="#231f20"/>
      <path id="Path_7875" data-name="Path 7875" d="M333.089,158.6c-.111,28.481.686,64.857.686,64.857l-26.61-1.445,2.465-41.545-5.8,42.175-24.09-.741,8.153-63.337Z" transform="translate(113.043 70.292)" fill="#231f20"/>
      <path id="Path_7876" data-name="Path 7876" d="M334.138,224.582h0l-26.628-1.445a.852.852,0,0,1-.556-.278.778.778,0,0,1-.2-.593l1.223-20.384-2.946,21.273a.815.815,0,0,1-.834.7l-24.09-.741a.8.8,0,0,1-.778-.927l8.154-63.337a.815.815,0,0,1,.815-.7h45.214a.8.8,0,0,1,.574.241.815.815,0,0,1,.241.574c-.093,28.148.686,64.5.686,64.857a.779.779,0,0,1-.241.593.852.852,0,0,1-.63.167Zm-25.757-2.965L333.3,222.97c-.111-5.689-.741-37.617-.686-63.208H288.961l-7.95,61.725,22.459.7L309.2,180.72a.815.815,0,0,1,1.612.167Z" transform="translate(112.68 69.942)" fill="#231f20"/>
      <path id="Path_7877" data-name="Path 7877" d="M281.72,198.379s5.707-40.619,5.152-44.047l11.934-24.812,26.665,2.112,8.6,16.307a422.838,422.838,0,0,1-1.557,46.048Z" transform="translate(114.732 45.519)" fill="#d1d3d4"/>
      <path id="Path_7878" data-name="Path 7878" d="M296.412,139.3c-.667,4.41-3.595,13.805,5,11.971a10.044,10.044,0,0,0,2.557-1.093c5.1-2.891,5.355-6,5.763-11.452.167-2.353,1.149-20.828,1.149-20.828s-7.1,2.168-11.526,1a7.765,7.765,0,0,1-5.392-4.744s-2.5,16.381-2.205,21.329a4.132,4.132,0,0,0,4.651,3.817Z" transform="translate(123.277 32.408)" fill="#fff"/>
      <path id="Path_7879" data-name="Path 7879" d="M299.824,152.735a4.688,4.688,0,0,1-3.41-1.2c-2.261-2.224-1.39-6.838-.76-10.192a6.561,6.561,0,0,1,.148-.834,5.43,5.43,0,0,1-2.946-1.186,4.688,4.688,0,0,1-1.557-3.391c-.278-4.985,2.131-20.847,2.224-21.514a.871.871,0,0,1,.778-.723.852.852,0,0,1,.871.593,6.856,6.856,0,0,0,4.781,4.169c4.169,1.112,11.007-.964,11.118-.982a.8.8,0,0,1,.76.148.816.816,0,0,1,.333.7c0,.76-.982,18.531-1.167,20.865-.389,5.411-.649,8.969-6.189,12.1a8.765,8.765,0,0,1-4.948,1.445Zm-3.02-13.879a.815.815,0,0,1,.834.964,11.077,11.077,0,0,1-.315,1.853c-.574,2.983-1.353,7.079.278,8.672a4.41,4.41,0,0,0,4.04.5,8.58,8.58,0,0,0,2.3-1c4.744-2.687,4.948-5.392,5.337-10.766.148-1.983.871-15.547,1.093-19.642a24.72,24.72,0,0,1-10.84.686,8.728,8.728,0,0,1-4.688-3.02,150.826,150.826,0,0,0-1.853,18.734,3.058,3.058,0,0,0,.945,2.224,4.373,4.373,0,0,0,2.78.815Z" transform="translate(122.885 32.014)" fill="#231f20"/>
      <path id="Path_7880" data-name="Path 7880" d="M297.435,127.616a3.169,3.169,0,0,1-2.613-1c-.241-.371-.908-1.353,2.909-5.559a.82.82,0,0,1,1.223,1.093,17.1,17.1,0,0,0-2.669,3.706,3.466,3.466,0,0,0,1.612.167.834.834,0,0,1,.908.741.815.815,0,0,1-.741.889Z" transform="translate(125.737 38.065)" fill="#231f20"/>
      <path id="Path_7881" data-name="Path 7881" d="M298.112,128.533a6.208,6.208,0,0,1-4.429-2.594.815.815,0,0,1,.185-1.149.852.852,0,0,1,1.149.185,4.707,4.707,0,0,0,3.224,1.853c1.167,0,2.3-1.038,3.373-2.891a.834.834,0,0,1,1.13-.3.815.815,0,0,1,.3,1.112c-1.371,2.372-2.965,3.706-4.725,3.706Z" transform="translate(124.801 40.41)" fill="#231f20"/>
      <path id="Path_7882" data-name="Path 7882" d="M300.808,122.085a.8.8,0,0,1-.686-.371c-.3-.445-.834-.945-1.093-.945h0a1.389,1.389,0,0,0-.389.445.817.817,0,1,1-1.445-.76,2.15,2.15,0,0,1,1.76-1.334,3.524,3.524,0,0,1,2.557,1.7.834.834,0,0,1-.241,1.13.778.778,0,0,1-.463.13Z" transform="translate(127.85 36.647)" fill="#231f20"/>
      <path id="Path_7883" data-name="Path 7883" d="M294.232,121.92a.7.7,0,0,1-.389-.093.8.8,0,0,1-.334-1.112,3.539,3.539,0,0,1,2.168-1.853,2.075,2.075,0,0,1,2.224,1.853.82.82,0,1,1-1.594.389,1.13,1.13,0,0,0-.334-.574c-.426,0-.889.667-1.019.926A.834.834,0,0,1,294.232,121.92Z" transform="translate(124.697 36.423)" fill="#231f20"/>
      <path id="Path_7884" data-name="Path 7884" d="M300.66,122.923a3.113,3.113,0,0,1,4.169-1.26,2.132,2.132,0,0,1,.815.76,2.353,2.353,0,0,1,.2,1.594,4.336,4.336,0,0,1-4.521,3.484" transform="translate(130.889 38.515)" fill="#fff"/>
      <path id="Path_7885" data-name="Path 7885" d="M302.022,128.728h-.371a.846.846,0,1,1,.148-1.686,3.484,3.484,0,0,0,3.614-2.78,1.539,1.539,0,0,0-.111-1.038,1.3,1.3,0,0,0-.482-.463,2.187,2.187,0,0,0-1.686-.13,2.112,2.112,0,0,0-1.316,1.056.852.852,0,0,1-1.52-.76,3.706,3.706,0,0,1,2.335-1.853,3.873,3.873,0,0,1,3.021.278,2.966,2.966,0,0,1,1.112,1.075,3.1,3.1,0,0,1,.315,2.168A5.226,5.226,0,0,1,302.022,128.728Z" transform="translate(130.528 38.157)" fill="#231f20"/>
      <path id="Path_7886" data-name="Path 7886" d="M298.6,152.712a1.573,1.573,0,0,1-.408,0c-1.445-.593-3.02-7.06-4.688-19.235a.852.852,0,0,1,1.686-.222c1,7.412,2.52,15.436,3.484,17.511,1.334-2.02,4.262-10.636,6.56-18.53a.839.839,0,1,1,1.612.463c-1.631,5.67-5.652,18.994-7.727,19.994a1.074,1.074,0,0,1-.519.019Z" transform="translate(124.78 47.306)" fill="#231f20"/>
      <circle id="Ellipse_89" data-name="Ellipse 89" cx="6.782" cy="6.782" r="6.782" transform="translate(416.854 199.851)" fill="#fff"/>
      <path id="Path_7887" data-name="Path 7887" d="M299.9,157.709a7.635,7.635,0,1,1,7.635-7.616,7.635,7.635,0,0,1-7.635,7.616Zm0-13.546a5.93,5.93,0,1,0,5.93,5.93A5.93,5.93,0,0,0,299.9,144.163Z" transform="translate(123.732 56.541)" fill="#231f20"/>
      <path id="Path_7888" data-name="Path 7888" d="M305.33,130.66s45.307,27.055,48.791,36.246-35.653,36.653-40.137,40.063-7.023.259-6.856-3.224,5.559-6.43,5.559-6.43-.8-3.706.2-5.151c1.5-2.112,4.169,1.112,4.169,1.112l20.05-25.109-25.127-11.229" transform="translate(134.872 46.492)" fill="#fff"/>
      <path id="Path_7889" data-name="Path 7889" d="M310.893,209.678a3.909,3.909,0,0,1-1.853-.426,5.3,5.3,0,0,1-2.409-5.115c.148-3.243,3.966-5.911,5.411-6.819a7.969,7.969,0,0,1,.445-5.207,2.316,2.316,0,0,1,1.853-1.075,4.559,4.559,0,0,1,2.946,1.39l18.753-23.5-24.09-10.785a.854.854,0,1,1,.7-1.557l25.127,11.248a.815.815,0,0,1,.463.574.853.853,0,0,1-.148.723l-20.013,25.09a.834.834,0,0,1-1.316,0c-.426-.5-1.52-1.52-2.279-1.52-.148,0-.334,0-.556.352a8.042,8.042,0,0,0,0,4.484.871.871,0,0,1-.408.927c-1.371.76-4.966,3.28-5.077,5.726a3.706,3.706,0,0,0,1.5,3.539c1,.519,2.427.148,4-1.038l1.853-1.316c35.653-25.943,39.136-34.837,38.025-37.765-2.668-7.06-32.855-26.517-48.439-35.819a.852.852,0,1,1,.871-1.445c1.853,1.112,45.6,27.3,49.143,36.672,2.316,6.078-10.322,19.086-38.6,39.729l-1.853,1.3a6.689,6.689,0,0,1-4.058,1.631Z" transform="translate(134.479 46.062)" fill="#231f20"/>
      <path id="Path_7890" data-name="Path 7890" d="M295.38,231.4l1.112-9.562h15.065s19.568,9.562,18.531,9.562Z" transform="translate(126.384 124.273)" fill="#231f20"/>
      <path id="Path_7891" data-name="Path 7891" d="M330.464,232.582H295.757a.871.871,0,0,1-.611-.259.908.908,0,0,1-.2-.649l1.112-9.58a.8.8,0,0,1,.815-.7h15.065a.761.761,0,0,1,.352,0c19.253,9.413,19.2,9.654,19.012,10.47a.89.89,0,0,1-.834.723Zm-33.781-1.631h30.853c-3.706-1.853-10.84-5.559-15.788-7.931H297.591Z" transform="translate(126.008 123.871)" fill="#231f20"/>
      <path id="Path_7892" data-name="Path 7892" d="M305.046,231.4l-1.112-9.562H288.868s-1.964.945-4.6,2.261c-5.707,2.835-14.639,7.3-13.935,7.3Z" transform="translate(104.989 124.273)" fill="#231f20"/>
      <path id="Path_7893" data-name="Path 7893" d="M305.428,232.548H270.721a.889.889,0,0,1-.834-.649c-.185-.834-.222-.964,14.4-8.209l4.614-2.261a.76.76,0,0,1,.352,0h15.065a.8.8,0,0,1,.815.7l1.112,9.58a.908.908,0,0,1-.2.649.871.871,0,0,1-.611.185Zm-31.78-1.631H304.5l-.908-7.931H289.437l-4.484,2.168C278.93,228.175,275.539,229.916,273.648,230.917Z" transform="translate(104.606 123.905)" fill="#231f20"/>
    </g>
    <path id="Path_7921" data-name="Path 7921" d="M93.276,108.722c-1.927-4.772-5.583-11.334-11.686-10.707a6.3,6.3,0,0,0-5.308,4.145c-1.071,2.967,0,5.858.658,8.78.168.841,1.071,3.839.337,4.589s-2.233-1.713-2.845-2.509a10.86,10.86,0,0,0-6.118-4.589c-6.822-1.53-8.749,6.379-6.99,11.38,1.163,3.319,6.47,1.9,5.308-1.53-.352-1.01-1.193-3.35-.122-4.222s1.988.352,2.753,1.163a50.155,50.155,0,0,0,3.625,4.39c2.707,2.34,6.746,2.616,8.872-.612s.964-7.648.138-11.044c-.444-1.8-1.331-5.66,1.881-3.977,2,1.055,3.442,4.268,4.222,6.21C89.269,113.494,94.592,112.072,93.276,108.722Z" transform="translate(981.813 142.022)" fill="#e54b5d"/>
    <path id="Path_7940" data-name="Path 7940" d="M93.276,108.722c-1.927-4.772-5.583-11.334-11.686-10.707a6.3,6.3,0,0,0-5.308,4.145c-1.071,2.967,0,5.858.658,8.78.168.841,1.071,3.839.337,4.589s-2.233-1.713-2.845-2.509a10.86,10.86,0,0,0-6.118-4.589c-6.822-1.53-8.749,6.379-6.99,11.38,1.163,3.319,6.47,1.9,5.308-1.53-.352-1.01-1.193-3.35-.122-4.222s1.988.352,2.753,1.163a50.155,50.155,0,0,0,3.625,4.39c2.707,2.34,6.746,2.616,8.872-.612s.964-7.648.138-11.044c-.444-1.8-1.331-5.66,1.881-3.977,2,1.055,3.442,4.268,4.222,6.21C89.269,113.494,94.592,112.072,93.276,108.722Z" transform="translate(421.972 232.27)" fill="#e54b5d"/>
    <path id="Path_7923" data-name="Path 7923" d="M290.276,82.648c-4.436-4.589-11.442,2.417-7.006,7.006a29.6,29.6,0,0,1,7.021,29.522c-1.851,6.118,7.648,8.734,9.56,2.631A39.663,39.663,0,0,0,290.276,82.648Z" transform="translate(646.168 145.35)" fill="#22b573"/>
    <path id="Path_7927" data-name="Path 7927" d="M111.279,205.407c-.811.444-2.86.658-2.187-.642.229-.444,1.071-.75,1.53-1.01a12.8,12.8,0,0,0,3.228-2.707,5.66,5.66,0,0,0,.245-7.159c-1.8-2.249-4.8-2.677-7.5-2.891-1.071-.092-3.533.107-4.283-.887-1.285-1.683,1.132-3.335,2.463-3.87,3.5-1.423,1.973-7.189-1.53-5.751-4.191,1.7-8.107,5.247-7.036,10.264,1.178,5.491,6.531,5.66,11.013,6.241,2.753.352,1.53.826,0,1.836a16.827,16.827,0,0,0-2.662,2.034,6.2,6.2,0,0,0-1.652,5.843c1.361,5.032,7.388,6.027,11.426,3.839C117.7,208.726,114.69,203.571,111.279,205.407Z" transform="translate(757.312 52.527)" fill="#ffa41b"/>
    <path id="Path_7939" data-name="Path 7939" d="M111.279,205.407c-.811.444-2.86.658-2.187-.642.229-.444,1.071-.75,1.53-1.01a12.8,12.8,0,0,0,3.228-2.707,5.66,5.66,0,0,0,.245-7.159c-1.8-2.249-4.8-2.677-7.5-2.891-1.071-.092-3.533.107-4.283-.887-1.285-1.683,1.132-3.335,2.463-3.87,3.5-1.423,1.973-7.189-1.53-5.751-4.191,1.7-8.107,5.247-7.036,10.264,1.178,5.491,6.531,5.66,11.013,6.241,2.753.352,1.53.826,0,1.836a16.827,16.827,0,0,0-2.662,2.034,6.2,6.2,0,0,0-1.652,5.843c1.361,5.032,7.388,6.027,11.426,3.839C117.7,208.726,114.69,203.571,111.279,205.407Z" transform="translate(451.388 43.349)" fill="#ffa41b"/>
    <path id="Path_7938" data-name="Path 7938" d="M297.5,182.559l-19.579-16.627a7.067,7.067,0,0,0-9.728,0c-2.463,2.463-2.845,7.312,0,9.728l19.579,16.627a7.067,7.067,0,0,0,9.728,0C299.96,189.825,300.343,184.976,297.5,182.559Z" transform="translate(783.19 219.816)" fill="#ffa41b"/>
    <path id="Path_7941" data-name="Path 7941" d="M297.5,182.559l-19.579-16.627a7.067,7.067,0,0,0-9.728,0c-2.463,2.463-2.845,7.312,0,9.728l19.579,16.627a7.067,7.067,0,0,0,9.728,0C299.96,189.825,300.343,184.976,297.5,182.559Z" transform="translate(396.196 85.21)" fill="#dfdfdf"/>
  </g>
</svg>
