<svg xmlns="http://www.w3.org/2000/svg" xmlns:xlink="http://www.w3.org/1999/xlink" width="353.431" height="198.805" viewBox="0 0 353.431 198.805">
  <defs>
    <filter id="Ellipse_91" x="91.431" y="24" width="170" height="170" filterUnits="userSpaceOnUse">
      <feOffset dy="3" input="SourceAlpha"/>
      <feGaussianBlur stdDeviation="3" result="blur"/>
      <feFlood flood-color="#ffa41b" flood-opacity="0.212"/>
      <feComposite operator="in" in2="blur"/>
      <feComposite in="SourceGraphic"/>
    </filter>
    <clipPath id="clip-path">
      <path id="path16" d="M0-1440H353.431v198.8H0Z" transform="translate(0 1439.996)"/>
    </clipPath>
  </defs>
  <g id="Logo-Chest" transform="translate(6.431 -47)">
    <g transform="matrix(1, 0, 0, 1, -6.43, 47)" filter="url(#Ellipse_91)">
      <g id="Ellipse_91-2" data-name="Ellipse 91" transform="translate(100.43 30)" fill="#fdfdfd" stroke="#ffa41b" stroke-width="1">
        <circle cx="76" cy="76" r="76" stroke="none"/>
        <circle cx="76" cy="76" r="75.5" fill="none"/>
      </g>
    </g>
    <g id="g10" transform="translate(-432.431 908.996)">
      <g id="g12" transform="translate(426 -861.996)">
        <g id="g14" transform="translate(0 0)" clip-path="url(#clip-path)">
          <g id="g20" transform="translate(118.748 131.661)">
            <path id="path22" d="M-77.533,0a9.749,9.749,0,0,0-2.325,2.536.923.923,0,0,0-.105.383c.006.031.018.062.025.093l.024.087a3.416,3.416,0,0,1,.031,1.361l-.006.05h-2.356a3.513,3.513,0,0,0,.074-.594,1.054,1.054,0,0,0-.08-.451Zm-2.029,5.987c-.031.031-.08.087-.154.173s-.161.179-.254.285-.185.216-.278.322a1.83,1.83,0,0,0-.3.445c-.031.056-.056.111-.08.167a4.567,4.567,0,0,1-4.131,3.074,8.154,8.154,0,0,0-2.146.934Zm-6.221.08a6.715,6.715,0,0,0-.21,1.218,2.12,2.12,0,0,0,.068.816,1.032,1.032,0,0,0,1.076.575.761.761,0,0,0,.111-.006.817.817,0,0,0,.124-.006.577.577,0,0,0,.105-.006h.056a2.083,2.083,0,0,0,1.8-1.559h.316a2.769,2.769,0,0,0,1.552-.656l-5.38,3.946a2.559,2.559,0,0,1-2.2-2.431Zm.13-.532-4.3,3.16A7.267,7.267,0,0,0-88.14,5.906l.08-.328a5.313,5.313,0,0,1,5.034-4.4,3.612,3.612,0,0,1,2.35.693l-3.334,2.449c.043-.043.111-.1.192-.179.2-.186.767-.73.767-1.027-.006-.062-.05-.105-.13-.124-.043-.006-.08-.006-.124-.012a1.821,1.821,0,0,0-1.021.223,3.517,3.517,0,0,0-1.311,2.257Z" transform="translate(89.952)" fill="#ffa41b"/>
          </g>
          <g id="g24" transform="translate(126.528 131.488)">
            <path id="path26" d="M-81.817-9.228l-9.6,7.05,1.75-7.05h2.362l-.878,3.55h1.026a5.445,5.445,0,0,0,2.09-1.571A6.877,6.877,0,0,0-84.143-9.2l.006.006.006-.037Zm-.08.495-.006.019,2.709-1.992a10.069,10.069,0,0,0-3.167,3.835L-84.019-.156h-2.35l.922-3.742h-2.739c-.056.031-.118.074-.179.118a1.42,1.42,0,0,0-.408.47l-.779,3.154H-91.4a7.8,7.8,0,0,0-2.344.482,9.924,9.924,0,0,0-1.175.507l8.869-6.512h1.045l.235-.94Z" transform="translate(94.922 10.707)" fill="#ffa41b"/>
          </g>
          <g id="g28" transform="translate(138.748 131.735)">
            <path id="path30" d="M-54.753-49.849a3.086,3.086,0,0,0-.643,1.2l-.278,1.113h-1.491a14.123,14.123,0,0,0-3.179,1.781ZM-58.3-53.708l-2.876,2.115,1.231-4.985h5.547L-56.812-54.8h-1.212Zm6.209-4.125a7.291,7.291,0,0,0-1.645,2.5l-.13.526h-1.7l-.043.006a.791.791,0,0,0-.55.2c-.476.346-.946.705-1.41,1.07-.155.117-.253.2-.309.247a.916.916,0,0,0-.142.124.129.129,0,0,0-.031.068c-.006.019.006.037.037.043h3.061l-.42,1.713h-3.513l-.5,2.016h3.3l-3.952,2.894c.031-.031.087-.074.161-.142s.148-.136.229-.216c.13-.13.482-.482.507-.674.006-.05-.025-.08-.087-.087H-62.18c.111-.452.21-.847.3-1.2.074-.285.142-.569.21-.854.025-.105.043-.192.062-.26a.819.819,0,0,1,.031-.111.14.14,0,0,0-.025-.136.211.211,0,0,0-.136-.037.955.955,0,0,0-.21.031,3.7,3.7,0,0,0-.557.192c-.346.142-.68.309-1.014.482Z" transform="translate(63.523 57.833)" fill="#ffa41b"/>
          </g>
          <g id="g32" transform="translate(146.15 132.812)">
            <path id="path34" d="M-60.582-18.109l2.74-2.01c-.025.031-.08.093-.161.186s-.179.2-.284.315a7.544,7.544,0,0,0-.557.686,2.272,2.272,0,0,0-.365.817h-.025v.006Zm-5.758-.34c.445-1.812,2.573-2.56,4.267-2.56a2.839,2.839,0,0,1,2.764,1.361.3.3,0,0,1,.031.062c.006.025.012.05.018.068L-62-17.5a1.264,1.264,0,0,0,.4-.606l.019-.074a.788.788,0,0,0-.124-.792,1.078,1.078,0,0,0-.829-.284A1.413,1.413,0,0,0-64-18.4a.547.547,0,0,0,.21.563,3.778,3.778,0,0,0,1.187.563l.105.031c.031.012.056.025.087.037l-2.016,1.478a6.294,6.294,0,0,1-.656-.3,2.03,2.03,0,0,1-1.261-2.418M-64.6-15.6c-.025.018-.05.037-.068.05l-2.87,2.109a2.669,2.669,0,0,1,.012-1.342l.013-.043h.686v-.006a3.985,3.985,0,0,0,2.159-.717Zm4.41,1.348c-.476,1.893-2.375,2.567-4.131,2.567a4.033,4.033,0,0,1-2.6-.8.413.413,0,0,0-.186-.037,1.4,1.4,0,0,0-.383.062,7.076,7.076,0,0,0-1.521.705c-.4.223-.829.476-1.268.761l5.121-3.754a1.111,1.111,0,0,0,.111,1.014,1.5,1.5,0,0,0,1.132.328,1.28,1.28,0,0,0,1.367-.847.668.668,0,0,0-.148-.693,3.143,3.143,0,0,0-1.07-.538q-.139-.046-.26-.093l2.016-1.484a4.876,4.876,0,0,1,.86.433,2.013,2.013,0,0,1,.965,2.375" transform="translate(70.285 21.009)" fill="#ffa41b"/>
          </g>
          <g id="g36" transform="translate(157.232 130.721)">
            <path id="path38" d="M-19-59.5l4.372-3.216c-.192.216-.383.421-.563.625-.229.26-.458.52-.668.792a3.251,3.251,0,0,0-.618,1.175l-.587,2.369H-19.43Zm6.976-7.341-.439,1.781h-2.8l-.693,2.8-3.841,2.82a4.2,4.2,0,0,0,1.169-1.6l1-4.026h-2.01l5.405-3.971a9.116,9.116,0,0,0-1.651,1.769.689.689,0,0,0-.087.266.133.133,0,0,0,.1.154Zm-5.776,0-4.243,3.117c.037-.037.124-.13.254-.272s.272-.309.433-.495.322-.377.482-.569a4.263,4.263,0,0,0,.9-1.627l.043-.155Z" transform="translate(22.04 69.032)" fill="#ffa41b"/>
          </g>
          <g id="g40" transform="translate(165.89 132.063)">
            <path id="path42" d="M-56.064-62.088l3.8-2.8c-.365.383-.724.779-1.064,1.187-.068.087-.136.173-.2.253a2.11,2.11,0,0,0-.167.223,3.841,3.841,0,0,0-.39.761q-.065.195-.111.371v-.025l-.006.025Zm1.169-6.011L-58.5-62.088h-1.571l-.643-6.055-1.3,6.055h-2.369l1.268-5.115,6.568-4.83a8.882,8.882,0,0,0-2.214,2.585,1.144,1.144,0,0,0-.124.587l.018.167c.006.111.019.253.037.433s.037.377.056.606.037.458.056.693c.049.557.105,1.187.161,1.893l3.538-6.1h3.067L-53.633-64.4l-3.717,2.734c.235-.247.445-.507.662-.773.05-.068.1-.136.149-.21s.087-.149.124-.216a1.017,1.017,0,0,0,.08-.2Zm-4.144-2.536-6.005,4.41.29-.291a13.34,13.34,0,0,0,1.886-2.2,2.02,2.02,0,0,0,.247-.489l.482-1.967h3.055Z" transform="translate(65.044 72.033)" fill="#000839"/>
          </g>
          <g id="g44" transform="translate(178.029 131.377)">
            <path id="path46" d="M-29.538-44.867h1.812l-.21-2.814Zm4.274,1.231.736-.538a2.4,2.4,0,0,0-.594.965.86.86,0,0,0-.031.371.308.308,0,0,1,.006.08l.179,1.3h-2.183A9.647,9.647,0,0,0-30.62-39.7l3.111-2.288V-42l2.245-1.645ZM-31.437-46.1l-.062.043.062-.043a3.446,3.446,0,0,0,.284-.247,6.473,6.473,0,0,0,.785-.86l2.01-3.2h.006l.006-.013h.847a4.521,4.521,0,0,0,2.14-.519c.216-.117.439-.235.662-.359s.421-.229.606-.334.34-.192.476-.266.223-.124.272-.155Zm5.981,1.07a.534.534,0,0,0,.235.451.344.344,0,0,0,.186.043,1.879,1.879,0,0,0,.854-.328l-4.267,3.129a3.344,3.344,0,0,0,.872-1.373H-30.54l-.94,1.651h-2.5l1.367-2.177a1.771,1.771,0,0,0,.229-.526c.019-.117-.031-.179-.148-.179a1.035,1.035,0,0,0-.346.1q-.25.1-.519.223c-.179.087-.353.173-.519.253s-.278.149-.353.186l3.03-2.239,5.158-3.785.625,4.54Z" transform="translate(34.269 52.053)" fill="#000839"/>
          </g>
          <g id="g48" transform="translate(186.279 132.812)">
            <path id="path50" d="M-60.583-18.109l2.74-2.01c-.025.031-.08.093-.161.186s-.179.2-.284.315a7.544,7.544,0,0,0-.557.686,2.269,2.269,0,0,0-.365.817h-.025v.006Zm-5.758-.34c.445-1.812,2.573-2.56,4.267-2.56a2.84,2.84,0,0,1,2.765,1.361.3.3,0,0,1,.031.062c.006.025.012.05.018.068L-62-17.5a1.265,1.265,0,0,0,.4-.606l.019-.074a.788.788,0,0,0-.124-.792,1.078,1.078,0,0,0-.829-.284A1.413,1.413,0,0,0-64-18.4a.547.547,0,0,0,.21.563,3.774,3.774,0,0,0,1.187.563l.105.031.087.037-2.016,1.478a6.277,6.277,0,0,1-.656-.3,2.03,2.03,0,0,1-1.261-2.418M-64.6-15.6c-.025.018-.05.037-.068.05l-2.87,2.109a2.67,2.67,0,0,1,.012-1.342l.012-.043h.686v-.006a3.986,3.986,0,0,0,2.158-.717Zm4.409,1.348c-.476,1.893-2.375,2.567-4.131,2.567a4.033,4.033,0,0,1-2.6-.8.414.414,0,0,0-.186-.037,1.4,1.4,0,0,0-.383.062,7.082,7.082,0,0,0-1.521.705c-.4.223-.829.476-1.268.761l5.121-3.754a1.111,1.111,0,0,0,.111,1.014,1.5,1.5,0,0,0,1.132.328,1.28,1.28,0,0,0,1.367-.847.668.668,0,0,0-.148-.693,3.143,3.143,0,0,0-1.07-.538q-.139-.046-.26-.093l2.016-1.484a4.878,4.878,0,0,1,.86.433,2.013,2.013,0,0,1,.965,2.375" transform="translate(70.286 21.009)" fill="#000839"/>
          </g>
          <g id="g52" transform="translate(197.361 130.721)">
            <path id="path54" d="M-19-59.5l4.372-3.216c-.192.216-.383.421-.563.625-.229.26-.458.52-.668.792a3.254,3.254,0,0,0-.618,1.175l-.587,2.369H-19.43Zm6.976-7.341-.439,1.781h-2.8l-.693,2.8-3.841,2.82a4.193,4.193,0,0,0,1.169-1.6l1-4.026h-2.01l5.405-3.971a9.122,9.122,0,0,0-1.651,1.769.689.689,0,0,0-.087.266.133.133,0,0,0,.1.154Zm-5.776,0-4.243,3.117c.037-.037.124-.13.254-.272s.272-.309.433-.495.322-.377.482-.569a4.263,4.263,0,0,0,.9-1.627l.043-.155Z" transform="translate(22.04 69.032)" fill="#000839"/>
          </g>
          <g id="g56" transform="translate(205.536 131.735)">
            <path id="path58" d="M-54.753-49.849a3.086,3.086,0,0,0-.643,1.2l-.278,1.113h-1.491a14.123,14.123,0,0,0-3.179,1.781ZM-58.3-53.708l-2.876,2.115,1.231-4.985h5.547L-56.812-54.8h-1.212Zm6.209-4.125a7.288,7.288,0,0,0-1.645,2.5l-.13.526h-1.7l-.043.006a.791.791,0,0,0-.55.2c-.476.346-.946.705-1.41,1.07-.155.117-.253.2-.309.247a.917.917,0,0,0-.142.124.131.131,0,0,0-.031.068c-.006.019.006.037.037.043h3.061l-.421,1.713h-3.513l-.5,2.016h3.3l-3.952,2.894c.031-.031.087-.074.161-.142s.148-.136.229-.216c.13-.13.482-.482.507-.674.006-.05-.025-.08-.087-.087H-62.18c.111-.452.21-.847.3-1.2.074-.285.142-.569.21-.854.025-.105.044-.192.062-.26a.79.79,0,0,1,.031-.111.14.14,0,0,0-.025-.136.211.211,0,0,0-.136-.037.954.954,0,0,0-.21.031,3.7,3.7,0,0,0-.557.192c-.346.142-.68.309-1.014.482Z" transform="translate(63.523 57.833)" fill="#000839"/>
          </g>
          <g id="g60" transform="translate(214.169 131.426)">
            <path id="path62" d="M-47.378-22.4a.968.968,0,0,0-.829-.309H-49.58l-.581,2.35h1.342a1.455,1.455,0,0,0,1.534-1.181.981.981,0,0,0-.093-.86m-4.9,1,.767-3.092h1.936a5.114,5.114,0,0,0,1.763-.507c.167-.093.34-.192.514-.284l.489-.272c.155-.087.3-.167.439-.241s.247-.136.346-.192Zm7.39-.309a3.546,3.546,0,0,1-2.239,2.567l.674,2.319v-.006l.414,1.416h-2.585l-.86-3.16h-1.125l-.285,1.138a.21.21,0,0,0,.037.074c.019.031.056.043.117.043a.63.63,0,0,0,.2-.043,2.549,2.549,0,0,0,.334-.13c-.012.006-.056.037-.124.087s-.192.142-.322.241-.285.21-.451.334c-.649.464-1.293.94-1.936,1.416h-.724l1.058-4.286c-.024-.161-.086-.223-.26-.223a1.149,1.149,0,0,0-.427.111q-.279.121-.519.241c-.167.08-.309.148-.433.2q-.213.1-.39.2l2.319-1.7v-.006l4.929-3.618a3.246,3.246,0,0,1,2.14.717,1.959,1.959,0,0,1,.451,2.059m-10.081,8.17c.031-.019.056-.043.087-.062l3.723-2.746-.217.94a10.576,10.576,0,0,0-3.507,1.806Z" transform="translate(54.967 25.983)" fill="#000839"/>
          </g>
          <g id="g64" transform="translate(222.239 132.812)">
            <path id="path66" d="M-60.583-18.109l2.74-2.01c-.025.031-.08.093-.161.186s-.179.2-.284.315a7.544,7.544,0,0,0-.557.686,2.266,2.266,0,0,0-.365.817h-.025v.006Zm-5.758-.34c.445-1.812,2.573-2.56,4.267-2.56a2.84,2.84,0,0,1,2.765,1.361.29.29,0,0,1,.031.062c.006.025.012.05.018.068L-62-17.5a1.264,1.264,0,0,0,.4-.606l.019-.074a.787.787,0,0,0-.124-.792,1.078,1.078,0,0,0-.829-.284A1.413,1.413,0,0,0-64-18.4a.546.546,0,0,0,.21.563,3.774,3.774,0,0,0,1.187.563l.105.031.087.037-2.016,1.478a6.277,6.277,0,0,1-.656-.3,2.03,2.03,0,0,1-1.261-2.418M-64.6-15.6c-.025.018-.049.037-.068.05l-2.87,2.109a2.67,2.67,0,0,1,.012-1.342l.012-.043h.686v-.006a3.986,3.986,0,0,0,2.158-.717Zm4.41,1.348c-.476,1.893-2.375,2.567-4.131,2.567a4.033,4.033,0,0,1-2.6-.8.414.414,0,0,0-.186-.037,1.4,1.4,0,0,0-.384.062,7.076,7.076,0,0,0-1.521.705c-.4.223-.829.476-1.268.761l5.121-3.754a1.11,1.11,0,0,0,.111,1.014,1.5,1.5,0,0,0,1.132.328,1.28,1.28,0,0,0,1.367-.847.668.668,0,0,0-.148-.693,3.145,3.145,0,0,0-1.07-.538q-.139-.046-.26-.093l2.016-1.484a4.878,4.878,0,0,1,.86.433,2.013,2.013,0,0,1,.965,2.375" transform="translate(70.286 21.009)" fill="#000839"/>
          </g>
          <g id="g68" transform="translate(170.317 107.457)">
            <path id="path70" d="M-8.672-12.044a.48.48,0,0,0-.2.467A3.758,3.758,0,0,1-9.4-9.244c-.193.334-.393.663-.589,1a.447.447,0,0,0-.076.166c.062-.011.074-.06.1-.094a4.424,4.424,0,0,1,.686-.788,12.018,12.018,0,0,0,.966-.851,2.894,2.894,0,0,0,.732-1.2,5,5,0,0,1,1-1.872c.028-.034.051-.07.078-.1l.157-.978c-.2.161-.394.322-.589.484-.581.481-1.156.969-1.742,1.445" transform="translate(10.061 13.973)" fill="#000839"/>
          </g>
          <g id="g72" transform="translate(182.434 99.514)">
            <path id="path74" d="M-12.265-13.19a1.256,1.256,0,0,1,.483-.436c.5-.25.981-.54,1.5-.75.188-.076.377-.151.561-.235a1.324,1.324,0,0,0,.6-.5c.017-.027.052-.055.037-.085s-.065-.018-.1-.019a5.1,5.1,0,0,1-.632-.02,4.066,4.066,0,0,0-.97-.054,2.412,2.412,0,0,0-1.744.849,3.971,3.971,0,0,1-.958.925,5.974,5.974,0,0,0-.74.654c.363.045.686.124,1.019.139a1,1,0,0,0,.946-.463" transform="translate(14.229 15.303)" fill="#000839"/>
          </g>
          <g id="g76" transform="translate(180.715 107.393)">
            <path id="path78" d="M-7.844-16.208A2.641,2.641,0,0,0-6.638-15.2a3.036,3.036,0,0,0,.973.2,1.608,1.608,0,0,0,1.053-.2c.11-.076.231-.136.346-.205a8.592,8.592,0,0,0,1.231-.911c.043-.038.091-.07.013-.13a3.1,3.1,0,0,0-1.015-.564,6.612,6.612,0,0,1-1.173-.471c-.335-.175-.632-.411-.964-.591-.19-.1-.383-.2-.581-.287.226.373.414.76.6,1.145a2.161,2.161,0,0,0,.713.8,5.543,5.543,0,0,0,1.121.607.259.259,0,0,1,.155.1,5.331,5.331,0,0,1-1.256-.5,2.019,2.019,0,0,1-.851-.827,7.038,7.038,0,0,0-1-1.435.631.631,0,0,0-.391-.218c-.317-.056-.637-.065-.956-.091-.156-.013-.312-.018-.485-.027.027.057.045.1.064.135a13.576,13.576,0,0,1,.713,1.533,4.044,4.044,0,0,0,.479.928" transform="translate(9.1 18.804)" fill="#000839"/>
          </g>
          <g id="g80" transform="translate(179.349 97.099)">
            <path id="path82" d="M-5.627-33.752c.581-.482,1.156-.97,1.742-1.444a.479.479,0,0,0,.2-.467A3.761,3.761,0,0,1-3.161-38c.194-.333.393-.663.589-1a.445.445,0,0,0,.076-.165c-.062.01-.074.06-.1.093a4.437,4.437,0,0,1-.686.788,12.127,12.127,0,0,0-.966.851,2.9,2.9,0,0,0-.732,1.205,5,5,0,0,1-1,1.872,6.128,6.128,0,0,0-.5.709c-.022.209-.029.42-.043.63q.451-.37.9-.741" transform="translate(6.528 39.159)" fill="#000839"/>
          </g>
          <g id="g84" transform="translate(191.209 106.023)">
            <path id="path86" d="M-20.5-.02a6.084,6.084,0,0,0-.892.029A2.537,2.537,0,0,0-22.477.37c-.434.283-.866.571-1.305.814A4.236,4.236,0,0,0-20.5-.02" transform="translate(23.783 0.024)" fill="#000839"/>
          </g>
          <g id="g88" transform="translate(179.559 107.362)">
            <path id="path90" d="M-6.556-16.09a3.306,3.306,0,0,0,.482.834c-.019-.163-.041-.307-.043-.453a.582.582,0,0,0-.048-.236c-.385-.846-.866-1.642-1.284-2.471-.045-.089-.1-.168-.157-.251l.2,1.233a6.592,6.592,0,0,1,.853,1.344" transform="translate(7.607 18.667)" fill="#000839"/>
          </g>
          <g id="g92" transform="translate(159.206 103.208)">
            <path id="path94" d="M0-7.572A6.161,6.161,0,0,0,.892-7.6a2.537,2.537,0,0,0,1.086-.362c.434-.283.865-.572,1.3-.814A4.235,4.235,0,0,0,0-7.572" transform="translate(0 8.785)" fill="#000839"/>
          </g>
          <g id="g96" transform="translate(172.609 99.673)">
            <path id="path98" d="M-3.006-5.208a3.313,3.313,0,0,0-.482-.834c.019.163.041.307.043.453a.582.582,0,0,0,.048.236c.385.846.866,1.643,1.284,2.472a2.994,2.994,0,0,0,.549.748c.012-.311.013-.622.007-.933-.14-.2-.278-.4-.438-.587A6.743,6.743,0,0,1-3.006-5.208" transform="translate(3.488 6.043)" fill="#000839"/>
          </g>
          <g id="g100" transform="translate(166.119 108.356)">
            <path id="path102" d="M-25.769-.01a1,1,0,0,0-.946.463A1.257,1.257,0,0,1-27.2.89c-.5.25-.981.54-1.5.75-.188.076-.377.151-.561.234a1.324,1.324,0,0,0-.6.5c-.017.027-.052.055-.037.085s.065.018.1.019a5.1,5.1,0,0,1,.632.02,4.087,4.087,0,0,0,.97.054,2.411,2.411,0,0,0,1.744-.849,3.976,3.976,0,0,1,.958-.925,5.978,5.978,0,0,0,.74-.653c-.363-.046-.686-.124-1.019-.139" transform="translate(29.897 0.011)" fill="#000839"/>
          </g>
          <g id="g104" transform="translate(166.866 99.246)">
            <path id="path106" d="M-33.349-13.364a4.057,4.057,0,0,0-.48-.928,2.636,2.636,0,0,0-1.2-1.006,3.034,3.034,0,0,0-.973-.2,1.605,1.605,0,0,0-1.053.2c-.11.076-.231.135-.346.2a8.611,8.611,0,0,0-1.231.912c-.043.038-.091.069-.013.13a3.1,3.1,0,0,0,1.015.564,6.606,6.606,0,0,1,1.173.471c.335.175.632.411.964.591.19.1.383.2.581.287-.226-.373-.414-.76-.6-1.146a2.157,2.157,0,0,0-.713-.8,5.538,5.538,0,0,0-1.121-.607.258.258,0,0,1-.155-.1,5.357,5.357,0,0,1,1.256.5,2.021,2.021,0,0,1,.851.827,7.024,7.024,0,0,0,1,1.435.631.631,0,0,0,.391.218c.317.056.637.064.956.091.156.013.312.018.485.027-.027-.057-.045-.1-.064-.135a13.582,13.582,0,0,1-.713-1.533" transform="translate(38.691 15.504)" fill="#000839"/>
          </g>
          <g id="g108" transform="translate(151.191 91.848)">
            <path id="path110" d="M-120.707-108.016a3.979,3.979,0,0,0-.958.925,2.412,2.412,0,0,1-1.744.849,4.085,4.085,0,0,1-.97-.054,5.1,5.1,0,0,0-.632-.02c-.034,0-.08.02-.1-.019s.02-.059.037-.085a1.323,1.323,0,0,1,.6-.5c.184-.083.373-.158.561-.234.52-.211,1-.5,1.5-.75a1.254,1.254,0,0,0,.483-.436,1,1,0,0,1,.945-.463c.333.015.656.093,1.019.139a5.966,5.966,0,0,1-.74.653m-9.341-5.119a2.537,2.537,0,0,1-1.086.362,6.132,6.132,0,0,1-.892.029,4.234,4.234,0,0,1,3.283-1.2c-.44.242-.871.531-1.3.814m11.314-1c-.319-.026-.639-.035-.956-.091a.631.631,0,0,1-.391-.218,7.048,7.048,0,0,1-1-1.435,2.018,2.018,0,0,0-.851-.827,5.352,5.352,0,0,0-1.256-.5.259.259,0,0,0,.155.1,5.538,5.538,0,0,1,1.121.607,2.157,2.157,0,0,1,.713.8c.19.385.378.773.6,1.146-.2-.089-.391-.184-.581-.287-.332-.181-.629-.416-.964-.591a6.584,6.584,0,0,0-1.173-.471,3.1,3.1,0,0,1-1.015-.564c-.078-.061-.03-.091.013-.13a8.591,8.591,0,0,1,1.231-.912c.114-.069.236-.129.346-.2a1.6,1.6,0,0,1,1.053-.2,3.032,3.032,0,0,1,.973.2,2.636,2.636,0,0,1,1.2,1.006,4.047,4.047,0,0,1,.48.928,13.582,13.582,0,0,0,.713,1.533c.02.039.038.078.064.135-.173-.009-.33-.014-.485-.027m1.3,5.511a5,5,0,0,0-1,1.872,2.894,2.894,0,0,1-.732,1.205,12.089,12.089,0,0,1-.966.851,4.424,4.424,0,0,0-.686.788c-.024.033-.036.083-.1.093a.447.447,0,0,1,.076-.166c.2-.332.4-.661.589-1a3.758,3.758,0,0,0,.521-2.334.479.479,0,0,1,.2-.467c.586-.475,1.161-.963,1.742-1.445q.293-.244.589-.485l.3-1.884a16.581,16.581,0,0,0,.194-1.99,3,3,0,0,1-.549-.748c-.418-.829-.9-1.625-1.284-2.472a.586.586,0,0,1-.048-.236c0-.146-.025-.29-.044-.453a3.317,3.317,0,0,1,.482.834,6.738,6.738,0,0,0,1.012,1.555c.16.186.3.387.438.587-.008-.407-.025-.813-.062-1.218,0,.011,0,.023-.007.034-.025.153-.031.308-.047.479-.248-.282-.478-.554-.7-.836a3.351,3.351,0,0,1-.517-.836,2.589,2.589,0,0,0-.6-.9.584.584,0,0,1-.138-.211,2.4,2.4,0,0,0-.753-1.028,5.668,5.668,0,0,0-1.444-.8.9.9,0,0,1-.309-.209,5.662,5.662,0,0,1-.792-1,5.239,5.239,0,0,0-.822-1.036,3.9,3.9,0,0,1-.651-.7,5.757,5.757,0,0,1-.605-1.4.952.952,0,0,0-.075-.228c-.036.037-.016.07-.011.1a6.274,6.274,0,0,0,.241.955,2.5,2.5,0,0,0,.8,1.226,1.632,1.632,0,0,1,.291.309c.294.38.526.8.79,1.2.052.078.094.162.145.25a.114.114,0,0,1-.091-.036,4.183,4.183,0,0,1-.793-.734,18.374,18.374,0,0,0-1.362-1.443c-.455-.422-.916-.838-1.377-1.255a4.387,4.387,0,0,0-1.366-.875,18.927,18.927,0,0,0-2.056-.6c-.017,0-.04-.011-.051.025.053.02.105.04.158.058a17.552,17.552,0,0,1,2.282,1,2.236,2.236,0,0,1,.8.659,6.217,6.217,0,0,0,.845.94c.246.224.488.453.717.695a1.1,1.1,0,0,1,.2.258.2.2,0,0,1-.047.005,9.478,9.478,0,0,0-1.314-.168,2.123,2.123,0,0,1-.86-.24,5.463,5.463,0,0,1-1.206-.936c-.035-.034-.063-.08-.114-.1a.037.037,0,0,0,0,.051,4.392,4.392,0,0,0,1.226,1.152,1.7,1.7,0,0,0,.7.235,6.676,6.676,0,0,1,1.815.443,1.1,1.1,0,0,1,.492.277,8.454,8.454,0,0,0,.6.636,4.088,4.088,0,0,0,1.4.966,6.52,6.52,0,0,1,.69.274,2.286,2.286,0,0,1,1.053,1.008c-.028.012-.042-.006-.058-.016a3.64,3.64,0,0,0-1.586-.465c-.41-.039-.82-.019-1.229-.018a.659.659,0,0,1-.238-.039,6.945,6.945,0,0,1-1.451-.739,5.535,5.535,0,0,0-1.173-.614c-.282-.1-.575-.181-.847-.305a4.721,4.721,0,0,1-1.444-1.139c-.131-.14-.255-.287-.387-.436-.021.051.012.072.029.1a6.444,6.444,0,0,0,.9,1.086,2.658,2.658,0,0,0,1.249.725,1.559,1.559,0,0,1,.35.138,16.76,16.76,0,0,1,1.764,1.1c.008.005.01.019.015.029-.032.027-.064.015-.095.009a4.522,4.522,0,0,1-.634-.17c-.574-.2-1.117-.484-1.681-.714-.429-.175-.874-.306-1.3-.481a6.628,6.628,0,0,1-1.793-1.089,2.681,2.681,0,0,0-1.288-.644,5.187,5.187,0,0,0-1.443-.051.844.844,0,0,0-.345.051c.026.036.057.026.082.025a6.441,6.441,0,0,1,1.153.074,2.955,2.955,0,0,1,1.658.69c.174.164.358.317.538.475a3.749,3.749,0,0,1-.429-.115,4.933,4.933,0,0,0-1.993-.227c-.594.055-1.182.156-1.768.263-.176.032-.352.068-.551.105a.2.2,0,0,0,.144.024,16.382,16.382,0,0,1,1.64-.087c.474-.014.949.013,1.424.042a2.374,2.374,0,0,1,.982.252c.276.146.553.291.842.411.439.183.9.306,1.343.474a4.8,4.8,0,0,1,.741.33,9.454,9.454,0,0,0-1.449.44,2.708,2.708,0,0,1-1.239.2,6.036,6.036,0,0,1-1.419-.331c-.162-.058-.322-.12-.488-.183,0,.045.029.05.049.061a6.094,6.094,0,0,0,1.391.574,2.442,2.442,0,0,0,1.438.008,7.511,7.511,0,0,1,2.51-.409.436.436,0,0,1,.177.037,8.4,8.4,0,0,0,2.3.734c-.14.113-.269.209-.388.316q-.448.4-.887.815c-.063.059-.108.063-.172,0a8.385,8.385,0,0,1-.645-.679c-.049-.06-.1-.116-.168-.191a.166.166,0,0,0,.047.122,6.562,6.562,0,0,0,.648.82c.057.058.086.11-.013.157s-.221.122-.336.171a5.738,5.738,0,0,1-1.823.394c-.194.016-.388.024-.583.035a.1.1,0,0,0,.067.037q.072.01.145.015a6.7,6.7,0,0,0,1.336-.024,3.1,3.1,0,0,0,1.343-.433.166.166,0,0,1,.247.026,2.337,2.337,0,0,0,1.011.586,2.8,2.8,0,0,1,.652.265c.554.309,1.069.679,1.6,1.025a4.074,4.074,0,0,0,1.319.58c.542.123,1.1.174,1.644.267.086.015.189.008.243.091.134.208.258.422.387.634.029.047.016.066-.037.066-.11,0-.219.005-.329,0-.665-.028-1.328-.073-1.989-.151a3.607,3.607,0,0,1-1.556-.476c-.068-.043-.142-.079-.212-.119a6.744,6.744,0,0,1-1.384-1.008,2.689,2.689,0,0,0-1.291-.713,6.638,6.638,0,0,0-1.719-.115c-.018,0-.043,0-.045.029.032.035.075.024.113.025a6.315,6.315,0,0,1,1.488.225,2.648,2.648,0,0,1,1.2.618c.325.318.65.636.992.936.027.024.067.04.08.09a.453.453,0,0,1-.057-.008,12.747,12.747,0,0,1-1.567-.6,9.3,9.3,0,0,0-2.6-.785,1.46,1.46,0,0,1-.7-.214,9.623,9.623,0,0,0-1.311-.818,2.287,2.287,0,0,0-1.268-.276,2.144,2.144,0,0,1-.52-.018,3.307,3.307,0,0,1-1.306-.569,4.263,4.263,0,0,0-.585-.324c-.216-.1-.449-.146-.661-.245a2.986,2.986,0,0,1-1-.821.645.645,0,0,0-.213-.186,4.56,4.56,0,0,0,.69.819,1.432,1.432,0,0,0,.552.347,3.282,3.282,0,0,1,.9.442,8.292,8.292,0,0,0,.958.6c.085.039.172.074.269.115a4.74,4.74,0,0,1-1.691.168,3.549,3.549,0,0,1-1.521-.434c-.113-.064-.223-.134-.34-.189a2.586,2.586,0,0,0-1.631-.16,3.926,3.926,0,0,1-1.152.157c-.2-.02-.4-.027-.6-.064-.039-.007-.081-.023-.124.014a1.4,1.4,0,0,0,.313.076,4.178,4.178,0,0,0,1.039.088c.22-.013.429-.09.649-.1a2.9,2.9,0,0,1,1.794.513,1.73,1.73,0,0,0,.325.191,4.319,4.319,0,0,0,2.816.121,3.944,3.944,0,0,1,.922-.152,2.585,2.585,0,0,1,1.863.674.232.232,0,0,1,.1.126h-.143a11.63,11.63,0,0,0-1.768.153,16.2,16.2,0,0,0-3.016.813.558.558,0,0,1-.226.036,7.367,7.367,0,0,1-2.235-.443,2.267,2.267,0,0,0-1.052-.135,5.435,5.435,0,0,0-1.84.6c-.028.014-.067.022-.08.075.032-.009.052-.014.07-.021a6.8,6.8,0,0,1,1.3-.373,2.929,2.929,0,0,1,1.732.134,9.812,9.812,0,0,0,1.309.459c.02,0,.051,0,.053.039a5.522,5.522,0,0,1-1.276.387,16.516,16.516,0,0,1-2.308.251c-.839.04-1.679.064-2.519.023a.19.19,0,0,0-.147.025q.829.123,1.663.181c.556.038,1.113.057,1.673.062a7.369,7.369,0,0,1-.728.515,2.484,2.484,0,0,1-1.433.223.4.4,0,0,0-.2.01.569.569,0,0,0,.148.041c.169.023.337.052.507.062a1.681,1.681,0,0,0,1.109-.237,4.923,4.923,0,0,1,.814-.463,1.5,1.5,0,0,1,.5-.172c.425-.03.849-.057,1.272-.114a8.208,8.208,0,0,0,1.716-.39,10.538,10.538,0,0,1,1.5-.451l.189-.038c-.347.265-.663.551-.986.828a.412.412,0,0,1-.367.1.853.853,0,0,0-.331-.027c.152.077.3.068.428.131a2.913,2.913,0,0,1-.873.557,1.96,1.96,0,0,0-.656.433,5.323,5.323,0,0,0-.946,1.307c-.012.022-.037.047-.006.08.013-.01.029-.017.036-.03a5.042,5.042,0,0,1,.652-.861,2.858,2.858,0,0,1,1-.777,5.187,5.187,0,0,0,1.082-.6.2.2,0,0,1,.158-.041,4.748,4.748,0,0,0,.923.05,2.25,2.25,0,0,0,1.16-.319,7.648,7.648,0,0,1,1.576-.788,2.6,2.6,0,0,1,1.358-.219,9.8,9.8,0,0,1,3.7,1.419c.077.049.1.077.011.142a8.806,8.806,0,0,0-1.293,1.18,1.3,1.3,0,0,1-.538.4c-.252.088-.488.221-.742.306a.53.53,0,0,1-.356,0,5.092,5.092,0,0,1-1.144-.536,1.313,1.313,0,0,0-.447-.187,3.081,3.081,0,0,0-1.359.093c-.006,0-.009.017-.021.04a4.7,4.7,0,0,1,1.016-.041,1.487,1.487,0,0,1,.609.153c.319.174.605.4.951.582a4.567,4.567,0,0,1-.839-.036,3.881,3.881,0,0,0-.947-.013c-.205.023-.409.066-.615.075a3.057,3.057,0,0,1-1.163-.227c-.181-.064-.359-.14-.543-.213,0,.046.036.051.059.064a4.411,4.411,0,0,0,.861.4,1.861,1.861,0,0,0,.992.114,2.29,2.29,0,0,1,.568-.043,9.684,9.684,0,0,1,1.064.112,3.42,3.42,0,0,0,1.162.008,3.7,3.7,0,0,0,.639-.2c-.036.043-.051.061-.066.078-.346.376-.7.75-1.037,1.13a1.33,1.33,0,0,1-.959.436,2.832,2.832,0,0,1-.946-.135,7.539,7.539,0,0,0-.9-.291,5.748,5.748,0,0,1-.577-.079,7.033,7.033,0,0,1-1.777-.722,2.311,2.311,0,0,0-1.115-.3,5.14,5.14,0,0,0-1.466.2,1.765,1.765,0,0,0-.415.136.112.112,0,0,0,.1.007,6.638,6.638,0,0,1,1.328-.144,2.878,2.878,0,0,1,1.252.2c.409.189.78.448,1.2.666-.053.011-.084.02-.115.024-.39.049-.782.086-1.17.147a10.668,10.668,0,0,1-1.292.146,5.864,5.864,0,0,0-1.182.141,2.227,2.227,0,0,1-.988.047,15.922,15.922,0,0,1-2.406-.7c-.039-.015-.077-.045-.125-.03.008.036.038.044.063.055.43.2.854.417,1.292.6a4.115,4.115,0,0,0,1.464.382c.743.025,1.485-.034,2.226-.066.155-.007.311,0,.468-.018a.142.142,0,0,1-.041.051,2.635,2.635,0,0,1-1.332.555,5.18,5.18,0,0,0-1.275.3,1.97,1.97,0,0,1-.375.142,3.533,3.533,0,0,1-1.306-.013c-.042-.007-.086-.037-.149.005a4.4,4.4,0,0,0,.742.163,1.786,1.786,0,0,0,1.08-.144,1.124,1.124,0,0,1,.207-.068,5.663,5.663,0,0,1,1.092-.17,2.541,2.541,0,0,0,1.589-.654.891.891,0,0,1,.541-.266c.386-.043.768-.134,1.157-.151a6.157,6.157,0,0,1,2.342.447,4.339,4.339,0,0,0-1.676,1.035.244.244,0,0,1-.122.076,5,5,0,0,1-1.246.1,2.646,2.646,0,0,0-.846-.018,3.214,3.214,0,0,0-1.255.719s0,.013.006.022a.3.3,0,0,0,.125-.069,3.746,3.746,0,0,1,.89-.446,1.4,1.4,0,0,1,.607-.1,10.839,10.839,0,0,0,1.281.135c.027,0,.063-.007.074.026s-.021.049-.041.068c-.233.221-.46.447-.7.66a3.614,3.614,0,0,1-.9.616,2.171,2.171,0,0,0-.682.522,6.274,6.274,0,0,0-1.108,1.779c-.009.021-.028.041-.007.076a.515.515,0,0,0,.05-.065,8.059,8.059,0,0,1,.866-1.278,3.323,3.323,0,0,1,1.094-.912,6.67,6.67,0,0,0,.91-.564c.486-.347.87-.811,1.352-1.163a4.414,4.414,0,0,1,1.442-.793c.459-.122.917-.245,1.378-.359a1.957,1.957,0,0,0,.784-.4,8.039,8.039,0,0,0,.827-.859,10.4,10.4,0,0,1,1.544-1.447c.484-.355.977-.7,1.463-1.052a.174.174,0,0,1,.187-.029,11.921,11.921,0,0,0,3.867.666,5.94,5.94,0,0,0,.873,0,8,8,0,0,1-.808.96,17.438,17.438,0,0,1-1.323,1.149.242.242,0,0,1-.157.055,5.837,5.837,0,0,1-1.164-.072,1.292,1.292,0,0,0-.861.13.346.346,0,0,1-.164.036,4.559,4.559,0,0,1-1.157-.135,1.248,1.248,0,0,0-.483-.025,3.082,3.082,0,0,0-1.2.505c-.019.012-.053.021-.042.068.046-.023.085-.043.125-.062a3.116,3.116,0,0,1,1.239-.367,6.713,6.713,0,0,1,1.237.244c.077.012.04.058.012.1a1.924,1.924,0,0,1-.452.422,9.426,9.426,0,0,1-1.639.905,2.1,2.1,0,0,0-1.156.99.111.111,0,0,1-.1.061c-.172.029-.345.054-.514.1a2.82,2.82,0,0,0-1.357.672,2.483,2.483,0,0,1-.9.545,2.284,2.284,0,0,1-1.11.151,1.141,1.141,0,0,0-.255,0,4.8,4.8,0,0,0-1.269.326c-.018.006-.041.011-.04.046a.363.363,0,0,0,.161-.033,3.242,3.242,0,0,1,1.366-.165,3.082,3.082,0,0,0,1.042-.02c.148-.03.294-.072.455-.112a1.554,1.554,0,0,1-.794.614,6.116,6.116,0,0,1-.961.272,3.334,3.334,0,0,0,.908-.118,1.711,1.711,0,0,0,.89-.56,3.473,3.473,0,0,1,1.586-1.149,4.131,4.131,0,0,1,.672-.168,9.331,9.331,0,0,0-.93,1.171.051.051,0,0,0,.067-.016c.084-.1.171-.2.252-.3.238-.3.553-.527.764-.85a.143.143,0,0,1,.117-.052,7.693,7.693,0,0,1,1.578.037,2.28,2.28,0,0,0,1.511-.3c.024-.016.048-.041.091-.028-.284.383-.553.77-.8,1.172a7.667,7.667,0,0,1-1.749,1.948.276.276,0,0,1-.279.059,2.376,2.376,0,0,0-.71-.09,3.029,3.029,0,0,0-1.183.3,8,8,0,0,1-1.111.43c-.166.046-.339.031-.5.076a2.72,2.72,0,0,0-1.1.676.663.663,0,0,0-.182.212c.19-.14.378-.279.575-.4a2.3,2.3,0,0,1,1.037-.389,3.268,3.268,0,0,0,1.045-.268,5.193,5.193,0,0,1,.806-.274,2.407,2.407,0,0,1,1.085-.033c.028.005.064,0,.078.046a17.925,17.925,0,0,1-1.718,1.111q-.884.5-1.806.934t-1.859.811a18.192,18.192,0,0,0,6.416-2.874,2.148,2.148,0,0,1-1.548,1.734.1.1,0,0,0,.112.011,3.072,3.072,0,0,0,.821-.363,1.364,1.364,0,0,0,.578-.715c.026-.081.058-.16.092-.238a3.178,3.178,0,0,1,.555-.954,7.3,7.3,0,0,0,1.184-1.583,6.275,6.275,0,0,1,.969-1.255c.345-.372.712-.722,1.089-1.061.023-.021.041-.058.079-.04.012.006.02.035.019.053a7.073,7.073,0,0,1-.049.874,5.528,5.528,0,0,1-.724,1.811,5.3,5.3,0,0,0-.515,1.113.376.376,0,0,1-.167.212,6.144,6.144,0,0,1-1.252.619.138.138,0,0,0-.1.071,5.621,5.621,0,0,0,1.4-.526,4.9,4.9,0,0,1-1.492,2.207,3.924,3.924,0,0,0,.537-.42,3.856,3.856,0,0,0,.985-1.27,5.563,5.563,0,0,0,.161-.548.318.318,0,0,1,.126-.186,1.324,1.324,0,0,0,.4-.434,2.5,2.5,0,0,1,.514-.581c.373-.326.775-.616,1.161-.926a2.944,2.944,0,0,0,1.059-1.622,2.206,2.206,0,0,1,.371-.823c.048-.065.106-.126.156-.189l.147-.917c-.027.034-.05.07-.078.1" transform="translate(140.041 125.317)" fill="#ffa41b"/>
          </g>
          <g id="g112" transform="translate(179.307 93.192)">
            <path id="path114" d="M-9.19-89.5c-.02-.039-.038-.079-.064-.135.173.009.33.014.485.027.319.026.639.035.956.091a.632.632,0,0,1,.391.218,7.03,7.03,0,0,1,1,1.435,2.02,2.02,0,0,0,.851.827,5.332,5.332,0,0,0,1.256.5.26.26,0,0,0-.155-.1,5.538,5.538,0,0,1-1.121-.607,2.161,2.161,0,0,1-.713-.8c-.19-.386-.378-.773-.6-1.146.2.088.391.184.581.287.332.181.629.416.964.591a6.612,6.612,0,0,0,1.173.471,3.1,3.1,0,0,1,1.015.564c.078.061.03.092-.013.13a8.593,8.593,0,0,1-1.231.911c-.114.07-.236.129-.346.205a1.609,1.609,0,0,1-1.053.2,3.042,3.042,0,0,1-.973-.2A2.639,2.639,0,0,1-8-87.042a4.052,4.052,0,0,1-.48-.928A13.574,13.574,0,0,0-9.19-89.5M-6.8-95.733a3.964,3.964,0,0,0,.958-.925,2.412,2.412,0,0,1,1.744-.849,4.075,4.075,0,0,1,.97.054,5.067,5.067,0,0,0,.632.02c.034,0,.08-.02.1.019s-.02.059-.037.085a1.326,1.326,0,0,1-.6.5c-.185.084-.373.158-.561.235-.52.211-1,.5-1.5.75a1.256,1.256,0,0,0-.483.436,1,1,0,0,1-.946.463c-.332-.015-.656-.093-1.019-.139a6,6,0,0,1,.74-.654m9.341,5.12a2.54,2.54,0,0,1,1.086-.362A6.108,6.108,0,0,1,4.523-91,4.237,4.237,0,0,1,1.24-89.8c.44-.243.871-.531,1.305-.814M-9.48-86.856a2.586,2.586,0,0,0,.6.9.581.581,0,0,1,.138.21,2.392,2.392,0,0,0,.753,1.027,5.652,5.652,0,0,0,1.444.8.9.9,0,0,1,.309.209,5.645,5.645,0,0,1,.792,1,5.243,5.243,0,0,0,.822,1.036,3.913,3.913,0,0,1,.651.7,5.759,5.759,0,0,1,.605,1.4.958.958,0,0,0,.075.229c.036-.037.016-.07.011-.1a6.232,6.232,0,0,0-.241-.955,2.5,2.5,0,0,0-.8-1.225,1.619,1.619,0,0,1-.291-.31c-.294-.38-.526-.8-.79-1.2-.052-.078-.094-.163-.145-.25a.114.114,0,0,1,.091.036,4.17,4.17,0,0,1,.793.734A18.343,18.343,0,0,0-3.3-81.16c.455.422.916.838,1.377,1.255a4.382,4.382,0,0,0,1.366.875,18.805,18.805,0,0,0,2.056.595c.017,0,.04.011.051-.025L1.4-78.518a17.552,17.552,0,0,1-2.282-1,2.243,2.243,0,0,1-.8-.659,6.209,6.209,0,0,0-.845-.94c-.247-.223-.488-.453-.717-.695a1.106,1.106,0,0,1-.2-.258.159.159,0,0,1,.047-.005,9.531,9.531,0,0,0,1.314.168,2.124,2.124,0,0,1,.861.24,5.447,5.447,0,0,1,1.206.936c.036.035.064.08.114.1a.037.037,0,0,0,0-.051A4.376,4.376,0,0,0-1.14-81.841a1.692,1.692,0,0,0-.7-.235,6.676,6.676,0,0,1-1.815-.443,1.1,1.1,0,0,1-.492-.277,8.418,8.418,0,0,0-.6-.636,4.086,4.086,0,0,0-1.4-.966,6.421,6.421,0,0,1-.689-.274,2.283,2.283,0,0,1-1.053-1.008c.028-.012.042.006.058.016a3.643,3.643,0,0,0,1.586.465c.41.039.82.019,1.229.018a.661.661,0,0,1,.238.04,6.924,6.924,0,0,1,1.45.739,5.514,5.514,0,0,0,1.173.614c.281.1.575.181.847.306A4.724,4.724,0,0,1,.133-82.345c.131.14.255.287.387.435.02-.051-.012-.072-.029-.1a6.5,6.5,0,0,0-.9-1.086,2.661,2.661,0,0,0-1.249-.725,1.571,1.571,0,0,1-.35-.138,16.736,16.736,0,0,1-1.764-1.1c-.008-.005-.01-.019-.015-.029.032-.028.064-.015.095-.009a4.466,4.466,0,0,1,.634.17c.574.2,1.117.484,1.681.714.429.175.874.306,1.3.481a6.63,6.63,0,0,1,1.793,1.089A2.681,2.681,0,0,0,3.006-82a5.2,5.2,0,0,0,1.443.051A.863.863,0,0,0,4.794-82c-.026-.036-.057-.026-.082-.026A6.456,6.456,0,0,1,3.559-82.1a2.951,2.951,0,0,1-1.658-.69c-.174-.164-.358-.317-.538-.475a3.8,3.8,0,0,1,.429.116,4.934,4.934,0,0,0,1.993.227c.594-.055,1.182-.156,1.768-.263.176-.032.352-.067.551-.105a.2.2,0,0,0-.144-.023,16.278,16.278,0,0,1-1.64.087c-.475.014-.949-.013-1.423-.042a2.376,2.376,0,0,1-.982-.252c-.276-.146-.553-.291-.842-.411-.439-.183-.9-.306-1.343-.474a4.776,4.776,0,0,1-.741-.33,9.478,9.478,0,0,0,1.449-.44,2.7,2.7,0,0,1,1.239-.2,6.028,6.028,0,0,1,1.419.331c.162.058.322.12.488.183,0-.045-.029-.051-.049-.061a6.113,6.113,0,0,0-1.392-.574A2.441,2.441,0,0,0,.7-85.5a7.5,7.5,0,0,1-2.51.409.44.44,0,0,1-.177-.037,8.393,8.393,0,0,0-2.3-.734c.139-.113.269-.209.388-.317.3-.269.593-.542.887-.815.063-.058.108-.063.172,0a8.419,8.419,0,0,1,.645.679c.048.06.1.116.168.191a.168.168,0,0,0-.047-.122,6.609,6.609,0,0,0-.648-.82c-.057-.057-.086-.109.013-.157s.221-.122.336-.171a5.757,5.757,0,0,1,1.823-.394c.194-.015.389-.024.583-.035a.1.1,0,0,0-.067-.037c-.048-.006-.1-.011-.145-.015a6.711,6.711,0,0,0-1.336.024,3.108,3.108,0,0,0-1.343.433A.166.166,0,0,1-3.1-87.44a2.334,2.334,0,0,0-1.011-.586,2.823,2.823,0,0,1-.652-.265c-.554-.309-1.069-.679-1.6-1.025a4.061,4.061,0,0,0-1.319-.58c-.542-.123-1.1-.174-1.644-.267-.087-.015-.189-.008-.243-.091-.134-.208-.258-.422-.387-.634-.029-.047-.016-.067.037-.067.11,0,.22,0,.329,0,.665.029,1.328.073,1.989.151a3.6,3.6,0,0,1,1.556.476c.068.043.142.079.212.12A6.742,6.742,0,0,1-4.452-89.2a2.685,2.685,0,0,0,1.291.713,6.622,6.622,0,0,0,1.719.115c.017,0,.042,0,.045-.028-.032-.034-.075-.025-.113-.025A6.3,6.3,0,0,1-3-88.653a2.641,2.641,0,0,1-1.2-.618c-.325-.317-.65-.635-.992-.936-.027-.024-.067-.04-.08-.09a.426.426,0,0,1,.057.008,12.684,12.684,0,0,1,1.567.6,9.329,9.329,0,0,0,2.6.785,1.452,1.452,0,0,1,.7.214,9.657,9.657,0,0,0,1.311.818,2.291,2.291,0,0,0,1.268.276,2.144,2.144,0,0,1,.52.018,3.3,3.3,0,0,1,1.306.569,4.3,4.3,0,0,0,.585.324c.215.1.449.146.661.245a2.986,2.986,0,0,1,1,.821.633.633,0,0,0,.213.186,4.573,4.573,0,0,0-.69-.819,1.427,1.427,0,0,0-.552-.347,3.284,3.284,0,0,1-.9-.442,8.343,8.343,0,0,0-.958-.6c-.085-.039-.172-.074-.269-.115a4.757,4.757,0,0,1,1.691-.167,3.547,3.547,0,0,1,1.521.434c.113.064.223.134.34.189a2.583,2.583,0,0,0,1.631.16A3.937,3.937,0,0,1,9.476-87.3c.2.02.4.027.6.064.039.007.081.023.123-.015a1.392,1.392,0,0,0-.313-.076,4.17,4.17,0,0,0-1.039-.088c-.22.013-.429.09-.649.1a2.9,2.9,0,0,1-1.793-.513,1.7,1.7,0,0,0-.325-.191,4.32,4.32,0,0,0-2.817-.121,3.9,3.9,0,0,1-.922.151,2.585,2.585,0,0,1-1.863-.674.232.232,0,0,1-.1-.126H.53A11.709,11.709,0,0,0,2.3-88.939a16.183,16.183,0,0,0,3.016-.813.563.563,0,0,1,.226-.036,7.368,7.368,0,0,1,2.235.443,2.276,2.276,0,0,0,1.052.135,5.441,5.441,0,0,0,1.84-.6c.028-.014.067-.022.08-.075-.032.01-.052.014-.07.021a6.782,6.782,0,0,1-1.3.373,2.926,2.926,0,0,1-1.732-.134,9.748,9.748,0,0,0-1.309-.458c-.02-.005-.051,0-.053-.039a5.513,5.513,0,0,1,1.276-.387,16.545,16.545,0,0,1,2.308-.252c.839-.039,1.679-.063,2.519-.022a.192.192,0,0,0,.147-.025q-.829-.123-1.663-.181c-.556-.038-1.113-.057-1.673-.062a7.328,7.328,0,0,1,.728-.515,2.482,2.482,0,0,1,1.433-.223.4.4,0,0,0,.2-.01.549.549,0,0,0-.148-.041c-.169-.023-.337-.052-.507-.062a1.683,1.683,0,0,0-1.109.237,4.958,4.958,0,0,1-.813.463,1.5,1.5,0,0,1-.5.172c-.425.03-.85.057-1.272.114a8.225,8.225,0,0,0-1.716.39,10.553,10.553,0,0,1-1.5.451l-.189.037c.347-.265.663-.551.986-.827a.41.41,0,0,1,.367-.1.854.854,0,0,0,.331.027c-.152-.077-.3-.068-.428-.131a2.914,2.914,0,0,1,.873-.557,1.955,1.955,0,0,0,.656-.433,5.306,5.306,0,0,0,.946-1.306c.012-.022.037-.047.006-.081-.012.01-.029.017-.036.03a5.046,5.046,0,0,1-.652.861,2.861,2.861,0,0,1-1,.777,5.2,5.2,0,0,0-1.082.6.2.2,0,0,1-.158.041,4.72,4.72,0,0,0-.923-.051,2.251,2.251,0,0,0-1.16.32,7.656,7.656,0,0,1-1.576.787A2.587,2.587,0,0,1-.4-89.86a9.785,9.785,0,0,1-3.7-1.419c-.077-.048-.1-.077-.011-.142A8.765,8.765,0,0,0-2.824-92.6a1.3,1.3,0,0,1,.538-.4c.252-.089.487-.221.742-.306a.528.528,0,0,1,.356,0,5.111,5.111,0,0,1,1.144.536,1.308,1.308,0,0,0,.446.186,3.084,3.084,0,0,0,1.359-.093c.006,0,.009-.017.021-.04a4.691,4.691,0,0,1-1.015.041,1.489,1.489,0,0,1-.61-.153c-.319-.174-.605-.4-.951-.583a4.615,4.615,0,0,1,.839.037,3.89,3.89,0,0,0,.947.013c.205-.023.409-.066.615-.076a3.061,3.061,0,0,1,1.163.227c.182.064.359.14.543.213,0-.046-.037-.051-.059-.064a4.408,4.408,0,0,0-.861-.4,1.863,1.863,0,0,0-.992-.114,2.292,2.292,0,0,1-.569.043,9.592,9.592,0,0,1-1.064-.112,3.411,3.411,0,0,0-1.162-.008,3.7,3.7,0,0,0-.639.2c.036-.043.051-.061.066-.078.346-.376.7-.75,1.037-1.13a1.329,1.329,0,0,1,.959-.436,2.823,2.823,0,0,1,.946.135,7.472,7.472,0,0,0,.9.291c.192.03.391.03.577.079a7.044,7.044,0,0,1,1.777.722,2.3,2.3,0,0,0,1.115.3,5.131,5.131,0,0,0,1.465-.2,1.763,1.763,0,0,0,.415-.136.113.113,0,0,0-.1-.007,6.587,6.587,0,0,1-1.328.144,2.879,2.879,0,0,1-1.252-.2c-.408-.189-.779-.448-1.2-.666.053-.011.084-.02.115-.024.39-.048.782-.085,1.17-.147a10.561,10.561,0,0,1,1.292-.146,5.863,5.863,0,0,0,1.182-.141,2.233,2.233,0,0,1,.988-.047,15.9,15.9,0,0,1,2.406.7c.039.015.077.046.125.03-.008-.036-.038-.044-.063-.056-.43-.2-.853-.417-1.291-.6a4.117,4.117,0,0,0-1.464-.382c-.743-.024-1.484.033-2.226.066-.156.007-.311,0-.468.018a.14.14,0,0,1,.041-.051,2.637,2.637,0,0,1,1.332-.555,5.182,5.182,0,0,0,1.275-.3,1.97,1.97,0,0,1,.375-.143,3.538,3.538,0,0,1,1.306.014c.041.007.086.036.149-.006a4.455,4.455,0,0,0-.742-.162,1.786,1.786,0,0,0-1.08.144,1.184,1.184,0,0,1-.207.068,5.67,5.67,0,0,1-1.092.169,2.545,2.545,0,0,0-1.589.654.89.89,0,0,1-.541.266c-.387.043-.768.134-1.157.151A6.164,6.164,0,0,1,.84-95.56a4.337,4.337,0,0,0,1.676-1.035.243.243,0,0,1,.122-.076,4.98,4.98,0,0,1,1.246-.1,2.648,2.648,0,0,0,.846.018,3.215,3.215,0,0,0,1.255-.719s0-.013-.006-.022a.3.3,0,0,0-.125.069,3.76,3.76,0,0,1-.89.446,1.408,1.408,0,0,1-.607.1,10.882,10.882,0,0,0-1.281-.135c-.027,0-.063.008-.075-.026s.021-.049.041-.068c.233-.221.46-.447.7-.66a3.6,3.6,0,0,1,.9-.617,2.157,2.157,0,0,0,.682-.522,6.271,6.271,0,0,0,1.108-1.779c.009-.02.027-.041.007-.076a.536.536,0,0,0-.05.065,8.029,8.029,0,0,1-.866,1.278,3.325,3.325,0,0,1-1.094.912,6.581,6.581,0,0,0-.91.563c-.486.347-.87.811-1.352,1.163a4.414,4.414,0,0,1-1.442.793c-.459.122-.917.244-1.378.359a1.954,1.954,0,0,0-.784.4,7.935,7.935,0,0,0-.827.859A10.449,10.449,0,0,1-3.8-92.917c-.484.355-.978.7-1.463,1.052a.174.174,0,0,1-.187.029A11.921,11.921,0,0,0-9.322-92.5a5.943,5.943,0,0,0-.873,0,8.033,8.033,0,0,1,.808-.96c.409-.42.876-.772,1.323-1.148a.241.241,0,0,1,.157-.055,5.783,5.783,0,0,1,1.164.072,1.293,1.293,0,0,0,.861-.13.343.343,0,0,1,.164-.036,4.564,4.564,0,0,1,1.157.135,1.254,1.254,0,0,0,.483.026,3.088,3.088,0,0,0,1.2-.506c.019-.012.053-.021.042-.068l-.125.062a3.114,3.114,0,0,1-1.239.367,6.684,6.684,0,0,1-1.237-.245c-.077-.012-.04-.058-.012-.1a1.932,1.932,0,0,1,.452-.423,9.408,9.408,0,0,1,1.639-.905A2.094,2.094,0,0,0-2.2-97.4a.112.112,0,0,1,.1-.061c.172-.029.345-.054.514-.1a2.825,2.825,0,0,0,1.357-.673,2.476,2.476,0,0,1,.9-.545,2.282,2.282,0,0,1,1.11-.151,1.161,1.161,0,0,0,.255,0A4.811,4.811,0,0,0,3.3-99.253c.018-.006.04-.011.04-.046a.371.371,0,0,0-.161.033,3.251,3.251,0,0,1-1.366.166,3.068,3.068,0,0,0-1.042.02c-.148.03-.294.072-.455.112a1.553,1.553,0,0,1,.793-.614,6.06,6.06,0,0,1,.961-.272,3.3,3.3,0,0,0-.909.118,1.71,1.71,0,0,0-.889.56,3.471,3.471,0,0,1-1.586,1.149,4.122,4.122,0,0,1-.672.169,9.358,9.358,0,0,0,.931-1.171.051.051,0,0,0-.067.016c-.084.1-.171.195-.252.3-.238.3-.553.527-.764.849a.142.142,0,0,1-.117.053,7.736,7.736,0,0,1-1.578-.037,2.276,2.276,0,0,0-1.511.3c-.024.015-.048.041-.091.028.284-.383.553-.77.8-1.172a7.657,7.657,0,0,1,1.748-1.947.277.277,0,0,1,.279-.06,2.388,2.388,0,0,0,.709.09,3.023,3.023,0,0,0,1.184-.3A7.978,7.978,0,0,1,.4-101.342c.166-.045.339-.03.5-.075a2.721,2.721,0,0,0,1.1-.676.657.657,0,0,0,.182-.212c-.189.14-.378.279-.575.4a2.3,2.3,0,0,1-1.037.389,3.26,3.26,0,0,0-1.045.268,5.2,5.2,0,0,1-.806.274,2.408,2.408,0,0,1-1.085.033c-.028-.005-.064,0-.078-.046a17.881,17.881,0,0,1,1.718-1.111q.884-.5,1.806-.933t1.859-.811a18.193,18.193,0,0,0-6.416,2.874A2.148,2.148,0,0,1-1.93-102.7a.1.1,0,0,0-.112-.011,3.089,3.089,0,0,0-.821.362,1.365,1.365,0,0,0-.579.715,2.518,2.518,0,0,1-.092.238,3.165,3.165,0,0,1-.555.953,7.32,7.32,0,0,0-1.184,1.583A6.273,6.273,0,0,1-6.242-97.6c-.345.372-.713.721-1.089,1.062-.023.02-.041.058-.079.04-.013-.006-.02-.035-.019-.053a7.11,7.11,0,0,1,.049-.874,5.523,5.523,0,0,1,.724-1.811,5.313,5.313,0,0,0,.515-1.113.374.374,0,0,1,.167-.212,6.179,6.179,0,0,1,1.252-.62.136.136,0,0,0,.1-.071,5.629,5.629,0,0,0-1.4.526,4.9,4.9,0,0,1,1.492-2.207,3.925,3.925,0,0,0-.537.42,3.851,3.851,0,0,0-.985,1.27,5.555,5.555,0,0,0-.161.548.322.322,0,0,1-.126.186,1.32,1.32,0,0,0-.4.434,2.5,2.5,0,0,1-.514.581c-.373.326-.776.615-1.161.926a2.942,2.942,0,0,0-1.059,1.622,2.208,2.208,0,0,1-.371.823c-.179.24-.379.471-.578.7-.056.335-.114.669-.15,1.007a6.129,6.129,0,0,1,.5-.709,5,5,0,0,0,1-1.872,2.894,2.894,0,0,1,.732-1.2,12.052,12.052,0,0,1,.966-.851,4.43,4.43,0,0,0,.686-.788c.024-.033.036-.083.1-.093a.445.445,0,0,1-.076.165c-.2.332-.4.662-.589,1a3.761,3.761,0,0,0-.521,2.334.479.479,0,0,1-.2.467c-.586.475-1.161.963-1.742,1.444q-.45.372-.9.741A16.722,16.722,0,0,0-10.464-90l.053.333c.052.083.112.161.157.251.418.829.9,1.625,1.284,2.471a.582.582,0,0,1,.048.236c0,.146.025.29.043.453a3.311,3.311,0,0,1-.482-.834,6.585,6.585,0,0,0-.853-1.344l.1.6c.038.048.082.1.12.144a3.356,3.356,0,0,1,.517.836" transform="translate(10.662 103.838)" fill="#ffa41b"/>
          </g>
          <g id="g116" transform="translate(158.814 58.451)">
            <path id="path118" d="M-13.476-11.9a.889.889,0,0,1,.777-.541,3.729,3.729,0,0,1,2.171.613A3.853,3.853,0,0,1-8.974-9.286v-3.382c-.06-.045-.119-.09-.181-.133a6.121,6.121,0,0,0-3.571-1.007,2.842,2.842,0,0,0-2.591,1.444C-16.479-10.111-14.546-6-8-1.39a13.506,13.506,0,0,1-.762-2.6c-4.437-3.669-5.391-6.595-4.711-7.914" transform="translate(15.635 13.808)" fill="#ffa41b"/>
          </g>
          <g id="g120" transform="translate(186.963 58.451)">
            <path id="path122" d="M-16.223-12.356a3.71,3.71,0,0,1,2.171-.613.889.889,0,0,1,.777.54c.683,1.325-.283,4.272-4.772,7.964a13.56,13.56,0,0,1-.774,2.6c6.6-4.632,8.553-8.765,7.387-11.027a2.841,2.841,0,0,0-2.591-1.443A6.126,6.126,0,0,0-17.6-13.328c-.079.055-.156.112-.232.17v3.8a3.91,3.91,0,0,1,1.606-2.994" transform="translate(18.821 14.335)" fill="#ffa41b"/>
          </g>
          <g id="g124" transform="translate(147.595 46.327)">
            <path id="path126" d="M-265.732-214.018h0a6.622,6.622,0,0,0-9.491,6.975l.374,2.337q-.261-.215-.54-.41a6.256,6.256,0,0,1-2.619-5.148V-216h.014c4.048-.537,7.457-3.777,9.066-7.706a13.559,13.559,0,0,0,.774-2.6,12.19,12.19,0,0,0,.219-2.27v-18.036l-.013.015s0-.01,0-.015a1.981,1.981,0,0,0-.1-.415,1.918,1.918,0,0,0-.184-.375,1.806,1.806,0,0,0-.269-.329,1.88,1.88,0,0,0-.328-.25,2.186,2.186,0,0,0-.7-.262,3.936,3.936,0,0,0-1.291-.008,7.525,7.525,0,0,0-1.17.273,11.006,11.006,0,0,0-1.1.411,10.53,10.53,0,0,0-1.039.519c.377-.083.753-.158,1.128-.219s.751-.113,1.123-.147a8.126,8.126,0,0,1,1.1-.03,4.649,4.649,0,0,1,.519.055,2.33,2.33,0,0,1,.463.125,1.646,1.646,0,0,1,.192.091,1.045,1.045,0,0,1,.152.108.634.634,0,0,1,.176.253.746.746,0,0,1-.034.608,2.533,2.533,0,0,1-.508.7,6.521,6.521,0,0,1-.771.655,14.721,14.721,0,0,1-1.831,1.121c-.645.34-1.312.65-1.99.939q-.838.356-1.7.668c-.122.044-.244.089-.367.132-1.323.467-2.639.818-4.153,1.216-.705.185-1.417.345-2.13.5l-.188.041c-.73.156-1.461.3-2.19.418a19.581,19.581,0,0,1-2.166.246,7.256,7.256,0,0,1-1.021-.015,2.838,2.838,0,0,1-.441-.077,1.237,1.237,0,0,1-.3-.113c-.029-.017-.047-.03-.06-.039a.109.109,0,0,1-.017-.015s-.006-.01-.011-.018-.008-.016-.01-.025a.464.464,0,0,1-.014-.259,1.271,1.271,0,0,1,.149-.376,3.125,3.125,0,0,1,.279-.4,6.564,6.564,0,0,1,.748-.768c.274-.246.568-.478.867-.707.6-.454,1.236-.882,1.887-1.3a14.26,14.26,0,0,0-2.18.805,11.222,11.222,0,0,0-1.047.549,6.889,6.889,0,0,0-1,.713,3.752,3.752,0,0,0-.458.474,2.443,2.443,0,0,0-.378.636,1.776,1.776,0,0,0-.109.411,1.684,1.684,0,0,0-.01.279h0v11.24a12.166,12.166,0,0,0,.209,2.219,13.507,13.507,0,0,0,.762,2.6c1.6,3.957,5.029,7.225,9.1,7.759v5.731a6.257,6.257,0,0,1-2.618,5.148c-.187.13-.366.268-.541.411l.374-2.337a6.622,6.622,0,0,0-9.491-6.975A28.284,28.284,0,0,0-308.3-188.7v13.11a6.622,6.622,0,0,0,10.028,5.68l11.983-4.513a6.621,6.621,0,0,0,3.134-4.633l1-6.218c-.05.064-.107.125-.155.189a2.2,2.2,0,0,0-.371.823,2.943,2.943,0,0,1-1.059,1.622c-.385.311-.787.6-1.161.926a2.508,2.508,0,0,0-.514.581,1.324,1.324,0,0,1-.4.434.32.32,0,0,0-.127.186,5.42,5.42,0,0,1-.161.548,3.851,3.851,0,0,1-.985,1.27,3.946,3.946,0,0,1-.537.42,4.906,4.906,0,0,0,1.492-2.207,5.63,5.63,0,0,1-1.4.526.137.137,0,0,1,.1-.071,6.145,6.145,0,0,0,1.252-.619.376.376,0,0,0,.167-.212,5.3,5.3,0,0,1,.515-1.113,5.52,5.52,0,0,0,.723-1.811,7.075,7.075,0,0,0,.049-.874c0-.018-.007-.047-.019-.053-.038-.018-.056.019-.079.04-.377.34-.744.689-1.089,1.061a6.274,6.274,0,0,0-.969,1.255,7.308,7.308,0,0,1-1.184,1.583,3.175,3.175,0,0,0-.555.953,2.549,2.549,0,0,0-.092.238,1.362,1.362,0,0,1-.579.715,3.07,3.07,0,0,1-.821.363.1.1,0,0,1-.112-.011,2.148,2.148,0,0,0,1.548-1.734,18.194,18.194,0,0,1-6.415,2.874q.939-.382,1.859-.811t1.806-.934a17.926,17.926,0,0,0,1.718-1.11c-.014-.041-.05-.041-.078-.046a2.408,2.408,0,0,0-1.085.033,5.2,5.2,0,0,0-.806.274,3.271,3.271,0,0,1-1.045.268,2.3,2.3,0,0,0-1.037.389c-.2.126-.386.264-.575.4a.661.661,0,0,1,.182-.212,2.719,2.719,0,0,1,1.1-.676c.165-.045.339-.03.5-.076a7.981,7.981,0,0,0,1.112-.43,3.023,3.023,0,0,1,1.184-.3,2.376,2.376,0,0,1,.71.09.276.276,0,0,0,.279-.06,7.663,7.663,0,0,0,1.749-1.947c.244-.4.514-.789.8-1.172-.043-.013-.067.012-.091.028a2.278,2.278,0,0,1-1.511.3,7.706,7.706,0,0,0-1.578-.037.143.143,0,0,0-.117.052c-.211.323-.526.551-.764.85-.081.1-.168.2-.252.3a.051.051,0,0,1-.067.016,9.35,9.35,0,0,1,.931-1.171,4.116,4.116,0,0,0-.672.169,3.47,3.47,0,0,0-1.586,1.149,1.712,1.712,0,0,1-.89.56,3.328,3.328,0,0,1-.908.117,6.084,6.084,0,0,0,.961-.272,1.553,1.553,0,0,0,.793-.614c-.161.04-.307.082-.455.112a3.079,3.079,0,0,1-1.042.02,3.239,3.239,0,0,0-1.366.165.366.366,0,0,1-.161.033c0-.035.023-.04.04-.046a4.791,4.791,0,0,1,1.269-.327,1.163,1.163,0,0,1,.255,0,2.28,2.28,0,0,0,1.11-.151,2.484,2.484,0,0,0,.9-.545,2.82,2.82,0,0,1,1.357-.673c.169-.042.342-.067.514-.1a.113.113,0,0,0,.1-.061,2.1,2.1,0,0,1,1.156-.99,9.418,9.418,0,0,0,1.639-.906,1.92,1.92,0,0,0,.452-.422c.028-.038.065-.084-.012-.1a6.707,6.707,0,0,0-1.237-.244,3.115,3.115,0,0,0-1.239.367c-.04.019-.079.039-.125.062-.011-.047.024-.056.043-.068a3.083,3.083,0,0,1,1.2-.506,1.247,1.247,0,0,1,.483.025,4.558,4.558,0,0,0,1.157.135.348.348,0,0,0,.164-.036,1.292,1.292,0,0,1,.861-.13,5.822,5.822,0,0,0,1.164.072.241.241,0,0,0,.157-.055,17.478,17.478,0,0,0,1.323-1.148,8,8,0,0,0,.808-.96,5.916,5.916,0,0,1-.873,0,11.92,11.92,0,0,1-3.867-.666.174.174,0,0,0-.187.028c-.486.353-.979.7-1.463,1.052a10.393,10.393,0,0,0-1.544,1.447,8.019,8.019,0,0,1-.827.858,1.952,1.952,0,0,1-.784.4c-.461.114-.919.237-1.378.359a4.413,4.413,0,0,0-1.442.793c-.482.352-.866.816-1.352,1.163a6.661,6.661,0,0,1-.91.564,3.328,3.328,0,0,0-1.094.912,8.063,8.063,0,0,0-.866,1.278.5.5,0,0,1-.05.065c-.02-.034,0-.055.008-.076a6.266,6.266,0,0,1,1.108-1.779,2.163,2.163,0,0,1,.682-.522,3.613,3.613,0,0,0,.9-.616c.24-.213.467-.439.7-.66.02-.019.052-.035.041-.068s-.047-.026-.074-.026a10.832,10.832,0,0,1-1.281-.135,1.4,1.4,0,0,0-.607.1,3.742,3.742,0,0,0-.89.446.3.3,0,0,1-.125.069c0-.009-.008-.021-.006-.022a3.215,3.215,0,0,1,1.255-.719,2.651,2.651,0,0,1,.846.018,4.991,4.991,0,0,0,1.246-.1.244.244,0,0,0,.122-.076A4.338,4.338,0,0,1-293-185.648a6.156,6.156,0,0,0-2.342-.447c-.39.017-.771.108-1.157.151a.892.892,0,0,0-.541.266,2.544,2.544,0,0,1-1.589.654,5.636,5.636,0,0,0-1.092.17,1.106,1.106,0,0,0-.207.068,1.787,1.787,0,0,1-1.08.144,4.4,4.4,0,0,1-.742-.162c.063-.042.107-.012.149-.005a3.529,3.529,0,0,0,1.306.013,1.971,1.971,0,0,0,.375-.142,5.186,5.186,0,0,1,1.275-.3,2.633,2.633,0,0,0,1.332-.555.141.141,0,0,0,.041-.051c-.157.021-.312.011-.468.018-.742.033-1.483.091-2.226.066a4.119,4.119,0,0,1-1.464-.381c-.438-.185-.861-.4-1.291-.6-.024-.011-.055-.02-.063-.055.048-.016.087.015.125.03a15.941,15.941,0,0,0,2.406.7,2.227,2.227,0,0,0,.988-.047,5.852,5.852,0,0,1,1.182-.141,10.675,10.675,0,0,0,1.292-.146c.388-.061.78-.1,1.17-.147.031,0,.062-.013.115-.024-.418-.218-.789-.477-1.2-.666a2.878,2.878,0,0,0-1.252-.2,6.642,6.642,0,0,0-1.328.144.111.111,0,0,1-.1-.007,1.762,1.762,0,0,1,.415-.136,5.139,5.139,0,0,1,1.466-.2,2.306,2.306,0,0,1,1.114.3,7.038,7.038,0,0,0,1.777.722,5.791,5.791,0,0,0,.577.079,7.538,7.538,0,0,1,.9.291,2.835,2.835,0,0,0,.946.135,1.33,1.33,0,0,0,.959-.436c.341-.38.691-.754,1.037-1.13.016-.017.03-.035.067-.078a3.7,3.7,0,0,1-.64.2,3.421,3.421,0,0,1-1.162-.008,9.592,9.592,0,0,0-1.064-.112,2.294,2.294,0,0,0-.569.043,1.862,1.862,0,0,1-.992-.114,4.411,4.411,0,0,1-.862-.4c-.022-.013-.055-.018-.059-.064.184.072.361.149.543.213a3.06,3.06,0,0,0,1.163.227c.206-.01.41-.053.615-.075a3.872,3.872,0,0,1,.947.013,4.581,4.581,0,0,0,.839.036c-.346-.179-.632-.408-.951-.582a1.479,1.479,0,0,0-.609-.153,4.694,4.694,0,0,0-1.016.041c.011-.023.014-.038.021-.04a3.084,3.084,0,0,1,1.359-.093,1.313,1.313,0,0,1,.447.187,5.1,5.1,0,0,0,1.144.536.529.529,0,0,0,.355,0c.255-.085.49-.218.743-.306a1.306,1.306,0,0,0,.538-.4,8.784,8.784,0,0,1,1.293-1.18c.088-.065.066-.094-.011-.142a9.793,9.793,0,0,0-3.7-1.419,2.594,2.594,0,0,0-1.358.219,7.664,7.664,0,0,0-1.576.788,2.248,2.248,0,0,1-1.16.319,4.718,4.718,0,0,1-.923-.05.2.2,0,0,0-.158.041,5.2,5.2,0,0,1-1.083.6,2.858,2.858,0,0,0-1,.777,5.042,5.042,0,0,0-.652.861c-.007.012-.023.02-.036.03-.031-.034-.006-.058.006-.08a5.312,5.312,0,0,1,.946-1.307,1.96,1.96,0,0,1,.656-.433,2.914,2.914,0,0,0,.872-.557c-.128-.063-.276-.054-.428-.131a.853.853,0,0,1,.331.027.412.412,0,0,0,.367-.1c.323-.277.639-.563.986-.828l-.189.038a10.537,10.537,0,0,0-1.5.451,8.219,8.219,0,0,1-1.716.39c-.422.057-.847.084-1.272.114a1.5,1.5,0,0,0-.5.172,4.947,4.947,0,0,0-.813.463,1.683,1.683,0,0,1-1.109.237c-.17-.01-.338-.039-.507-.062a.581.581,0,0,1-.148-.041.4.4,0,0,1,.2-.01,2.484,2.484,0,0,0,1.433-.223,7.388,7.388,0,0,0,.728-.515c-.56-.005-1.117-.024-1.673-.062s-1.11-.1-1.663-.181a.191.191,0,0,1,.147-.025c.84.041,1.68.017,2.519-.023a16.541,16.541,0,0,0,2.308-.251,5.536,5.536,0,0,0,1.276-.387c0-.041-.034-.034-.053-.039a9.79,9.79,0,0,1-1.309-.458,2.929,2.929,0,0,0-1.732-.134,6.8,6.8,0,0,0-1.3.373c-.018.007-.038.011-.07.021.012-.053.052-.061.08-.075a5.439,5.439,0,0,1,1.84-.6,2.272,2.272,0,0,1,1.052.135,7.369,7.369,0,0,0,2.235.443.565.565,0,0,0,.226-.036,16.209,16.209,0,0,1,3.016-.813,11.657,11.657,0,0,1,1.768-.153h.143a.231.231,0,0,0-.1-.126,2.584,2.584,0,0,0-1.863-.674,3.933,3.933,0,0,0-.922.152,4.319,4.319,0,0,1-2.816-.121,1.73,1.73,0,0,1-.325-.191,2.9,2.9,0,0,0-1.793-.513c-.219.009-.429.086-.649.1a4.172,4.172,0,0,1-1.039-.088,1.393,1.393,0,0,1-.313-.076c.042-.038.084-.022.124-.014.2.037.4.043.6.064a3.934,3.934,0,0,0,1.152-.157,2.586,2.586,0,0,1,1.631.16c.117.055.228.125.341.189a3.545,3.545,0,0,0,1.521.434,4.743,4.743,0,0,0,1.691-.168c-.1-.041-.184-.076-.269-.115a8.344,8.344,0,0,1-.958-.6,3.28,3.28,0,0,0-.9-.442,1.431,1.431,0,0,1-.552-.347,4.554,4.554,0,0,1-.69-.819.64.64,0,0,1,.212.186,2.987,2.987,0,0,0,1,.821c.213.1.446.148.662.245a4.276,4.276,0,0,1,.585.324,3.308,3.308,0,0,0,1.306.569,2.146,2.146,0,0,0,.52.018,2.286,2.286,0,0,1,1.267.276,9.618,9.618,0,0,1,1.311.818,1.46,1.46,0,0,0,.7.214,9.316,9.316,0,0,1,2.6.785,12.7,12.7,0,0,0,1.567.6.4.4,0,0,0,.057.008c-.013-.05-.053-.066-.081-.089-.342-.3-.666-.618-.991-.936a2.65,2.65,0,0,0-1.2-.618,6.32,6.32,0,0,0-1.488-.225c-.038,0-.082.009-.114-.026,0-.031.028-.028.045-.028a6.635,6.635,0,0,1,1.719.115,2.686,2.686,0,0,1,1.291.713A6.755,6.755,0,0,0-286.324-191c.07.041.143.076.212.12a3.607,3.607,0,0,0,1.556.476c.661.078,1.324.123,1.989.151.11,0,.219,0,.329,0,.053,0,.066-.019.037-.066-.129-.211-.253-.426-.387-.634-.053-.083-.156-.077-.243-.091-.547-.093-1.1-.144-1.644-.267a4.072,4.072,0,0,1-1.319-.58c-.531-.346-1.045-.716-1.6-1.025a2.81,2.81,0,0,0-.652-.265,2.334,2.334,0,0,1-1.011-.586.166.166,0,0,0-.247-.026,3.1,3.1,0,0,1-1.343.433,6.681,6.681,0,0,1-1.336.024c-.048,0-.1-.008-.145-.015a.1.1,0,0,1-.067-.037c.194-.011.389-.02.583-.035a5.741,5.741,0,0,0,1.823-.394c.115-.049.223-.116.336-.171s.069-.1.012-.157a6.581,6.581,0,0,1-.648-.82.165.165,0,0,1-.047-.122c.066.075.12.13.168.191a8.352,8.352,0,0,0,.645.679c.064.064.109.06.172,0,.294-.274.589-.547.887-.815.119-.107.249-.2.388-.317a8.4,8.4,0,0,1-2.3-.734.439.439,0,0,0-.177-.037,7.509,7.509,0,0,0-2.51.409,2.442,2.442,0,0,1-1.438-.008,6.106,6.106,0,0,1-1.392-.574c-.019-.011-.048-.016-.049-.061.166.062.326.125.488.183a6.03,6.03,0,0,0,1.419.331,2.706,2.706,0,0,0,1.239-.2,9.46,9.46,0,0,1,1.45-.44,4.788,4.788,0,0,0-.742-.33c-.444-.167-.9-.29-1.343-.474-.289-.12-.566-.265-.842-.411a2.371,2.371,0,0,0-.982-.252c-.474-.029-.949-.056-1.423-.042a16.271,16.271,0,0,0-1.64.087.2.2,0,0,1-.144-.024c.2-.038.374-.073.551-.105.586-.107,1.174-.209,1.768-.263a4.932,4.932,0,0,1,1.993.227,3.76,3.76,0,0,0,.429.115c-.179-.158-.364-.311-.538-.475a2.953,2.953,0,0,0-1.658-.69,6.428,6.428,0,0,0-1.153-.074c-.026,0-.056.01-.082-.025a.847.847,0,0,1,.345-.051,5.194,5.194,0,0,1,1.443.051,2.681,2.681,0,0,1,1.288.644,6.632,6.632,0,0,0,1.793,1.089c.427.176.873.306,1.3.481.564.23,1.107.509,1.681.714a4.528,4.528,0,0,0,.634.17c.03.006.063.018.095-.009,0-.01-.008-.023-.015-.029a16.727,16.727,0,0,0-1.764-1.1,1.566,1.566,0,0,0-.35-.139,2.657,2.657,0,0,1-1.249-.725,6.448,6.448,0,0,1-.9-1.086c-.016-.024-.049-.045-.029-.1.132.149.256.3.387.436a4.721,4.721,0,0,0,1.444,1.139c.272.124.565.2.846.305a5.524,5.524,0,0,1,1.173.614,6.955,6.955,0,0,0,1.45.739.659.659,0,0,0,.238.04c.41,0,.82-.021,1.229.018a3.633,3.633,0,0,1,1.586.465c.016.009.03.028.058.016a2.286,2.286,0,0,0-1.053-1.008,6.485,6.485,0,0,0-.69-.274,4.083,4.083,0,0,1-1.4-.966,8.529,8.529,0,0,1-.6-.636,1.1,1.1,0,0,0-.492-.277,6.67,6.67,0,0,0-1.814-.443,1.7,1.7,0,0,1-.7-.235,4.384,4.384,0,0,1-1.226-1.152.037.037,0,0,1,0-.051c.05.015.078.061.114.1a5.469,5.469,0,0,0,1.206.936,2.127,2.127,0,0,0,.861.24,9.425,9.425,0,0,1,1.314.168.187.187,0,0,0,.046-.005,1.108,1.108,0,0,0-.2-.258c-.229-.242-.47-.471-.717-.695a6.223,6.223,0,0,1-.845-.94,2.237,2.237,0,0,0-.8-.659,17.558,17.558,0,0,0-2.282-1c-.053-.018-.105-.038-.158-.058.011-.036.034-.029.051-.025a18.923,18.923,0,0,1,2.056.6,4.382,4.382,0,0,1,1.366.875c.46.417.921.833,1.377,1.255A18.41,18.41,0,0,1-287.5-198.6a4.167,4.167,0,0,0,.793.734.113.113,0,0,0,.091.036c-.05-.087-.093-.172-.145-.25-.264-.4-.5-.82-.79-1.2a1.646,1.646,0,0,0-.292-.309,2.5,2.5,0,0,1-.8-1.225,6.255,6.255,0,0,1-.241-.955c-.005-.029-.025-.062.011-.1a.961.961,0,0,1,.075.228,5.756,5.756,0,0,0,.605,1.4,3.915,3.915,0,0,0,.651.7,5.22,5.22,0,0,1,.822,1.036,5.657,5.657,0,0,0,.792,1,.9.9,0,0,0,.309.209,5.665,5.665,0,0,1,1.444.8,2.4,2.4,0,0,1,.753,1.027.586.586,0,0,0,.138.211,2.587,2.587,0,0,1,.6.9,3.362,3.362,0,0,0,.517.836c.219.282.449.554.7.836.016-.17.023-.326.047-.479,0-.012,0-.023.007-.035a16.617,16.617,0,0,0-.914-4.121c-.645-1.79-1.314-3.492-1.63-4.487.292.427,1.685,3.864,4.166,4.673,2.425.791,4.437-.33,5.862-2.122l-.034.052a16.292,16.292,0,0,0-2.386,6.183c.2-.233.4-.464.578-.7a2.2,2.2,0,0,0,.37-.823,2.943,2.943,0,0,1,1.059-1.622c.385-.311.787-.6,1.161-.926a2.515,2.515,0,0,0,.514-.581,1.32,1.32,0,0,1,.4-.434.324.324,0,0,0,.127-.186,5.417,5.417,0,0,1,.161-.548,3.852,3.852,0,0,1,.985-1.27,3.925,3.925,0,0,1,.537-.42,4.9,4.9,0,0,0-1.492,2.207,5.62,5.62,0,0,1,1.4-.526.136.136,0,0,1-.1.07,6.163,6.163,0,0,0-1.252.62.373.373,0,0,0-.167.212,5.308,5.308,0,0,1-.515,1.113,5.515,5.515,0,0,0-.723,1.811,7.115,7.115,0,0,0-.049.874c0,.018.007.047.019.053.038.018.056-.019.079-.04.377-.34.744-.689,1.089-1.062a6.273,6.273,0,0,0,.969-1.254,7.306,7.306,0,0,1,1.184-1.583,3.172,3.172,0,0,0,.555-.954,2.449,2.449,0,0,0,.092-.238,1.363,1.363,0,0,1,.579-.715,3.076,3.076,0,0,1,.821-.362.094.094,0,0,1,.112.011,2.148,2.148,0,0,0-1.548,1.734,18.2,18.2,0,0,1,6.415-2.874q-.94.382-1.859.811t-1.806.933a17.887,17.887,0,0,0-1.718,1.111c.014.041.05.041.078.046a2.4,2.4,0,0,0,1.085-.033,5.2,5.2,0,0,0,.806-.274,3.252,3.252,0,0,1,1.045-.267,2.3,2.3,0,0,0,1.037-.389c.2-.126.386-.264.576-.4a.66.66,0,0,1-.182.212,2.719,2.719,0,0,1-1.1.676c-.165.045-.338.03-.5.076a7.958,7.958,0,0,0-1.112.431,3.025,3.025,0,0,1-1.184.3,2.375,2.375,0,0,1-.709-.09.277.277,0,0,0-.279.06,7.655,7.655,0,0,0-1.748,1.948c-.244.4-.513.788-.8,1.172.043.013.067-.013.091-.028a2.277,2.277,0,0,1,1.511-.3,7.72,7.72,0,0,0,1.578.037.143.143,0,0,0,.117-.053c.211-.322.526-.552.764-.85.081-.1.168-.2.252-.3a.051.051,0,0,1,.067-.016,9.357,9.357,0,0,1-.931,1.171,4.122,4.122,0,0,0,.672-.168,3.472,3.472,0,0,0,1.586-1.149,1.711,1.711,0,0,1,.889-.56,3.3,3.3,0,0,1,.908-.118,6.084,6.084,0,0,0-.961.272,1.553,1.553,0,0,0-.793.614c.161-.04.307-.082.455-.112a3.073,3.073,0,0,1,1.042-.02,3.252,3.252,0,0,0,1.366-.166.368.368,0,0,1,.161-.034c0,.035-.023.04-.04.046a4.808,4.808,0,0,1-1.269.326,1.15,1.15,0,0,1-.255,0,2.281,2.281,0,0,0-1.11.151,2.477,2.477,0,0,0-.9.545,2.827,2.827,0,0,1-1.357.672c-.169.042-.342.067-.514.1a.112.112,0,0,0-.1.061,2.1,2.1,0,0,1-1.156.991,9.433,9.433,0,0,0-1.639.905,1.933,1.933,0,0,0-.452.423c-.028.039-.065.084.012.1a6.7,6.7,0,0,0,1.237.245,3.118,3.118,0,0,0,1.239-.367l.125-.062c.011.047-.024.056-.043.068a3.085,3.085,0,0,1-1.2.505,1.254,1.254,0,0,1-.483-.025,4.573,4.573,0,0,0-1.157-.135.342.342,0,0,0-.164.036,1.291,1.291,0,0,1-.86.13,5.813,5.813,0,0,0-1.164-.072.242.242,0,0,0-.157.055c-.447.376-.914.729-1.323,1.148a8.028,8.028,0,0,0-.808.96,5.938,5.938,0,0,1,.873,0,11.932,11.932,0,0,1,3.867.667.174.174,0,0,0,.186-.029c.486-.353.979-.7,1.463-1.052a10.45,10.45,0,0,0,1.544-1.447,7.954,7.954,0,0,1,.827-.859,1.957,1.957,0,0,1,.784-.4c.461-.114.919-.236,1.378-.359a4.414,4.414,0,0,0,1.442-.793c.482-.352.866-.816,1.352-1.163a6.585,6.585,0,0,1,.91-.564,3.325,3.325,0,0,0,1.094-.912,8.021,8.021,0,0,0,.865-1.278.57.57,0,0,1,.05-.065c.02.035,0,.055-.007.076a6.266,6.266,0,0,1-1.108,1.779,2.156,2.156,0,0,1-.682.522,3.6,3.6,0,0,0-.9.617c-.24.213-.467.439-.7.66-.02.019-.052.035-.041.068s.047.026.075.026a10.926,10.926,0,0,1,1.281.135,1.4,1.4,0,0,0,.607-.1,3.752,3.752,0,0,0,.89-.446.3.3,0,0,1,.125-.069c0,.009.008.021.006.022a3.211,3.211,0,0,1-1.255.719,2.647,2.647,0,0,1-.846-.018,4.988,4.988,0,0,0-1.246.1.244.244,0,0,0-.122.076,4.337,4.337,0,0,1-1.676,1.035,6.164,6.164,0,0,0,2.342.447c.389-.017.771-.109,1.157-.151a.89.89,0,0,0,.541-.266,2.546,2.546,0,0,1,1.589-.654,5.654,5.654,0,0,0,1.092-.169,1.2,1.2,0,0,0,.207-.068,1.788,1.788,0,0,1,1.08-.144,4.443,4.443,0,0,1,.742.162c-.063.042-.108.013-.149.006a3.542,3.542,0,0,0-1.306-.014,1.983,1.983,0,0,0-.375.143,5.18,5.18,0,0,1-1.275.3,2.637,2.637,0,0,0-1.332.555.143.143,0,0,0-.041.051c.157-.022.312-.011.468-.018.742-.033,1.483-.091,2.226-.066a4.114,4.114,0,0,1,1.464.382c.438.185.861.4,1.291.6.025.012.054.02.063.056-.048.016-.086-.015-.125-.029a15.866,15.866,0,0,0-2.406-.7,2.23,2.23,0,0,0-.988.047,5.864,5.864,0,0,1-1.182.141,10.559,10.559,0,0,0-1.292.146c-.388.061-.78.1-1.171.147-.031,0-.062.013-.115.024.418.218.789.477,1.2.666a2.879,2.879,0,0,0,1.252.2,6.6,6.6,0,0,0,1.328-.144.113.113,0,0,1,.1.007,1.757,1.757,0,0,1-.415.136,5.124,5.124,0,0,1-1.465.2,2.3,2.3,0,0,1-1.114-.3,7.059,7.059,0,0,0-1.777-.722c-.187-.048-.385-.049-.577-.079a7.5,7.5,0,0,1-.9-.291,2.829,2.829,0,0,0-.946-.135,1.329,1.329,0,0,0-.959.436c-.341.381-.691.754-1.037,1.13-.016.017-.03.036-.066.078a3.7,3.7,0,0,1,.639-.2,3.417,3.417,0,0,1,1.162.008,9.636,9.636,0,0,0,1.064.112,2.3,2.3,0,0,0,.569-.043,1.862,1.862,0,0,1,.992.114,4.408,4.408,0,0,1,.861.4c.022.013.055.017.059.063-.184-.073-.361-.148-.543-.213a3.066,3.066,0,0,0-1.163-.227c-.206.01-.41.053-.615.076a3.909,3.909,0,0,1-.947-.013,4.615,4.615,0,0,0-.839-.037c.346.18.632.408.951.583a1.486,1.486,0,0,0,.609.153,4.678,4.678,0,0,0,1.015-.04c-.011.022-.014.038-.02.04a3.087,3.087,0,0,1-1.359.093,1.311,1.311,0,0,1-.447-.186,5.1,5.1,0,0,0-1.144-.536.528.528,0,0,0-.356,0c-.255.085-.49.218-.742.306a1.3,1.3,0,0,0-.538.4,8.769,8.769,0,0,1-1.294,1.18c-.088.065-.066.094.011.142a9.788,9.788,0,0,0,3.7,1.418,2.588,2.588,0,0,0,1.358-.219,7.661,7.661,0,0,0,1.576-.787,2.253,2.253,0,0,1,1.159-.32,4.718,4.718,0,0,1,.922.051.2.2,0,0,0,.158-.041,5.184,5.184,0,0,1,1.082-.6,2.862,2.862,0,0,0,1-.777,5.049,5.049,0,0,0,.652-.861c.007-.012.023-.019.036-.03.031.034.006.059-.006.081a5.315,5.315,0,0,1-.946,1.306,1.951,1.951,0,0,1-.656.433,2.913,2.913,0,0,0-.873.557c.128.063.276.054.428.131a.85.85,0,0,1-.331-.027.41.41,0,0,0-.367.1c-.323.277-.639.563-.986.827l.189-.037a10.532,10.532,0,0,0,1.5-.451,8.227,8.227,0,0,1,1.716-.39c.422-.057.847-.084,1.272-.114a1.508,1.508,0,0,0,.5-.172,4.98,4.98,0,0,0,.813-.463,1.682,1.682,0,0,1,1.109-.237c.17.01.338.039.507.062a.542.542,0,0,1,.148.041.4.4,0,0,1-.2.01,2.482,2.482,0,0,0-1.433.223,7.3,7.3,0,0,0-.728.515c.56.005,1.117.024,1.673.062s1.11.1,1.662.181a.192.192,0,0,1-.147.025c-.84-.041-1.68-.017-2.519.022a16.512,16.512,0,0,0-2.308.251,5.51,5.51,0,0,0-1.276.388c0,.041.033.034.053.039a9.728,9.728,0,0,1,1.309.459,2.929,2.929,0,0,0,1.732.134,6.783,6.783,0,0,0,1.3-.373c.018-.007.038-.011.069-.021-.012.053-.052.061-.079.075a5.445,5.445,0,0,1-1.84.6,2.271,2.271,0,0,1-1.052-.135,7.368,7.368,0,0,0-2.235-.443.557.557,0,0,0-.226.036,16.172,16.172,0,0,1-3.016.813,11.683,11.683,0,0,1-1.768.153h-.143a.229.229,0,0,0,.1.126,2.583,2.583,0,0,0,1.863.674,3.928,3.928,0,0,0,.922-.151,4.318,4.318,0,0,1,2.816.121,1.688,1.688,0,0,1,.325.19,2.9,2.9,0,0,0,1.793.513c.22-.009.429-.086.649-.1a4.171,4.171,0,0,1,1.039.088,1.384,1.384,0,0,1,.313.076c-.042.037-.084.022-.124.014-.2-.037-.4-.044-.6-.064a3.94,3.94,0,0,0-1.152.156,2.583,2.583,0,0,1-1.631-.16c-.117-.055-.228-.125-.341-.189a3.55,3.55,0,0,0-1.521-.434,4.753,4.753,0,0,0-1.691.168c.1.042.184.076.269.115a8.357,8.357,0,0,1,.958.6,3.288,3.288,0,0,0,.9.442,1.424,1.424,0,0,1,.552.347,4.551,4.551,0,0,1,.69.819.638.638,0,0,1-.212-.186,2.981,2.981,0,0,0-1-.821c-.213-.1-.446-.148-.662-.245a4.322,4.322,0,0,1-.584-.324,3.306,3.306,0,0,0-1.306-.569,2.154,2.154,0,0,0-.52-.018,2.289,2.289,0,0,1-1.268-.276,9.651,9.651,0,0,1-1.311-.818,1.453,1.453,0,0,0-.7-.214,9.322,9.322,0,0,1-2.6-.785,12.72,12.72,0,0,0-1.567-.6.434.434,0,0,0-.057-.008c.013.05.053.066.08.089.342.3.666.618.992.936a2.642,2.642,0,0,0,1.2.618,6.32,6.32,0,0,0,1.488.226c.038,0,.082-.009.114.025,0,.031-.028.028-.045.028a6.614,6.614,0,0,1-1.719-.115,2.684,2.684,0,0,1-1.291-.713,6.761,6.761,0,0,0-1.384-1.008c-.071-.04-.144-.076-.212-.119a3.607,3.607,0,0,0-1.556-.476c-.661-.078-1.324-.123-1.989-.151-.109,0-.219,0-.329,0-.053,0-.066.02-.037.067.129.212.253.426.387.634.053.083.156.077.243.091.547.094,1.1.144,1.644.267a4.063,4.063,0,0,1,1.319.58c.531.346,1.045.716,1.6,1.025a2.816,2.816,0,0,0,.652.265,2.332,2.332,0,0,1,1.011.586.167.167,0,0,0,.247.026,3.106,3.106,0,0,1,1.343-.434,6.723,6.723,0,0,1,1.336-.024c.049,0,.1.008.145.015a.1.1,0,0,1,.067.037c-.194.011-.389.02-.583.035a5.752,5.752,0,0,0-1.823.394c-.115.049-.223.117-.336.171s-.069.1-.013.157a6.608,6.608,0,0,1,.648.82.168.168,0,0,1,.047.122c-.066-.075-.12-.131-.169-.191a8.391,8.391,0,0,0-.645-.679c-.064-.064-.109-.06-.172,0-.294.274-.589.546-.887.815-.119.107-.249.2-.388.317a8.386,8.386,0,0,1,2.3.734.443.443,0,0,0,.177.037,7.506,7.506,0,0,0,2.51-.409,2.441,2.441,0,0,1,1.438.008,6.122,6.122,0,0,1,1.392.574c.019.01.048.016.049.061-.166-.062-.326-.125-.488-.183a6.038,6.038,0,0,0-1.419-.331,2.7,2.7,0,0,0-1.239.2,9.452,9.452,0,0,1-1.45.44,4.823,4.823,0,0,0,.742.33c.444.167.9.29,1.343.473.289.12.565.265.842.412a2.38,2.38,0,0,0,.982.252c.474.029.949.055,1.423.042a16.328,16.328,0,0,0,1.64-.087.2.2,0,0,1,.144.023c-.2.038-.374.073-.551.106-.586.108-1.174.209-1.768.263a4.927,4.927,0,0,1-1.993-.227,3.825,3.825,0,0,0-.429-.116c.179.158.364.311.538.475a2.949,2.949,0,0,0,1.658.69,6.476,6.476,0,0,0,1.152.075c.026,0,.056-.01.082.025a.86.86,0,0,1-.345.051,5.194,5.194,0,0,1-1.443-.051,2.681,2.681,0,0,1-1.288-.644A6.622,6.622,0,0,0-266-181.324c-.427-.176-.872-.306-1.3-.481-.563-.23-1.107-.509-1.681-.714a4.441,4.441,0,0,0-.634-.17c-.03-.006-.063-.019-.095.009.005.01.007.024.016.029a16.79,16.79,0,0,0,1.764,1.1,1.558,1.558,0,0,0,.35.138,2.661,2.661,0,0,1,1.249.725,6.507,6.507,0,0,1,.9,1.086c.016.024.049.046.029.1-.132-.148-.256-.3-.387-.435a4.727,4.727,0,0,0-1.444-1.139c-.272-.124-.565-.2-.847-.306a5.5,5.5,0,0,1-1.173-.614,6.946,6.946,0,0,0-1.45-.739.663.663,0,0,0-.238-.04c-.41,0-.82.021-1.229-.018a3.647,3.647,0,0,1-1.586-.465c-.016-.01-.03-.028-.058-.016a2.284,2.284,0,0,0,1.053,1.008,6.469,6.469,0,0,0,.689.274,4.085,4.085,0,0,1,1.4.966,8.455,8.455,0,0,1,.6.636,1.107,1.107,0,0,0,.492.278,6.678,6.678,0,0,0,1.814.443,1.691,1.691,0,0,1,.7.235,4.374,4.374,0,0,1,1.226,1.152.037.037,0,0,1,0,.051c-.05-.016-.078-.061-.114-.1a5.447,5.447,0,0,0-1.206-.936,2.124,2.124,0,0,0-.861-.24,9.556,9.556,0,0,1-1.314-.169.173.173,0,0,0-.047.005,1.107,1.107,0,0,0,.2.258c.229.242.47.471.717.695a6.2,6.2,0,0,1,.845.94,2.24,2.24,0,0,0,.8.659,17.546,17.546,0,0,0,2.282,1l.158.058c-.011.036-.034.03-.051.025a18.8,18.8,0,0,1-2.056-.595,4.384,4.384,0,0,1-1.366-.875c-.46-.417-.921-.833-1.377-1.255a18.4,18.4,0,0,1-1.362-1.443,4.167,4.167,0,0,0-.793-.734.114.114,0,0,0-.091-.036c.05.087.093.171.145.25.264.4.5.82.79,1.2a1.642,1.642,0,0,0,.292.31,2.5,2.5,0,0,1,.8,1.226,6.234,6.234,0,0,1,.241.955c.005.029.025.062-.011.1a.957.957,0,0,1-.075-.229,5.766,5.766,0,0,0-.605-1.4,3.918,3.918,0,0,0-.65-.7,5.237,5.237,0,0,1-.823-1.036,5.65,5.65,0,0,0-.792-1,.9.9,0,0,0-.309-.209,5.661,5.661,0,0,1-1.444-.8,2.392,2.392,0,0,1-.753-1.028.582.582,0,0,0-.138-.21,2.586,2.586,0,0,1-.6-.9,3.345,3.345,0,0,0-.517-.836c-.038-.049-.082-.1-.12-.144l1.021,6.376a6.621,6.621,0,0,0,3.134,4.633l11.8,4.513a6.622,6.622,0,0,0,10.028-5.68V-188.7a28.284,28.284,0,0,0-15.677-25.319" transform="translate(308.295 248.298)" fill="#000839"/>
          </g>
          <g id="g128" transform="translate(175.727 93.549)">
            <path id="path130" d="M-19.311-9.655a1.547,1.547,0,0,1-1.546,1.546A1.547,1.547,0,0,1-22.4-9.655,1.547,1.547,0,0,1-20.857-11.2a1.547,1.547,0,0,1,1.546,1.546" transform="translate(22.404 11.201)" fill="#fff"/>
          </g>
          <g id="g132" transform="translate(176.888 92.255)">
            <path id="path134" d="M-8.957-4.977a3.689,3.689,0,0,1,.875.647L-7.6-4.3-8.93-5.574l-1.462-.2.383.431a3.694,3.694,0,0,1,1.041.36l.012.006" transform="translate(10.392 5.775)" fill="#ffa41b"/>
          </g>
          <g id="g136" transform="translate(177.135 92.731)">
            <path id="path138" d="M-12.595-6.142a3.651,3.651,0,0,0-.849-.624,3.619,3.619,0,0,0-1.018-.358l-.01,0-.14.266c.081.01.16.023.239.039a2.948,2.948,0,0,1,.8.281l0,0a2.956,2.956,0,0,1,.679.495c.058.056.113.114.167.175l.14-.266-.008-.007" transform="translate(14.612 7.125)" fill="#ffa41b"/>
          </g>
          <g id="g140" transform="translate(173.97 42.791)">
            <path id="path142" d="M-15.913-25.1l-1.575.828.3-1.754-1.274-1.242,1.761-.256.787-1.6.787,1.6,1.761.256-1.274,1.242.3,1.754Z" transform="translate(18.461 29.116)" fill="#ffa41b"/>
          </g>
          <g id="g144" transform="translate(170.977 48.443)">
            <path id="path146" d="M-9.763-15.4l-.966.508.185-1.076-.782-.762,1.081-.157.483-.979.483.979,1.081.157-.782.762.185,1.076Z" transform="translate(11.327 17.865)" fill="#ffa41b"/>
          </g>
          <g id="g148" transform="translate(178.932 48.443)">
            <path id="path150" d="M-9.763-15.4l-.966.508.184-1.076-.782-.762,1.081-.157.483-.979.483.979,1.081.157-.782.762.184,1.076Z" transform="translate(11.327 17.865)" fill="#ffa41b"/>
          </g>
        </g>
      </g>
    </g>
  </g>
</svg>
