<svg xmlns="http://www.w3.org/2000/svg" width="51.229" height="97.657" viewBox="0 0 51.229 97.657">
  <g id="Medal" transform="translate(5 -14)">
    <g id="Group_1629" data-name="Group 1629" transform="translate(-5 14)">
      <g id="Group_1518" data-name="Group 1518" transform="translate(1.789 45.314)">
        <path id="Path_2787" data-name="Path 2787" d="M338.6,257.55c-.026.5-12.926,43.9-12.926,43.9l11.111-4.968,6.085,13.414,7.822-51.672Z" transform="translate(-325.67 -257.55)" fill="#ffa41b"/>
      </g>
      <g id="Group_1519" data-name="Group 1519" transform="translate(24.173 43.336)">
        <path id="Path_2788" data-name="Path 2788" d="M368.34,257.588l2.633,49.752,9.679-13.644,12.506,8.939L380.652,253.78Z" transform="translate(-368.34 -253.78)" fill="#ffa41b"/>
      </g>
      <g id="Group_1521" data-name="Group 1521" transform="translate(13.875 43.918)" opacity="0.5">
        <g id="Group_1520" data-name="Group 1520">
          <path id="Path_2789" data-name="Path 2789" d="M348.71,259.575a4.759,4.759,0,0,0,4.26,3.336c1.138.047,2.392-.3,3.347.315s1.369,2.062,2.492,2.219c1.327.184,2.077-1.579,3.352-1.993,1.7-.556,3.494,1.5,5.167.866,1.086-.409,1.6-1.8,2.717-2.1a3.866,3.866,0,0,1,1.511.047,2.918,2.918,0,0,0,1.71-.32l-.614-2.4-1.044-4.653H349.124Z" transform="translate(-348.71 -254.89)"/>
        </g>
      </g>
      <g id="Group_1599" data-name="Group 1599">
        <g id="Group_1522" data-name="Group 1522" transform="translate(27.016 0.005)">
          <path id="Path_2790" data-name="Path 2790" d="M373.76,181.042a14.993,14.993,0,0,1,3.242.65,1.5,1.5,0,0,1,.1-.519q1.424-3.809,2.843-7.622l.068-.058a2.484,2.484,0,0,1-.939-.944,2.948,2.948,0,0,0-2.555-1.364c-.514,2.161-1.149,5.12-1.611,6.961A8.216,8.216,0,0,1,373.76,181.042Z" transform="translate(-373.76 -171.18)" fill="#ffa41b"/>
        </g>
        <g id="Group_1523" data-name="Group 1523" transform="translate(1.542 29.676)">
          <path id="Path_2791" data-name="Path 2791" d="M336.981,231.108a14.784,14.784,0,0,1-1.689-3.368,1.217,1.217,0,0,1-.525.3l-.226.079a2.868,2.868,0,0,1-.441.236,12.658,12.658,0,0,1-1.458.467c-.561.157-1.165.325-1.794.5-1.275.346-2.434.645-3.273.85a6.954,6.954,0,0,1-1.374.273,7.156,7.156,0,0,1,1.327-.462c.33-.1.719-.215,1.138-.336-.908.2-1.8.4-2.628.582-.341,1.49-1.4,3.085-.467,4.228a1.865,1.865,0,0,0,.336.31c3.342-1.238,7.633-2.843,10.439-3.583A1.9,1.9,0,0,1,336.981,231.108Z" transform="translate(-325.198 -227.74)" fill="#ffa41b"/>
        </g>
        <g id="Group_1524" data-name="Group 1524" transform="translate(21.927 0.118)">
          <path id="Path_2792" data-name="Path 2792" d="M364.059,180.772q.008.22,0,.393c0,.136,0,.273.005.4a14.992,14.992,0,0,1,3.688-.483c0-.068.005-.136.01-.2.058-.918.115-1.841.173-2.759,0-.184.005-.372.01-.567a39.3,39.3,0,0,1,.184-3.945c-.551-.656-1.081-2.03-2.208-2.177a1.959,1.959,0,0,0-1.8.378C364.117,174.572,364.049,178.06,364.059,180.772Z" transform="translate(-364.058 -171.396)" fill="#ffa41b"/>
        </g>
        <g id="Group_1525" data-name="Group 1525" transform="translate(5.173 18.193)">
          <path id="Path_2793" data-name="Path 2793" d="M334.381,206.82q.354.134.692.252c-.986-.388-1.988-.808-2.953-1.222C332.786,206.16,333.547,206.5,334.381,206.82Z" transform="translate(-332.12 -205.85)" fill="#e8505b"/>
        </g>
        <g id="Group_1526" data-name="Group 1526" transform="translate(0.32 16.918)">
          <path id="Path_2794" data-name="Path 2794" d="M333.356,210.486a14.906,14.906,0,0,1,.567-3.4c-.294-.089-.6-.189-.907-.294a15.107,15.107,0,0,1-3.137-.871,30.58,30.58,0,0,1-3.331-1.553c-.577-.309-.986-.546-1.18-.677q-.323-.142-.629-.268c-.409.666-1.054,1.212-1.5,1.873a2.408,2.408,0,0,0-.372,1.264c3.415.939,7.538,2.167,10.408,3.877C333.309,210.455,333.335,210.47,333.356,210.486Z" transform="translate(-322.87 -203.42)" fill="#ffa41b"/>
        </g>
        <g id="Group_1527" data-name="Group 1527" transform="translate(2.571 10.366)">
          <path id="Path_2795" data-name="Path 2795" d="M336.55,199.486a14.836,14.836,0,0,1,1.558-2.8c-.073-.047-.147-.094-.226-.147a25.879,25.879,0,0,1-2.476-1.867,27.319,27.319,0,0,1-2.245-2.14.122.122,0,0,0-.037-.037c-.64-.556-1.249-1.086-1.794-1.569a1.627,1.627,0,0,1-.362.614c-.813.813-2.34.289-3.237,1.007a1.607,1.607,0,0,0-.572,1.044,91.173,91.173,0,0,1,8.273,5.209C335.884,199.066,336.267,199.3,336.55,199.486Z" transform="translate(-327.16 -190.93)" fill="#ffa41b"/>
        </g>
        <g id="Group_1528" data-name="Group 1528" transform="translate(8.535 5.366)">
          <path id="Path_2796" data-name="Path 2796" d="M343.382,189.788c.367.514.7.976.939,1.332a14.964,14.964,0,0,1,2.786-2.549c-.315-.4-.7-.918-1.133-1.5-.383-.441-.818-.96-1.275-1.537-.671-.845-1.243-1.626-1.647-2.209a4.513,4.513,0,0,1-.593-.976c.021-.016.163.142.388.414-.372-.509-.719-.97-1.023-1.369a2.761,2.761,0,0,1-1.007,1.191,7.55,7.55,0,0,1-2.287.535,56.342,56.342,0,0,1,4.176,5.728C342.91,189.132,343.136,189.447,343.382,189.788Z" transform="translate(-338.53 -181.4)" fill="#ffa41b"/>
        </g>
        <g id="Group_1529" data-name="Group 1529" transform="translate(14.028 2.109)">
          <path id="Path_2797" data-name="Path 2797" d="M353.008,185.011a14.773,14.773,0,0,1,2.717-1.275c-.031-.11-.068-.226-.1-.351-.2-.708-.446-1.7-.661-2.8s-.357-2.114-.435-2.843a8.934,8.934,0,0,1-.073-1.138l-.032-.2a2.652,2.652,0,0,1-1.951-.635,3.371,3.371,0,0,0-3.467-.189c1.191,2.88,2.98,6.825,3.971,9.338C352.982,184.943,352.992,184.974,353.008,185.011Z" transform="translate(-349 -175.191)" fill="#ffa41b"/>
        </g>
        <g id="Group_1530" data-name="Group 1530" transform="translate(14.153 15.197)">
          <path id="Path_2798" data-name="Path 2798" d="M349.277,200.182a.3.3,0,0,0-.037-.042c.01.016.021.037.031.052C349.271,200.187,349.277,200.187,349.277,200.182Z" transform="translate(-349.24 -200.14)" fill="#e8505b"/>
        </g>
        <g id="Group_1531" data-name="Group 1531" transform="translate(0 24.897)">
          <path id="Path_2799" data-name="Path 2799" d="M333.633,222.585a14.9,14.9,0,0,1-.572-3.609c-.031,0-.058.005-.089.005-1.039.052-2.277.037-3.567-.011-.393,0-.8,0-1.227-.01-1.249-.026-2.376-.1-3.19-.184-.367-.037-.671-.073-.892-.1-.273-.016-.54-.031-.8-.042-.178.273-.357.546-.514.829a2.818,2.818,0,0,0-.315,2.623.777.777,0,0,0,.047.068q5.2.126,10.408.3A1.975,1.975,0,0,1,333.633,222.585Z" transform="translate(-322.26 -218.63)" fill="#ffa41b"/>
        </g>
        <g id="Group_1532" data-name="Group 1532" transform="translate(6.064 33.736)">
          <path id="Path_2800" data-name="Path 2800" d="M344,238.313c.084-.058.158-.1.22-.142a14.93,14.93,0,0,1-2.644-2.691,1.259,1.259,0,0,1-.409.441,1.1,1.1,0,0,1-.3.409c-.671.514-1.616,1.107-2.665,1.794s-2.009,1.28-2.712,1.7a6.723,6.723,0,0,1-1.165.64,6.554,6.554,0,0,1,1.06-.8c.383-.268.86-.588,1.39-.934-1.012.614-2.041,1.228-2.959,1.794.173.771-.1,1.679.257,2.4a2.337,2.337,0,0,0,1.915,1.091l6.243-4.637A7.536,7.536,0,0,1,344,238.313Z" transform="translate(-333.82 -235.48)" fill="#ffa41b"/>
        </g>
        <g id="Group_1533" data-name="Group 1533" transform="translate(44.752 38.982)">
          <path id="Path_2801" data-name="Path 2801" d="M407.57,245.48c.3.231.582.456.85.671a.277.277,0,0,0,.053-.058c-.089-.058-.178-.121-.278-.189C408.005,245.779,407.8,245.632,407.57,245.48Z" transform="translate(-407.57 -245.48)" fill="#e8505b"/>
        </g>
        <g id="Group_1534" data-name="Group 1534" transform="translate(34.287 34.497)">
          <path id="Path_2802" data-name="Path 2802" d="M390.3,236.93a14.994,14.994,0,0,1-2.675,2.413,8.767,8.767,0,0,1,.771.9.959.959,0,0,1,.089.063,5.581,5.581,0,0,1,1.023,1.448c.336.577.7,1.2,1.081,1.841.01.021.026.042.037.063.7,1.17,1.4,2.387,2.025,3.447a1.75,1.75,0,0,1,.31-.472c1.091-1.138,3.3-.026,4.459-1.1a1.617,1.617,0,0,0,.289-.367c-2.124-2.313-4.957-5.555-6.757-7.449A4.509,4.509,0,0,1,390.3,236.93Zm.834,2.487a714.937,714.937,0,0,1,2.6,3.751,9.983,9.983,0,0,1-2.6-3.751Z" transform="translate(-387.62 -236.93)" fill="#ffa41b"/>
        </g>
        <g id="Group_1535" data-name="Group 1535" transform="translate(26.051 2.392)">
          <path id="Path_2803" data-name="Path 2803" d="M371.952,175.767c-.01-.011-.021-.026-.031-.037.005.063.016.147.021.257C371.941,175.914,371.946,175.84,371.952,175.767Z" transform="translate(-371.92 -175.73)" fill="#e8505b"/>
        </g>
        <g id="Group_1536" data-name="Group 1536" transform="translate(39.8 26.45)">
          <path id="Path_2804" data-name="Path 2804" d="M398.849,221.59a14.536,14.536,0,0,1-.719,3.147c.142.058.278.126.409.194q.716.37,1.448.755a9.406,9.406,0,0,1-1.406-.871,44.385,44.385,0,0,1,4.433,2.224c1.07.577,2.046,1.112,2.8,1.537.163.068.325.142.483.21a2.159,2.159,0,0,1,.11-.729c.409-1.18,1.92-1.8,2.439-2.838C405.674,224.066,401.6,222.623,398.849,221.59Z" transform="translate(-398.13 -221.59)" fill="#ffa41b"/>
        </g>
        <g id="Group_1537" data-name="Group 1537" transform="translate(37.665 31.071)">
          <path id="Path_2805" data-name="Path 2805" d="M394.06,232.965c.294.226.656.5,1.07.813l.142.094c.86.582,2.041,1.4,3.331,2.324s2.45,1.763,3.284,2.387q.165.126.315.236c.509-.378,1.149-.614,1.694-.939-2.7-2.361-5.881-5.618-8.3-7.481A14.87,14.87,0,0,1,394.06,232.965Z" transform="translate(-394.06 -230.4)" fill="#ffa41b"/>
        </g>
        <g id="Group_1538" data-name="Group 1538" transform="translate(11.468 37.298)">
          <path id="Path_2806" data-name="Path 2806" d="M353.237,243.943a2.831,2.831,0,0,0-.157-.3,15.191,15.191,0,0,1-2.738-1.374,1.151,1.151,0,0,1-.073.094c-.189.236-.414.488-.65.755-.43.525-1.018,1.2-1.7,1.93-.719.771-1.4,1.448-1.9,1.92a4.349,4.349,0,0,1-.86.719c-.01-.016.047-.1.168-.236-.43.43-.834.845-1.2,1.243.577,1.2.021,2.953.991,3.924a1.727,1.727,0,0,0,.614.393c2.088-2.817,4.952-6.463,6.987-8.724A.843.843,0,0,1,353.237,243.943Z" transform="translate(-344.12 -242.27)" fill="#ffa41b"/>
        </g>
        <g id="Group_1539" data-name="Group 1539" transform="translate(26.046 37.471)">
          <path id="Path_2807" data-name="Path 2807" d="M372.429,244.74a1.257,1.257,0,0,1,.236.687,3.292,3.292,0,0,1,.11,1.605c-.079.635-.168,1.312-.257,2.03-.126.95-.252,1.836-.362,2.6-.079,1.007-.163,1.988-.247,2.88a7.052,7.052,0,0,0,1.815,1.238,3.094,3.094,0,0,0,2.8-.813c-.2-3.363-.383-7.554-.247-10.544.052.121.1.241.157.367-.042-.173-.058-.273-.042-.278a5.781,5.781,0,0,1,.5,1.191c.273.75.619,1.794.96,2.964q.142.488.268.944c.362,1.243.682,2.5.928,3.667a2.864,2.864,0,0,1,1.18-.241c.923.031,1.9.577,2.775.692a68.85,68.85,0,0,1-3.667-11.132A15.013,15.013,0,0,1,372.429,244.74Zm1.9,5.7a5.2,5.2,0,0,1-.11-1.469,5.606,5.606,0,0,1,.026-1.474,3.379,3.379,0,0,1,.247,1.469A3.345,3.345,0,0,1,374.334,250.443Z" transform="translate(-371.91 -242.6)" fill="#ffa41b"/>
        </g>
        <g id="Group_1540" data-name="Group 1540" transform="translate(17.259 38.714)">
          <path id="Path_2808" data-name="Path 2808" d="M363.034,245.93c.016-.016.037-.032.058-.052a14.812,14.812,0,0,1-4.648-.908,1.769,1.769,0,0,1,.121.168.856.856,0,0,1,.052.1c.31.084.4.519.367.855a2.972,2.972,0,0,1-.089.488,4.424,4.424,0,0,1-.31,1.359c-.231.6-.535,1.227-.86,1.888a36.074,36.074,0,0,1-1.847,3.268c-.309.483-.561.839-.719,1.049a2.532,2.532,0,0,1,.556.136c1.464.572,2.256,2.7,3.814,2.518a1.332,1.332,0,0,0,.142-.026c.913-2.911,1.826-6.94,2.738-9.637A3.047,3.047,0,0,1,363.034,245.93Z" transform="translate(-355.16 -244.97)" fill="#ffa41b"/>
        </g>
        <g id="Group_1541" data-name="Group 1541" transform="translate(34.843 6.799)">
          <path id="Path_2809" data-name="Path 2809" d="M391.922,193.735c.173-.157.351-.309.535-.451a2.968,2.968,0,0,1,.692-.687c.414-.294.876-.577,1.364-.881.981-.6,1.9-1.091,2.57-1.427.462-.226.8-.378.981-.446.315-.178.63-.362.934-.551l-.016-.016c-.923-1.448.273-3.646-.813-4.978a1.651,1.651,0,0,0-.163-.168c-2.733,2.025-6.258,4.323-9.327,6.138A14.97,14.97,0,0,1,391.922,193.735Zm.656-5.865a16.083,16.083,0,0,1,1.946-1.207,11.229,11.229,0,0,1-3.85,2.476A15.912,15.912,0,0,1,392.578,187.87Z" transform="translate(-388.68 -184.13)" fill="#ffa41b"/>
        </g>
        <g id="Group_1542" data-name="Group 1542" transform="translate(40.425 21.812)">
          <path id="Path_2810" data-name="Path 2810" d="M399.32,213.248a15.238,15.238,0,0,1,.2,2.413c0,.147-.005.294-.011.446.084,0,.168,0,.247.005.441.016.876.042,1.311.073.1,0,.2.005.31.005.9.021,2.146.084,3.52.189,1.285.094,2.45.215,3.326.32.22-.991,1.443-1.485,1.8-2.445a2.008,2.008,0,0,0-.1-1.506c-3.205.178-7.533.446-10.208.509C399.582,213.254,399.451,213.254,399.32,213.248Z" transform="translate(-399.32 -212.75)" fill="#ffa41b"/>
        </g>
        <g id="Group_1543" data-name="Group 1543" transform="translate(31.066 2.591)">
          <path id="Path_2811" data-name="Path 2811" d="M387.2,177.269l-5.319,6.688a1.789,1.789,0,0,1-.4.367,14.723,14.723,0,0,1,3.3,1.784,1.143,1.143,0,0,1,.073-.094v-.005a1.569,1.569,0,0,1,.325-.514c.236-.273.519-.593.829-.939,1.563-1.889,3.373-3.8,4.868-5.382a2.361,2.361,0,0,1-.818-.519c-.656-.666-.8-1.773-1.584-2.282a1.675,1.675,0,0,0-.823-.262.241.241,0,0,1,.016.058A1.527,1.527,0,0,1,387.2,177.269Z" transform="translate(-381.48 -176.11)" fill="#ffa41b"/>
        </g>
        <g id="Group_1544" data-name="Group 1544" transform="translate(38.678 13.886)">
          <path id="Path_2812" data-name="Path 2812" d="M397.391,204.5c.147-.063.289-.131.435-.194a7.12,7.12,0,0,1,1.023-.462c.65-.262,1.553-.614,2.56-.981s1.92-.687,2.586-.9a4.448,4.448,0,0,1,1.1-.3c.011.021-.131.094-.378.2.467-.152.918-.3,1.348-.446-.021-1.1.3-2.25-.252-3.179a2.3,2.3,0,0,0-.551-.6c-2.859,1.154-6.767,2.969-9.275,3.494A14.365,14.365,0,0,1,397.391,204.5Z" transform="translate(-395.99 -197.64)" fill="#ffa41b"/>
        </g>
        <g id="Group_1545" data-name="Group 1545" transform="translate(48.126 25.867)">
          <path id="Path_2813" data-name="Path 2813" d="M415.17,220.585v-.016c-.367-.026-.755-.058-1.17-.089C414.388,220.522,414.776,220.553,415.17,220.585Z" transform="translate(-414 -220.48)" fill="#e8505b"/>
        </g>
        <g id="Group_1546" data-name="Group 1546" transform="translate(20.768 9.951)">
          <path id="Path_2814" data-name="Path 2814" d="M361.913,190.439c.026.126.052.241.073.346.026-.01.052-.016.079-.026-.073-.189-.147-.393-.215-.619C361.871,190.24,361.9,190.35,361.913,190.439Z" transform="translate(-361.85 -190.14)" fill="#e8505b"/>
        </g>
        <g id="Group_1547" data-name="Group 1547" transform="translate(43.305 6.29)">
          <path id="Path_2815" data-name="Path 2815" d="M404.81,183.16l.01.005A.018.018,0,0,0,404.81,183.16Z" transform="translate(-404.81 -183.16)" fill="#e8505b"/>
        </g>
        <g id="Group_1548" data-name="Group 1548" transform="translate(34.366 12.49)">
          <path id="Path_2816" data-name="Path 2816" d="M387.817,195.106a1.1,1.1,0,0,1,.026-.126c-.021.032-.052.063-.073.094A.181.181,0,0,1,387.817,195.106Z" transform="translate(-387.77 -194.98)"/>
        </g>
        <g id="Group_1549" data-name="Group 1549" transform="translate(38.085 15.947)">
          <path id="Path_2817" data-name="Path 2817" d="M395.112,202.415a1.483,1.483,0,0,1,.094-.493,1.53,1.53,0,0,1,.189-.352c-.184.147-.362.294-.535.451C394.949,202.152,395.028,202.283,395.112,202.415Z" transform="translate(-394.86 -201.57)" fill="#e8505b"/>
        </g>
        <g id="Group_1550" data-name="Group 1550" transform="translate(47.486 33.442)">
          <path id="Path_2818" data-name="Path 2818" d="M413.263,235.2v-.068c-.163-.068-.325-.136-.483-.21C412.953,235.02,413.111,235.109,413.263,235.2Z" transform="translate(-412.78 -234.92)"/>
        </g>
        <g id="Group_1551" data-name="Group 1551" transform="translate(37.602 33.631)">
          <path id="Path_2819" data-name="Path 2819" d="M395.073,236.093c-.414-.309-.782-.588-1.07-.813l-.063.079C394.139,235.479,394.538,235.736,395.073,236.093Z" transform="translate(-393.94 -235.28)"/>
        </g>
        <g id="Group_1552" data-name="Group 1552" transform="translate(37.288 41.232)">
          <path id="Path_2820" data-name="Path 2820" d="M395.218,253.085c.042.074.079.142.115.215.01-.026.021-.058.031-.084-.619-1.06-1.322-2.277-2.025-3.446C394.085,251.055,394.746,252.23,395.218,253.085Z" transform="translate(-393.34 -249.77)"/>
        </g>
        <g id="Group_1553" data-name="Group 1553" transform="translate(26.261 39.611)">
          <path id="Path_2821" data-name="Path 2821" d="M372.32,246.691a1.483,1.483,0,0,1,.509.582.494.494,0,0,1,.031.094,1.243,1.243,0,0,0-.236-.687C372.519,246.685,372.42,246.685,372.32,246.691Z" transform="translate(-372.32 -246.68)" fill="#e8505b"/>
        </g>
        <g id="Group_1554" data-name="Group 1554" transform="translate(20.716 38.982)">
          <path id="Path_2822" data-name="Path 2822" d="M361.75,245.48a2.385,2.385,0,0,1,.278,1.012q.008.157,0,.33c.037-.163.068-.325.089-.488C362.149,246,362.054,245.564,361.75,245.48Z" transform="translate(-361.75 -245.48)" fill="#e8505b"/>
        </g>
        <g id="Group_1555" data-name="Group 1555" transform="translate(16.965 37.261)">
          <path id="Path_2823" data-name="Path 2823" d="M355.324,242.232l-.047-.032c-.1.152-.3.42-.593.776l-.084.1c.241-.262.462-.519.651-.755C355.277,242.294,355.3,242.263,355.324,242.232Z" transform="translate(-354.6 -242.2)"/>
        </g>
        <g id="Group_1556" data-name="Group 1556" transform="translate(10.471 20.223)">
          <path id="Path_2824" data-name="Path 2824" d="M343.232,209.72a1.2,1.2,0,0,1-.577.126c-.136-.01-.289-.042-.436-.063.31.1.614.2.908.294C343.159,209.956,343.2,209.841,343.232,209.72Z" transform="translate(-342.22 -209.72)"/>
        </g>
        <g id="Group_1557" data-name="Group 1557" transform="translate(15.974 11.043)">
          <path id="Path_2825" data-name="Path 2825" d="M354.027,193.584a5.078,5.078,0,0,1-.813-.8c-.152-.168-.325-.362-.5-.567.425.582.813,1.1,1.133,1.5C353.906,193.673,353.964,193.626,354.027,193.584Z" transform="translate(-352.71 -192.22)"/>
        </g>
        <g id="Group_1558" data-name="Group 1558" transform="translate(21.886 9.888)">
          <path id="Path_2826" data-name="Path 2826" d="M363.98,190.434a.153.153,0,0,1,.047-.01c0-.131,0-.268-.005-.4A1.9,1.9,0,0,1,363.98,190.434Z" transform="translate(-363.98 -190.02)"/>
        </g>
        <g id="Group_1559" data-name="Group 1559" transform="translate(25.621 6.856)">
          <path id="Path_2827" data-name="Path 2827" d="M371.1,187.193h.084c.042,0,.079.005.115.005-.026-.593-.037-1.679-.021-2.959-.058.918-.115,1.841-.173,2.759C371.105,187.057,371.1,187.125,371.1,187.193Z" transform="translate(-371.1 -184.24)"/>
        </g>
        <g id="Group_1580" data-name="Group 1580" transform="translate(0.268)">
          <g id="Group_1560" data-name="Group 1560" transform="translate(29.994 2.324)">
            <path id="Path_2828" data-name="Path 2828" d="M380.048,183.275a1.29,1.29,0,0,0-.1.519c.273.089.54.184.808.289a1.907,1.907,0,0,0,.4-.367l5.319-6.688a1.545,1.545,0,0,0,.472-1.1c-.005-.021-.011-.037-.016-.058-.96-.079-2.062.4-3.022.1a7.047,7.047,0,0,1-.677-.241c-.273.824-.729,2.088-1.259,3.5a40.109,40.109,0,0,1-1.794,4.4,42.5,42.5,0,0,1,1.537-4.49c.535-1.422,1.023-2.675,1.359-3.478-.042-.021-.079-.042-.115-.063l-.068.058Q381.467,179.458,380.048,183.275Zm2.77-2.193a13.19,13.19,0,0,1,1.537-1.831,14.719,14.719,0,0,1-2.959,3.761A14.253,14.253,0,0,1,382.818,181.082Z" transform="translate(-379.947 -175.6)" fill="#e8505b"/>
          </g>
          <g id="Group_1561" data-name="Group 1561" transform="translate(34.287 5.65)">
            <path id="Path_2829" data-name="Path 2829" d="M390.58,185.775c.886-.96,1.7-1.82,2.3-2.434a6.658,6.658,0,0,1,1.012-.955,6.908,6.908,0,0,1-.865,1.086c-.561.645-1.353,1.527-2.235,2.487s-1.7,1.82-2.3,2.434a1.04,1.04,0,0,0-.362.609c.1.073.2.152.3.231,3.069-1.815,6.594-4.113,9.327-6.138a2.34,2.34,0,0,0-.86-.509l-.011-.005c-.881-.3-1.967-.294-2.838-.64-1.5,1.584-3.3,3.494-4.868,5.382C389.594,186.855,390.071,186.331,390.58,185.775Z" transform="translate(-388.13 -181.94)" fill="#e8505b"/>
          </g>
          <g id="Group_1562" data-name="Group 1562" transform="translate(38.209 11.971)">
            <path id="Path_2830" data-name="Path 2830" d="M401.5,194.5a5.946,5.946,0,0,1-1.033.651c-.65.378-1.547.892-2.523,1.49-.96.608-1.936,1.081-2.214,1.757a1.384,1.384,0,0,0-.126.651c.073.115.136.236.2.357,2.508-.525,6.416-2.34,9.275-3.494-.871-.7-2.177-.97-2.8-1.92-.3.184-.614.367-.934.551C401.447,194.5,401.5,194.488,401.5,194.5Zm-1.841,3.127a5.812,5.812,0,0,1-1.516.567,4.086,4.086,0,0,1,1.406-.813,4.256,4.256,0,0,1,1.553-.483A6.157,6.157,0,0,1,399.663,197.625Z" transform="translate(-395.606 -193.99)" fill="#e8505b"/>
          </g>
          <g id="Group_1563" data-name="Group 1563" transform="translate(39.811 17.663)">
            <path id="Path_2831" data-name="Path 2831" d="M405.338,205.559c-.65.262-1.558.614-2.565.981s-1.925.687-2.591.908a4.506,4.506,0,0,1-1.1.3c0-.005.005-.01.01-.016-.152.063-.289.126-.435.194a15.43,15.43,0,0,1,.346,1.569,3.292,3.292,0,0,0,.393.005c2.67-.063,7-.325,10.208-.509a4.329,4.329,0,0,0-.619-1.023,7.049,7.049,0,0,1-1.532-2.261,3.378,3.378,0,0,1-.115-.866c-.43.142-.881.294-1.348.446C405.821,205.354,405.6,205.449,405.338,205.559Z" transform="translate(-398.66 -204.84)" fill="#e8505b"/>
          </g>
          <g id="Group_1564" data-name="Group 1564" transform="translate(40.251 25.164)">
            <path id="Path_2832" data-name="Path 2832" d="M404.961,219.686c-1.322-.1-2.518-.189-3.509-.267A8.492,8.492,0,0,1,400,219.25a5.632,5.632,0,0,1,1.149-.031c-.435-.031-.876-.058-1.311-.073-.084-.005-.163-.005-.247-.005-.01.435-.042.86-.089,1.285,2.759,1.028,6.83,2.476,9.993,3.635a1.59,1.59,0,0,0,.178-.687c.037-1.254-1.474-2.214-1.4-3.426-.388-.031-.782-.063-1.17-.1C406.44,219.8,405.727,219.743,404.961,219.686Z" transform="translate(-399.5 -219.14)" fill="#e8505b"/>
          </g>
          <g id="Group_1565" data-name="Group 1565" transform="translate(38.935 29.602)">
            <path id="Path_2833" data-name="Path 2833" d="M399.445,228.55q-.732-.386-1.448-.755c-.136-.068-.273-.136-.409-.194a14.427,14.427,0,0,1-.6,1.474c2.424,1.857,5.608,5.115,8.3,7.481a2.255,2.255,0,0,0,.834-.782c.656-1.144-.236-2.534-.362-3.845-.813-.4-2.051-1.044-3.426-1.778C401.223,229.541,400.206,228.98,399.445,228.55Z" transform="translate(-396.99 -227.6)" fill="#e8505b"/>
          </g>
          <g id="Group_1566" data-name="Group 1566" transform="translate(36.7 33.768)">
            <path id="Path_2834" data-name="Path 2834" d="M397.813,238.861c-1.29-.918-2.455-1.768-3.284-2.387-.593-.446-1.012-.771-1.2-.934-.194.252-.393.5-.6.734a4.506,4.506,0,0,0,.65.8c1.8,1.894,4.637,5.136,6.757,7.449.5-.818.378-2.009.965-2.812a1.955,1.955,0,0,1,.268-.283c-.268-.215-.556-.441-.85-.671C399.749,240.225,398.815,239.574,397.813,238.861Z" transform="translate(-392.73 -235.54)" fill="#e8505b"/>
          </g>
          <g id="Group_1567" data-name="Group 1567" transform="translate(33.196 36.91)">
            <path id="Path_2835" data-name="Path 2835" d="M389.607,245.926c-.372-.656-.729-1.275-1.06-1.857a6.1,6.1,0,0,0-.929-1.427,1,1,0,0,0-1.012-.231c-.247.094-.315.252-.336.236-.01.005.021-.189.294-.33a1.073,1.073,0,0,1,1.091.115,8.24,8.24,0,0,0-.771-.9q-.409.291-.834.551a68.338,68.338,0,0,0,3.667,11.132,1.578,1.578,0,0,0,1.217-.273c.934-.713.551-2.214.865-3.336-.068-.1-.136-.215-.21-.336C391.065,248.418,390.362,247.238,389.607,245.926Z" transform="translate(-386.05 -241.53)" fill="#e8505b"/>
          </g>
          <g id="Group_1568" data-name="Group 1568" transform="translate(30.075 39.291)">
            <path id="Path_2836" data-name="Path 2836" d="M382.524,253.325a5.657,5.657,0,0,1,.226,1.275,6.384,6.384,0,0,1-.415-1.222c-.252-.86-.546-1.868-.871-2.985s-.63-2.119-.887-2.98c-.126-.425-.22-.755-.273-.976-.052-.126-.1-.247-.157-.367-.136,2.99.047,7.182.247,10.544a13.532,13.532,0,0,1,2.523-1.694c-.241-1.165-.561-2.424-.928-3.667C382.219,252.05,382.4,252.764,382.524,253.325Z" transform="translate(-380.1 -246.07)" fill="#e8505b"/>
          </g>
          <g id="Group_1569" data-name="Group 1569" transform="translate(21.503 39.627)">
            <path id="Path_2837" data-name="Path 2837" d="M368.109,254.689a8.891,8.891,0,0,1-.3,1.511,8.668,8.668,0,0,1,.1-1.537c.1-.944.257-2.245.451-3.683.1-.713.194-1.39.278-2.025a3.03,3.03,0,0,0-.068-1.589,1.383,1.383,0,0,0-.572-.656c-.1,0-.21.01-.315.01-.173,0-.346-.005-.514-.01a.274.274,0,0,0-.058.052,2.984,2.984,0,0,0-.619,1.2c-.913,2.7-1.826,6.73-2.738,9.637,1.081-.225,1.778-1.547,2.9-1.616a2.089,2.089,0,0,1,1.369.514c.089-.892.168-1.873.246-2.88C368.219,254.012,368.161,254.374,368.109,254.689Z" transform="translate(-363.76 -246.71)" fill="#e8505b"/>
          </g>
          <g id="Group_1570" data-name="Group 1570" transform="translate(12.805 38.971)">
            <path id="Path_2838" data-name="Path 2838" d="M353.69,249.935c.32-.656.635-1.28.871-1.857a4.11,4.11,0,0,0,.352-1.589,2.481,2.481,0,0,0-.22-1.028.872.872,0,0,0-.525.336c-2.035,2.261-4.9,5.907-6.988,8.724,1.154.435,2.733-.3,4.1-.157.121-.231.351-.619.645-1.138C352.394,252.4,353.04,251.241,353.69,249.935Z" transform="translate(-347.18 -245.46)" fill="#e8505b"/>
          </g>
          <g id="Group_1571" data-name="Group 1571" transform="translate(7.968 36.511)">
            <path id="Path_2839" data-name="Path 2839" d="M342.393,246.729c.372-.435,1.311-1.422,2.4-2.586,1.186-1.264,2.167-2.35,2.513-2.665-.341-.22-.677-.462-1-.708a16.152,16.152,0,0,1-1.311,1.107,7.05,7.05,0,0,1-1.637,1.1,7.346,7.346,0,0,1,1.469-1.311c.441-.341.85-.635,1.149-.834a7.678,7.678,0,0,0-1.773,1.07l-6.242,4.637c1.081.189,2.3.236,2.974,1.033a1.943,1.943,0,0,1,.257.4C341.559,247.579,341.963,247.159,342.393,246.729Z" transform="translate(-337.96 -240.77)" fill="#e8505b"/>
          </g>
          <g id="Group_1572" data-name="Group 1572" transform="translate(1.988 33.039)">
            <path id="Path_2840" data-name="Path 2840" d="M334.607,237.261c1.039-.682,2.03-1.275,2.691-1.715a.853.853,0,0,0,.3-.388.582.582,0,0,0,0-.367c-.068-.2-.21-.236-.2-.262-.01-.016.173-.016.3.22a.66.66,0,0,1,.047.451.448.448,0,0,1-.031.089,1.258,1.258,0,0,0,.409-.441c-.173-.226-.341-.456-.5-.693a1.844,1.844,0,0,0-.629.084c-2.807.74-7.1,2.345-10.439,3.583,1.075.766,2.964.435,3.641,1.616a1.654,1.654,0,0,1,.168.456c.918-.561,1.941-1.175,2.959-1.794C333.726,237.833,334.156,237.555,334.607,237.261Z" transform="translate(-326.56 -234.151)" fill="#e8505b"/>
          </g>
          <g id="Group_1573" data-name="Group 1573" transform="translate(0 28.427)">
            <path id="Path_2841" data-name="Path 2841" d="M329.626,227.93c.635-.168,1.233-.33,1.8-.477s1.054-.257,1.453-.4a2.829,2.829,0,0,0,1.133-.745c.01.005-.031.142-.194.33a1.912,1.912,0,0,1-.425.357l.226-.079a1.282,1.282,0,0,0,.525-.3c-.094-.273-.184-.546-.262-.824a1.756,1.756,0,0,0-.7-.121q-5.2-.189-10.408-.3c.483.818,1.558,1.18,2,2.025a2.418,2.418,0,0,1,.115,1.721c.824-.184,1.721-.383,2.628-.582C328.147,228.334,328.866,228.135,329.626,227.93Z" transform="translate(-322.77 -225.36)" fill="#e8505b"/>
          </g>
          <g id="Group_1574" data-name="Group 1574" transform="translate(0.063 20.055)">
            <path id="Path_2842" data-name="Path 2842" d="M323.981,214.195a7.1,7.1,0,0,1,1.322.005c.813.031,1.941.073,3.184.1s2.371.032,3.184.037a7.2,7.2,0,0,1,1.322.052,6.054,6.054,0,0,1-1.317.142c-.535.031-1.217.047-1.967.052,1.29.047,2.528.068,3.567.01.026,0,.058-.005.089-.005-.005-.173-.016-.346-.016-.525,0-.247.005-.493.021-.74-.026-.016-.047-.031-.073-.047-2.869-1.71-7-2.943-10.408-3.877a1.245,1.245,0,0,0,.8,1.343l-.074-.472a1.973,1.973,0,0,1,.808,2.392,6.368,6.368,0,0,1-.818,1.579c.257.016.525.026.8.042A1.18,1.18,0,0,1,323.981,214.195Zm7.339-.74a5.918,5.918,0,0,1,1.721.441,11.609,11.609,0,0,1-3.488-.614A5.965,5.965,0,0,1,331.32,213.455Z" transform="translate(-322.889 -209.4)" fill="#e8505b"/>
          </g>
          <g id="Group_1575" data-name="Group 1575" transform="translate(1.915 13.031)">
            <path id="Path_2843" data-name="Path 2843" d="M326.929,200.065a8.831,8.831,0,0,1,1.4.6l1.081.5c.971.414,1.973.834,2.953,1.222a16.079,16.079,0,0,0,2.791.74,1.06,1.06,0,0,0,.567-.094.466.466,0,0,0,.079-.063c.1-.31.215-.614.336-.913-.483-.241-1.217-.635-2.035-1.107a15.74,15.74,0,0,1-2.476-1.579,16.107,16.107,0,0,1,2.612,1.343c.3.173.588.341.85.5a90.884,90.884,0,0,0-8.273-5.209c-.168.986.21,2.25-.1,3.268a2.669,2.669,0,0,1-.289.619q.307.134.629.268C326.976,200.112,326.924,200.07,326.929,200.065Z" transform="translate(-326.42 -196.01)" fill="#e8505b"/>
          </g>
          <g id="Group_1576" data-name="Group 1576" transform="translate(6.479 7.087)">
            <path id="Path_2844" data-name="Path 2844" d="M336.132,188.572a7.1,7.1,0,0,1,.949.86c.572.546,1.364,1.29,2.282,2.067s1.778,1.443,2.413,1.915c.073.058.147.11.215.163.184-.252.367-.5.566-.74-.01-.016-.021-.037-.031-.052-.278-.33-.624-.771-.991-1.285a9.074,9.074,0,0,1-1.248-2.067,4.785,4.785,0,0,1,.8.976,56.345,56.345,0,0,0-4.176-5.728,1.937,1.937,0,0,0-1.138.614c-.582.708-.367,1.815-.65,2.66.54.483,1.149,1.012,1.794,1.568A4.906,4.906,0,0,1,336.132,188.572Z" transform="translate(-335.12 -184.68)" fill="#e8505b"/>
          </g>
          <g id="Group_1577" data-name="Group 1577" transform="translate(11.562 2.497)">
            <path id="Path_2845" data-name="Path 2845" d="M347.895,182.771c1.317,1.658,2.413,2.985,2.382,3.069.241-.163.488-.325.74-.472-.01-.037-.026-.068-.037-.1-.991-2.513-2.78-6.463-3.971-9.338a3.769,3.769,0,0,0-.561.289c-.876.546-1.159,1.663-1.637,2.591.3.4.651.866,1.023,1.369C346.263,180.7,347.018,181.669,347.895,182.771Zm1.353-.761a10.029,10.029,0,0,1,.85,1.694,9.624,9.624,0,0,1,.761,1.736,5.075,5.075,0,0,1-1.007-1.621A4.991,4.991,0,0,1,349.248,182.01Z" transform="translate(-344.81 -175.93)" fill="#e8505b"/>
          </g>
          <g id="Group_1578" data-name="Group 1578" transform="translate(19.174 0.535)">
            <path id="Path_2846" data-name="Path 2846" d="M359.367,175.112a6.052,6.052,0,0,1,.252,1.165c.126.724.3,1.721.514,2.822.189.96.372,1.82.519,2.508.073.226.142.43.215.619.283-.094.566-.184.855-.257a12.633,12.633,0,0,1-.262-1.736,8.838,8.838,0,0,1-.184-1.773,4.482,4.482,0,0,1,.451,1.736c.047.351.068.671.079.949-.01-2.712.058-6.2.052-8.955a17.531,17.531,0,0,0-1.464,2.177,1.446,1.446,0,0,1-1.075.6l.032.2C359.357,175.138,359.362,175.112,359.367,175.112Z" transform="translate(-359.32 -172.19)" fill="#e8505b"/>
          </g>
          <g id="Group_1579" data-name="Group 1579" transform="translate(25.684)">
            <path id="Path_2847" data-name="Path 2847" d="M371.861,177.455c-.026,1.521-.079,2.848-.131,3.525.357.005.713.026,1.065.052a8.2,8.2,0,0,0,1.149-2.9c.462-1.841,1.1-4.8,1.61-6.961a2.173,2.173,0,0,0-.923.273c-.808.446-1.789,2.4-2.3,2.4a.659.659,0,0,1-.472-.247c-.005.073-.01.147-.016.215C371.882,174.459,371.893,175.844,371.861,177.455Z" transform="translate(-371.73 -171.17)" fill="#e8505b"/>
          </g>
        </g>
        <g id="Group_1581" data-name="Group 1581" transform="translate(40.507 17.887)">
          <path id="Path_2848" data-name="Path 2848" d="M400.569,207.645c.666-.22,1.584-.535,2.591-.907s1.915-.719,2.565-.981c.268-.11.483-.2.656-.278.247-.11.388-.184.378-.2a4.755,4.755,0,0,0-1.1.3c-.666.22-1.584.535-2.586.9s-1.909.713-2.56.981a7.838,7.838,0,0,0-1.023.462c-.011.005-.016.016-.011.016A3.718,3.718,0,0,0,400.569,207.645Z" transform="translate(-399.476 -205.268)" fill="#263238"/>
        </g>
        <g id="Group_1582" data-name="Group 1582" transform="translate(41.023 25.242)">
          <path id="Path_2849" data-name="Path 2849" d="M401.918,219.3c-.11-.005-.215-.005-.31-.005a5.155,5.155,0,0,0-1.149.032,8.4,8.4,0,0,0,1.453.168c.991.073,2.188.168,3.509.268.766.058,1.485.11,2.146.157.414.031.8.058,1.17.089.005-.047.005-.094.01-.142.005-.021.016-.037.021-.058-.876-.1-2.046-.22-3.326-.32C404.064,219.384,402.821,219.321,401.918,219.3Z" transform="translate(-400.46 -219.288)" fill="#263238"/>
        </g>
        <g id="Group_1583" data-name="Group 1583" transform="translate(40.251 29.678)">
          <path id="Path_2850" data-name="Path 2850" d="M403.422,229.971a44.384,44.384,0,0,0-4.433-2.224,9.212,9.212,0,0,0,1.406.871c.766.435,1.778.991,2.9,1.595,1.374.74,2.607,1.374,3.426,1.778-.005-.068-.011-.136-.011-.2-.147-.084-.309-.178-.488-.278C405.468,231.083,404.492,230.543,403.422,229.971Z" transform="translate(-398.989 -227.744)" fill="#263238"/>
        </g>
        <g id="Group_1584" data-name="Group 1584" transform="translate(2.696 2.334)">
          <path id="Path_2851" data-name="Path 2851" d="M366.911,210.148c-1.29-.918-2.471-1.742-3.331-2.324-.053-.031-.095-.063-.142-.094-.535-.362-.934-.619-1.133-.734l.063-.079a15.028,15.028,0,0,0,1.537-2.565,14.44,14.44,0,0,0,.6-1.474,14.927,14.927,0,0,0,.719-3.148c.047-.425.079-.85.089-1.285.005-.147.01-.294.01-.446a14.635,14.635,0,0,0-.2-2.413,15.462,15.462,0,0,0-.346-1.569,14.663,14.663,0,0,0-1.39-3.357c-.068-.121-.136-.241-.2-.357a1.382,1.382,0,0,1,.126-.65c.278-.671,1.254-1.149,2.214-1.757.976-.593,1.873-1.112,2.523-1.49a5.946,5.946,0,0,0,1.033-.65c-.005-.011-.058.005-.142.031a9.72,9.72,0,0,0-.981.446c-.677.336-1.589.829-2.57,1.427-.493.3-.949.588-1.364.881a2.78,2.78,0,0,0-.692.687,1.531,1.531,0,0,0-.189.351,1.461,1.461,0,0,0-.094.493c-.084-.131-.163-.262-.252-.388a14.93,14.93,0,0,0-3.237-3.462c-.1-.079-.2-.157-.3-.231a1.071,1.071,0,0,1,.362-.609c.6-.614,1.411-1.474,2.3-2.434s1.673-1.841,2.235-2.487a6.538,6.538,0,0,0,.866-1.086,7.3,7.3,0,0,0-1.012.955c-.6.614-1.411,1.474-2.3,2.434-.514.556-.986,1.081-1.411,1.553-.309.346-.593.666-.829.939a1.516,1.516,0,0,0-.325.514v.005a.536.536,0,0,0-.026.126l-.047-.031a14.938,14.938,0,0,0-3.3-1.784c-.268-.1-.535-.2-.808-.288a15.116,15.116,0,0,0-3.242-.651c-.351-.031-.708-.047-1.065-.052.052-.677.1-2,.131-3.525.026-1.61.021-3-.016-3.635a2.509,2.509,0,0,0-.021-.257c-.016-.021-.037-.037-.052-.058-.068.32-.147,1.962-.184,3.945-.005.194-.005.383-.01.567-.016,1.28-.005,2.366.021,2.959-.037,0-.079-.005-.115-.005h-.084a14.744,14.744,0,0,0-3.688.483.152.152,0,0,1-.047.011,1.855,1.855,0,0,0,.042-.414q.008-.173,0-.393c-.01-.278-.032-.6-.079-.949a4.56,4.56,0,0,0-.451-1.736,8.4,8.4,0,0,0,.184,1.773,13.6,13.6,0,0,0,.262,1.736c-.288.079-.572.163-.855.257-.026.01-.053.016-.079.026-.021-.11-.047-.22-.073-.346-.021-.089-.042-.2-.063-.3-.147-.682-.33-1.547-.519-2.507-.215-1.1-.388-2.1-.514-2.822a5.2,5.2,0,0,0-.252-1.165c-.005,0-.011.021-.016.058a8.96,8.96,0,0,0,.073,1.138c.079.734.22,1.742.435,2.843s.462,2.093.661,2.8c.037.131.073.247.1.351a15.117,15.117,0,0,0-2.717,1.275q-.378.228-.74.472c.026-.084-1.065-1.411-2.382-3.069-.876-1.1-1.631-2.072-2.062-2.6-.226-.278-.367-.43-.388-.414a4.5,4.5,0,0,0,.593.976c.4.582.976,1.369,1.647,2.208.456.572.892,1.091,1.275,1.537.178.2.351.4.5.567a4.844,4.844,0,0,0,.813.8c-.063.042-.121.089-.184.131a14.939,14.939,0,0,0-2.785,2.549c-.241-.357-.572-.818-.939-1.332-.247-.341-.472-.656-.671-.934a4.979,4.979,0,0,0-.8-.976,9.076,9.076,0,0,0,1.249,2.067c.367.509.713.955.991,1.285a.305.305,0,0,0,.037.042c0,.005-.005.005-.005.01q-.291.362-.567.74c-.068-.052-.142-.1-.215-.163-.629-.472-1.5-1.138-2.413-1.915s-1.71-1.521-2.282-2.067a7.113,7.113,0,0,0-.95-.86,5,5,0,0,0,.776.96.243.243,0,0,0,.037.037,25.734,25.734,0,0,0,2.245,2.14A26.792,26.792,0,0,0,338,189.259c.079.052.152.1.226.147a15,15,0,0,0-1.558,2.8c-.283-.184-.661-.42-1.112-.687-.268-.157-.551-.325-.85-.5a16.118,16.118,0,0,0-2.612-1.343,16.194,16.194,0,0,0,2.476,1.579c.824.472,1.553.866,2.035,1.107-.121.3-.236.6-.336.913a.459.459,0,0,1-.079.063,1.05,1.05,0,0,1-.566.094,16.2,16.2,0,0,1-2.791-.74q-.346-.118-.692-.252c-.834-.32-1.595-.661-2.261-.965l-1.081-.5a8.827,8.827,0,0,0-1.4-.6c-.005.01.042.047.126.1.194.126.6.362,1.18.677a29.6,29.6,0,0,0,3.331,1.553,15.438,15.438,0,0,0,3.137.871c.147.021.3.047.435.063a1.154,1.154,0,0,0,.577-.126c-.037.115-.068.236-.1.357a14.9,14.9,0,0,0-.567,3.4c-.01.247-.021.493-.021.74,0,.173.005.351.016.525a14.9,14.9,0,0,0,.572,3.609c.079.278.168.556.262.824a15,15,0,0,0,1.689,3.368c.157.236.325.467.5.692a14.933,14.933,0,0,0,2.644,2.691q-.094.055-.22.142c-.3.2-.7.493-1.149.834a7.167,7.167,0,0,0-1.469,1.311,7.136,7.136,0,0,0,1.637-1.1,15.981,15.981,0,0,0,1.311-1.107c.32.252.656.488,1,.708-.341.315-1.327,1.4-2.513,2.665-1.086,1.165-2.03,2.151-2.4,2.586-.121.142-.184.226-.168.236a4.35,4.35,0,0,0,.86-.719c.5-.472,1.186-1.149,1.9-1.92.677-.729,1.264-1.406,1.7-1.931l.084-.1c.288-.357.493-.624.593-.776l.047.031a14.693,14.693,0,0,0,2.738,1.374,2.419,2.419,0,0,1,.157.3,2.567,2.567,0,0,1,.22,1.028,4.09,4.09,0,0,1-.352,1.59c-.236.577-.551,1.2-.871,1.857-.65,1.306-1.29,2.46-1.768,3.289-.294.514-.525.908-.645,1.138l.089.016c.163-.21.409-.572.719-1.049a34.166,34.166,0,0,0,1.846-3.268c.325-.661.629-1.285.86-1.889a4.58,4.58,0,0,0,.309-1.359,2.3,2.3,0,0,0,0-.33,2.383,2.383,0,0,0-.278-1.012c-.016-.031-.037-.068-.052-.1a1.785,1.785,0,0,0-.121-.168,14.87,14.87,0,0,0,4.648.908c.173.005.341.011.514.011.1,0,.21-.005.315-.011a1.384,1.384,0,0,1,.572.656,3.088,3.088,0,0,1,.068,1.59c-.089.635-.178,1.311-.278,2.025-.189,1.437-.346,2.738-.451,3.683a8.662,8.662,0,0,0-.1,1.537,8.91,8.91,0,0,0,.3-1.511c.052-.32.1-.682.163-1.07.115-.766.236-1.652.362-2.6.089-.713.178-1.4.257-2.03a3.231,3.231,0,0,0-.11-1.605.668.668,0,0,0-.031-.094,1.443,1.443,0,0,0-.509-.582c.1-.005.2-.005.3-.01a14.815,14.815,0,0,0,6.893-2.146c.283-.173.561-.362.834-.551a15.194,15.194,0,0,0,2.675-2.413c.21-.236.409-.483.6-.734.189.163.608.493,1.2.934.834.624,1.993,1.469,3.284,2.387,1,.713,1.93,1.364,2.7,1.894.226.152.435.3.629.43.094.068.189.126.278.189.047-.042.1-.073.147-.11q-.15-.11-.315-.236C369.361,211.916,368.2,211.071,366.911,210.148Zm-16.5.934A13.078,13.078,0,1,1,363.486,198,13.077,13.077,0,0,1,350.408,211.082Z" transform="translate(-327.399 -175.62)" fill="#000839"/>
        </g>
        <g id="Group_1585" data-name="Group 1585" transform="translate(37.79 36.982)">
          <path id="Path_2852" data-name="Path 2852" d="M396.9,245.42a709.195,709.195,0,0,0-2.6-3.751,6.716,6.716,0,0,0,1.075,2.03A6.485,6.485,0,0,0,396.9,245.42Z" transform="translate(-394.298 -241.668)" fill="#263238"/>
        </g>
        <g id="Group_1586" data-name="Group 1586" transform="translate(33.672 37.605)">
          <path id="Path_2853" data-name="Path 2853" d="M390.063,246.482c-.01-.021-.026-.042-.037-.063-.383-.65-.745-1.269-1.081-1.841a5.673,5.673,0,0,0-1.023-1.448.547.547,0,0,0-.089-.063,1.086,1.086,0,0,0-1.091-.115c-.273.142-.3.336-.294.331.021.016.089-.142.336-.236a.99.99,0,0,1,1.012.231,5.988,5.988,0,0,1,.928,1.427c.331.577.687,1.2,1.06,1.857.761,1.312,1.458,2.492,1.978,3.336.074.121.142.231.21.336.021-.073.047-.147.073-.22-.037-.068-.073-.142-.115-.215C391.469,248.942,390.808,247.767,390.063,246.482Z" transform="translate(-386.447 -242.854)" fill="#263238"/>
        </g>
        <g id="Group_1587" data-name="Group 1587" transform="translate(30.514 39.38)">
          <path id="Path_2854" data-name="Path 2854" d="M381.625,250.473c.325,1.112.619,2.125.871,2.985a5.821,5.821,0,0,0,.414,1.222,5.641,5.641,0,0,0-.226-1.275c-.126-.561-.309-1.275-.525-2.067q-.126-.456-.268-.944c-.346-1.17-.692-2.214-.96-2.964a5.992,5.992,0,0,0-.5-1.191c-.016.005,0,.1.042.278.052.215.147.551.273.976C381,248.348,381.295,249.361,381.625,250.473Z" transform="translate(-380.429 -246.239)" fill="#263238"/>
        </g>
        <g id="Group_1588" data-name="Group 1588" transform="translate(28.33 42.371)">
          <path id="Path_2855" data-name="Path 2855" d="M376.314,251.94a5.346,5.346,0,0,0-.026,1.474,5.673,5.673,0,0,0,.11,1.469,3.379,3.379,0,0,0,.163-1.479A3.281,3.281,0,0,0,376.314,251.94Z" transform="translate(-376.264 -251.94)" fill="#263238"/>
        </g>
        <g id="Group_1589" data-name="Group 1589" transform="translate(6.572 33.412)">
          <path id="Path_2856" data-name="Path 2856" d="M341.614,235.087c-.126-.236-.3-.231-.3-.22-.01.021.131.058.2.262a.581.581,0,0,1,0,.367.853.853,0,0,1-.3.388c-.661.441-1.647,1.033-2.691,1.715-.451.294-.881.572-1.28.839-.53.351-1,.671-1.39.934a6.276,6.276,0,0,0-1.06.8,6.29,6.29,0,0,0,1.165-.64c.7-.425,1.663-1.028,2.712-1.7s1.993-1.285,2.665-1.794a1.057,1.057,0,0,0,.3-.409.609.609,0,0,0,.031-.089A.656.656,0,0,0,341.614,235.087Z" transform="translate(-334.789 -234.863)" fill="#263238"/>
        </g>
        <g id="Group_1590" data-name="Group 1590" transform="translate(2.544 29.37)">
          <path id="Path_2857" data-name="Path 2857" d="M335.881,227.49c.163-.194.2-.325.194-.33a2.777,2.777,0,0,1-1.133.745c-.4.147-.9.257-1.453.4s-1.165.309-1.8.477c-.766.21-1.479.409-2.114.588-.425.121-.808.236-1.138.336a7.159,7.159,0,0,0-1.327.462,7.376,7.376,0,0,0,1.374-.273c.839-.2,2-.5,3.273-.85.63-.173,1.233-.341,1.794-.5a12.665,12.665,0,0,0,1.458-.467,3.128,3.128,0,0,0,.441-.236A1.845,1.845,0,0,0,335.881,227.49Z" transform="translate(-327.11 -227.158)" fill="#263238"/>
        </g>
        <g id="Group_1591" data-name="Group 1591" transform="translate(1.427 24.826)">
          <path id="Path_2858" data-name="Path 2858" d="M333.992,218.713a7.245,7.245,0,0,0-1.322-.052c-.818-.005-1.941-.011-3.184-.037s-2.371-.068-3.184-.1a7.078,7.078,0,0,0-1.322-.005,1.277,1.277,0,0,0,.42.094c.22.031.525.068.892.1.813.079,1.941.152,3.19.184.43.01.834.01,1.228.01.75-.005,1.432-.021,1.967-.052A5.821,5.821,0,0,0,333.992,218.713Z" transform="translate(-324.98 -218.496)" fill="#263238"/>
        </g>
        <g id="Group_1592" data-name="Group 1592" transform="translate(6.993 23.914)">
          <path id="Path_2859" data-name="Path 2859" d="M337.31,217.226a5.785,5.785,0,0,0,1.768.173,11.613,11.613,0,0,0-3.489-.614A6.2,6.2,0,0,0,337.31,217.226Z" transform="translate(-335.59 -216.757)" fill="#263238"/>
        </g>
        <g id="Group_1593" data-name="Group 1593" transform="translate(16.255 8.576)">
          <path id="Path_2860" data-name="Path 2860" d="M354.869,190.95a9.628,9.628,0,0,0-.761-1.736,9.787,9.787,0,0,0-.85-1.694,5.15,5.15,0,0,0,.6,1.81A5,5,0,0,0,354.869,190.95Z" transform="translate(-353.247 -187.519)" fill="#263238"/>
        </g>
        <g id="Group_1594" data-name="Group 1594" transform="translate(30.489 2.382)">
          <path id="Path_2861" data-name="Path 2861" d="M380.385,183.678a42.709,42.709,0,0,0,1.794-4.4c.53-1.416.981-2.681,1.259-3.5-.052-.021-.1-.047-.152-.068-.336.8-.829,2.056-1.359,3.478A40.562,40.562,0,0,0,380.385,183.678Z" transform="translate(-380.38 -175.71)" fill="#263238"/>
        </g>
        <g id="Group_1595" data-name="Group 1595" transform="translate(31.718 5.968)">
          <path id="Path_2862" data-name="Path 2862" d="M384.353,184.553a9.077,9.077,0,0,0,1.327-2,36.581,36.581,0,0,0-2.954,3.761A8.71,8.71,0,0,0,384.353,184.553Z" transform="translate(-382.723 -182.547)" fill="#263238"/>
        </g>
        <g id="Group_1596" data-name="Group 1596" transform="translate(36.835 9.328)">
          <path id="Path_2863" data-name="Path 2863" d="M394.53,190.393a7.316,7.316,0,0,0,1.8-1.437,14.614,14.614,0,0,0-1.946,1.207,14.92,14.92,0,0,0-1.9,1.269A7.288,7.288,0,0,0,394.53,190.393Z" transform="translate(-392.478 -188.951)" fill="#263238"/>
        </g>
        <g id="Group_1597" data-name="Group 1597" transform="translate(41.016 14.855)">
          <path id="Path_2864" data-name="Path 2864" d="M401.854,199.987a4.286,4.286,0,0,0-1.406.813,5.811,5.811,0,0,0,1.516-.567,5.717,5.717,0,0,0,1.443-.734A4.431,4.431,0,0,0,401.854,199.987Z" transform="translate(-400.447 -199.487)" fill="#263238"/>
        </g>
        <g id="Group_1598" data-name="Group 1598" transform="translate(12.627 11.641)">
          <circle id="Ellipse_26" data-name="Ellipse 26" cx="13.078" cy="13.078" r="13.078" fill="#fafafa"/>
        </g>
      </g>
      <g id="Group_1601" data-name="Group 1601" transform="translate(31.878 51.955)">
        <g id="Group_1600" data-name="Group 1600">
          <path id="Path_2865" data-name="Path 2865" d="M383.034,270.21a1.362,1.362,0,0,1,.063.315q.047.354.126.913c.1.829.247,1.967.425,3.363.357,2.838.871,6.762,1.5,11.079s1.259,8.225,1.736,11.048c.236,1.385.43,2.518.567,3.342.058.372.11.672.147.908a1.23,1.23,0,0,1,.031.32,1.624,1.624,0,0,1-.089-.309c-.052-.236-.115-.535-.2-.9-.168-.782-.393-1.92-.656-3.326-.53-2.817-1.191-6.715-1.82-11.042s-1.112-8.252-1.422-11.1c-.157-1.422-.267-2.576-.341-3.373-.031-.378-.052-.682-.073-.918A1.828,1.828,0,0,1,383.034,270.21Z" transform="translate(-383.027 -270.21)" fill="#263238"/>
        </g>
      </g>
      <g id="Group_1603" data-name="Group 1603" transform="translate(24.275 49.201)">
        <g id="Group_1602" data-name="Group 1602">
          <path id="Path_2866" data-name="Path 2866" d="M368.543,264.96c.073-.005.7,10.67,1.4,23.837s1.2,23.853,1.128,23.853-.7-10.67-1.4-23.842S368.464,264.965,368.543,264.96Z" transform="translate(-368.535 -264.96)" fill="#263238"/>
        </g>
      </g>
      <g id="Group_1605" data-name="Group 1605" transform="translate(13.563 51.53)">
        <g id="Group_1604" data-name="Group 1604">
          <path id="Path_2867" data-name="Path 2867" d="M354.659,269.4a1.338,1.338,0,0,1-.042.32c-.042.236-.1.53-.168.9-.163.813-.383,1.925-.656,3.289-.588,2.8-1.385,6.615-2.271,10.827-.913,4.207-1.742,8.016-2.35,10.812-.31,1.353-.561,2.466-.745,3.268-.089.362-.157.656-.215.887a1.152,1.152,0,0,1-.094.3,1.287,1.287,0,0,1,.042-.315c.042-.236.1-.53.168-.9.163-.813.383-1.925.656-3.289.588-2.8,1.385-6.62,2.272-10.833.913-4.207,1.742-8.016,2.35-10.812.309-1.353.561-2.466.745-3.268.089-.362.157-.656.215-.887A2.87,2.87,0,0,1,354.659,269.4Z" transform="translate(-348.114 -269.4)" fill="#263238"/>
        </g>
      </g>
      <g id="Group_1606" data-name="Group 1606" transform="translate(18.632 17.024)">
        <path id="Path_2868" data-name="Path 2868" d="M365.862,203.973,367.7,207.7a.616.616,0,0,0,.472.341l4.113.6a.627.627,0,0,1,.346,1.07l-2.974,2.9a.622.622,0,0,0-.178.556l.7,4.1a.628.628,0,0,1-.913.661l-3.677-1.936a.634.634,0,0,0-.582,0l-3.677,1.936a.629.629,0,0,1-.913-.661l.7-4.1a.627.627,0,0,0-.178-.556l-2.974-2.9a.627.627,0,0,1,.346-1.07l4.113-.6a.628.628,0,0,0,.472-.341l1.841-3.725A.625.625,0,0,1,365.862,203.973Z" transform="translate(-357.777 -203.622)" fill="#ffa41b"/>
      </g>
      <g id="Group_1607" data-name="Group 1607" transform="translate(29.524 16.215)">
        <path id="Path_2869" data-name="Path 2869" d="M380.145,202.08l.22.713a1,1,0,0,0,.661.661l.713.22-.719.247a1.018,1.018,0,0,0-.63.624l-.252.729-.283-.761a.994.994,0,0,0-.63-.608l-.687-.226.677-.231a.988.988,0,0,0,.614-.588Z" transform="translate(-378.54 -202.08)" fill="#ffa41b"/>
      </g>
      <g id="Group_1628" data-name="Group 1628" transform="translate(0.268)" opacity="0.3">
        <g id="Group_1608" data-name="Group 1608" transform="translate(29.994 2.324)">
          <path id="Path_2870" data-name="Path 2870" d="M380.048,183.275a1.29,1.29,0,0,0-.1.519c.273.089.54.184.808.289a1.907,1.907,0,0,0,.4-.367l5.319-6.688a1.545,1.545,0,0,0,.472-1.1c-.005-.021-.011-.037-.016-.058-.96-.079-2.062.4-3.022.1a7.047,7.047,0,0,1-.677-.241c-.273.824-.729,2.088-1.259,3.5a40.109,40.109,0,0,1-1.794,4.4,42.5,42.5,0,0,1,1.537-4.49c.535-1.422,1.023-2.675,1.359-3.478-.042-.021-.079-.042-.115-.063l-.068.058Q381.467,179.458,380.048,183.275Zm2.77-2.193a13.19,13.19,0,0,1,1.537-1.831,14.719,14.719,0,0,1-2.959,3.761A14.253,14.253,0,0,1,382.818,181.082Z" transform="translate(-379.947 -175.6)" fill="#ffa41b"/>
        </g>
        <g id="Group_1609" data-name="Group 1609" transform="translate(34.287 5.65)">
          <path id="Path_2871" data-name="Path 2871" d="M390.58,185.775c.886-.96,1.7-1.82,2.3-2.434a6.658,6.658,0,0,1,1.012-.955,6.908,6.908,0,0,1-.865,1.086c-.561.645-1.353,1.527-2.235,2.487s-1.7,1.82-2.3,2.434a1.04,1.04,0,0,0-.362.609c.1.073.2.152.3.231,3.069-1.815,6.594-4.113,9.327-6.138a2.34,2.34,0,0,0-.86-.509l-.011-.005c-.881-.3-1.967-.294-2.838-.64-1.5,1.584-3.3,3.494-4.868,5.382C389.594,186.855,390.071,186.331,390.58,185.775Z" transform="translate(-388.13 -181.94)" fill="#ffa41b"/>
        </g>
        <g id="Group_1610" data-name="Group 1610" transform="translate(38.209 11.971)">
          <path id="Path_2872" data-name="Path 2872" d="M401.5,194.5a5.946,5.946,0,0,1-1.033.651c-.65.378-1.547.892-2.523,1.49-.96.608-1.936,1.081-2.214,1.757a1.384,1.384,0,0,0-.126.651c.073.115.136.236.2.357,2.508-.525,6.416-2.34,9.275-3.494-.871-.7-2.177-.97-2.8-1.92-.3.184-.614.367-.934.551C401.447,194.5,401.5,194.488,401.5,194.5Zm-1.841,3.127a5.812,5.812,0,0,1-1.516.567,4.086,4.086,0,0,1,1.406-.813,4.256,4.256,0,0,1,1.553-.483A6.157,6.157,0,0,1,399.663,197.625Z" transform="translate(-395.606 -193.99)" fill="#ffa41b"/>
        </g>
        <g id="Group_1611" data-name="Group 1611" transform="translate(39.811 17.663)">
          <path id="Path_2873" data-name="Path 2873" d="M405.338,205.559c-.65.262-1.558.614-2.565.981s-1.925.687-2.591.908a4.506,4.506,0,0,1-1.1.3c0-.005.005-.01.01-.016-.152.063-.289.126-.435.194a15.43,15.43,0,0,1,.346,1.569,3.292,3.292,0,0,0,.393.005c2.67-.063,7-.325,10.208-.509a4.329,4.329,0,0,0-.619-1.023,7.049,7.049,0,0,1-1.532-2.261,3.378,3.378,0,0,1-.115-.866c-.43.142-.881.294-1.348.446C405.821,205.354,405.6,205.449,405.338,205.559Z" transform="translate(-398.66 -204.84)" fill="#ffa41b"/>
        </g>
        <g id="Group_1612" data-name="Group 1612" transform="translate(40.251 25.164)">
          <path id="Path_2874" data-name="Path 2874" d="M404.961,219.686c-1.322-.1-2.518-.189-3.509-.267A8.492,8.492,0,0,1,400,219.25a5.632,5.632,0,0,1,1.149-.031c-.435-.031-.876-.058-1.311-.073-.084-.005-.163-.005-.247-.005-.01.435-.042.86-.089,1.285,2.759,1.028,6.83,2.476,9.993,3.635a1.59,1.59,0,0,0,.178-.687c.037-1.254-1.474-2.214-1.4-3.426-.388-.031-.782-.063-1.17-.1C406.44,219.8,405.727,219.743,404.961,219.686Z" transform="translate(-399.5 -219.14)" fill="#ffa41b"/>
        </g>
        <g id="Group_1613" data-name="Group 1613" transform="translate(38.935 29.602)">
          <path id="Path_2875" data-name="Path 2875" d="M399.445,228.55q-.732-.386-1.448-.755c-.136-.068-.273-.136-.409-.194a14.427,14.427,0,0,1-.6,1.474c2.424,1.857,5.608,5.115,8.3,7.481a2.255,2.255,0,0,0,.834-.782c.656-1.144-.236-2.534-.362-3.845-.813-.4-2.051-1.044-3.426-1.778C401.223,229.541,400.206,228.98,399.445,228.55Z" transform="translate(-396.99 -227.6)" fill="#ffa41b"/>
        </g>
        <g id="Group_1614" data-name="Group 1614" transform="translate(36.7 33.768)">
          <path id="Path_2876" data-name="Path 2876" d="M397.813,238.861c-1.29-.918-2.455-1.768-3.284-2.387-.593-.446-1.012-.771-1.2-.934-.194.252-.393.5-.6.734a4.506,4.506,0,0,0,.65.8c1.8,1.894,4.637,5.136,6.757,7.449.5-.818.378-2.009.965-2.812a1.955,1.955,0,0,1,.268-.283c-.268-.215-.556-.441-.85-.671C399.749,240.225,398.815,239.574,397.813,238.861Z" transform="translate(-392.73 -235.54)"/>
        </g>
        <g id="Group_1615" data-name="Group 1615" transform="translate(33.196 36.91)">
          <path id="Path_2877" data-name="Path 2877" d="M389.607,245.926c-.372-.656-.729-1.275-1.06-1.857a6.1,6.1,0,0,0-.929-1.427,1,1,0,0,0-1.012-.231c-.247.094-.315.252-.336.236-.01.005.021-.189.294-.33a1.073,1.073,0,0,1,1.091.115,8.24,8.24,0,0,0-.771-.9q-.409.291-.834.551a68.338,68.338,0,0,0,3.667,11.132,1.578,1.578,0,0,0,1.217-.273c.934-.713.551-2.214.865-3.336-.068-.1-.136-.215-.21-.336C391.065,248.418,390.362,247.238,389.607,245.926Z" transform="translate(-386.05 -241.53)" fill="#ffa41b"/>
        </g>
        <g id="Group_1616" data-name="Group 1616" transform="translate(30.075 39.291)">
          <path id="Path_2878" data-name="Path 2878" d="M382.524,253.325a5.657,5.657,0,0,1,.226,1.275,6.384,6.384,0,0,1-.415-1.222c-.252-.86-.546-1.868-.871-2.985s-.63-2.119-.887-2.98c-.126-.425-.22-.755-.273-.976-.052-.126-.1-.247-.157-.367-.136,2.99.047,7.182.247,10.544a13.532,13.532,0,0,1,2.523-1.694c-.241-1.165-.561-2.424-.928-3.667C382.219,252.05,382.4,252.764,382.524,253.325Z" transform="translate(-380.1 -246.07)" fill="#ffa41b"/>
        </g>
        <g id="Group_1617" data-name="Group 1617" transform="translate(21.503 39.627)">
          <path id="Path_2879" data-name="Path 2879" d="M368.109,254.689a8.891,8.891,0,0,1-.3,1.511,8.668,8.668,0,0,1,.1-1.537c.1-.944.257-2.245.451-3.683.1-.713.194-1.39.278-2.025a3.03,3.03,0,0,0-.068-1.589,1.383,1.383,0,0,0-.572-.656c-.1,0-.21.01-.315.01-.173,0-.346-.005-.514-.01a.274.274,0,0,0-.058.052,2.984,2.984,0,0,0-.619,1.2c-.913,2.7-1.826,6.73-2.738,9.637,1.081-.225,1.778-1.547,2.9-1.616a2.089,2.089,0,0,1,1.369.514c.089-.892.168-1.873.246-2.88C368.219,254.012,368.161,254.374,368.109,254.689Z" transform="translate(-363.76 -246.71)" fill="#ffa41b"/>
        </g>
        <g id="Group_1618" data-name="Group 1618" transform="translate(12.805 38.971)">
          <path id="Path_2880" data-name="Path 2880" d="M353.69,249.935c.32-.656.635-1.28.871-1.857a4.11,4.11,0,0,0,.352-1.589,2.481,2.481,0,0,0-.22-1.028.872.872,0,0,0-.525.336c-2.035,2.261-4.9,5.907-6.988,8.724,1.154.435,2.733-.3,4.1-.157.121-.231.351-.619.645-1.138C352.394,252.4,353.04,251.241,353.69,249.935Z" transform="translate(-347.18 -245.46)" fill="#ffa41b"/>
        </g>
        <g id="Group_1619" data-name="Group 1619" transform="translate(7.968 36.511)">
          <path id="Path_2881" data-name="Path 2881" d="M342.393,246.729c.372-.435,1.311-1.422,2.4-2.586,1.186-1.264,2.167-2.35,2.513-2.665-.341-.22-.677-.462-1-.708a16.152,16.152,0,0,1-1.311,1.107,7.05,7.05,0,0,1-1.637,1.1,7.346,7.346,0,0,1,1.469-1.311c.441-.341.85-.635,1.149-.834a7.678,7.678,0,0,0-1.773,1.07l-6.242,4.637c1.081.189,2.3.236,2.974,1.033a1.943,1.943,0,0,1,.257.4C341.559,247.579,341.963,247.159,342.393,246.729Z" transform="translate(-337.96 -240.77)" fill="#ffa41b"/>
        </g>
        <g id="Group_1620" data-name="Group 1620" transform="translate(1.988 33.039)">
          <path id="Path_2882" data-name="Path 2882" d="M334.607,237.261c1.039-.682,2.03-1.275,2.691-1.715a.853.853,0,0,0,.3-.388.582.582,0,0,0,0-.367c-.068-.2-.21-.236-.2-.262-.01-.016.173-.016.3.22a.66.66,0,0,1,.047.451.448.448,0,0,1-.031.089,1.258,1.258,0,0,0,.409-.441c-.173-.226-.341-.456-.5-.693a1.844,1.844,0,0,0-.629.084c-2.807.74-7.1,2.345-10.439,3.583,1.075.766,2.964.435,3.641,1.616a1.654,1.654,0,0,1,.168.456c.918-.561,1.941-1.175,2.959-1.794C333.726,237.833,334.156,237.555,334.607,237.261Z" transform="translate(-326.56 -234.151)" fill="#ffa41b"/>
        </g>
        <g id="Group_1621" data-name="Group 1621" transform="translate(0 28.427)">
          <path id="Path_2883" data-name="Path 2883" d="M329.626,227.93c.635-.168,1.233-.33,1.8-.477s1.054-.257,1.453-.4a2.829,2.829,0,0,0,1.133-.745c.01.005-.031.142-.194.33a1.912,1.912,0,0,1-.425.357l.226-.079a1.282,1.282,0,0,0,.525-.3c-.094-.273-.184-.546-.262-.824a1.756,1.756,0,0,0-.7-.121q-5.2-.189-10.408-.3c.483.818,1.558,1.18,2,2.025a2.418,2.418,0,0,1,.115,1.721c.824-.184,1.721-.383,2.628-.582C328.147,228.334,328.866,228.135,329.626,227.93Z" transform="translate(-322.77 -225.36)" fill="#ffa41b"/>
        </g>
        <g id="Group_1622" data-name="Group 1622" transform="translate(0.063 20.055)">
          <path id="Path_2884" data-name="Path 2884" d="M323.981,214.195a7.1,7.1,0,0,1,1.322.005c.813.031,1.941.073,3.184.1s2.371.032,3.184.037a7.2,7.2,0,0,1,1.322.052,6.054,6.054,0,0,1-1.317.142c-.535.031-1.217.047-1.967.052,1.29.047,2.528.068,3.567.01.026,0,.058-.005.089-.005-.005-.173-.016-.346-.016-.525,0-.247.005-.493.021-.74-.026-.016-.047-.031-.073-.047-2.869-1.71-7-2.943-10.408-3.877a1.245,1.245,0,0,0,.8,1.343l-.074-.472a1.973,1.973,0,0,1,.808,2.392,6.368,6.368,0,0,1-.818,1.579c.257.016.525.026.8.042A1.18,1.18,0,0,1,323.981,214.195Zm7.339-.74a5.918,5.918,0,0,1,1.721.441,11.609,11.609,0,0,1-3.488-.614A5.965,5.965,0,0,1,331.32,213.455Z" transform="translate(-322.889 -209.4)" fill="#ffa41b"/>
        </g>
        <g id="Group_1623" data-name="Group 1623" transform="translate(1.915 13.031)">
          <path id="Path_2885" data-name="Path 2885" d="M326.929,200.065a8.831,8.831,0,0,1,1.4.6l1.081.5c.971.414,1.973.834,2.953,1.222a16.079,16.079,0,0,0,2.791.74,1.06,1.06,0,0,0,.567-.094.466.466,0,0,0,.079-.063c.1-.31.215-.614.336-.913-.483-.241-1.217-.635-2.035-1.107a15.74,15.74,0,0,1-2.476-1.579,16.107,16.107,0,0,1,2.612,1.343c.3.173.588.341.85.5a90.884,90.884,0,0,0-8.273-5.209c-.168.986.21,2.25-.1,3.268a2.669,2.669,0,0,1-.289.619q.307.134.629.268C326.976,200.112,326.924,200.07,326.929,200.065Z" transform="translate(-326.42 -196.01)" fill="#ffa41b"/>
        </g>
        <g id="Group_1624" data-name="Group 1624" transform="translate(6.479 7.087)">
          <path id="Path_2886" data-name="Path 2886" d="M336.132,188.572a7.1,7.1,0,0,1,.949.86c.572.546,1.364,1.29,2.282,2.067s1.778,1.443,2.413,1.915c.073.058.147.11.215.163.184-.252.367-.5.566-.74-.01-.016-.021-.037-.031-.052-.278-.33-.624-.771-.991-1.285a9.074,9.074,0,0,1-1.248-2.067,4.785,4.785,0,0,1,.8.976,56.345,56.345,0,0,0-4.176-5.728,1.937,1.937,0,0,0-1.138.614c-.582.708-.367,1.815-.65,2.66.54.483,1.149,1.012,1.794,1.568A4.906,4.906,0,0,1,336.132,188.572Z" transform="translate(-335.12 -184.68)" fill="#ffa41b"/>
        </g>
        <g id="Group_1625" data-name="Group 1625" transform="translate(11.562 2.497)">
          <path id="Path_2887" data-name="Path 2887" d="M347.895,182.771c1.317,1.658,2.413,2.985,2.382,3.069.241-.163.488-.325.74-.472-.01-.037-.026-.068-.037-.1-.991-2.513-2.78-6.463-3.971-9.338a3.769,3.769,0,0,0-.561.289c-.876.546-1.159,1.663-1.637,2.591.3.4.651.866,1.023,1.369C346.263,180.7,347.018,181.669,347.895,182.771Zm1.353-.761a10.029,10.029,0,0,1,.85,1.694,9.624,9.624,0,0,1,.761,1.736,5.075,5.075,0,0,1-1.007-1.621A4.991,4.991,0,0,1,349.248,182.01Z" transform="translate(-344.81 -175.93)" fill="#ffa41b"/>
        </g>
        <g id="Group_1626" data-name="Group 1626" transform="translate(19.174 0.535)">
          <path id="Path_2888" data-name="Path 2888" d="M359.367,175.112a6.052,6.052,0,0,1,.252,1.165c.126.724.3,1.721.514,2.822.189.96.372,1.82.519,2.508.073.226.142.43.215.619.283-.094.566-.184.855-.257a12.633,12.633,0,0,1-.262-1.736,8.838,8.838,0,0,1-.184-1.773,4.482,4.482,0,0,1,.451,1.736c.047.351.068.671.079.949-.01-2.712.058-6.2.052-8.955a17.531,17.531,0,0,0-1.464,2.177,1.446,1.446,0,0,1-1.075.6l.032.2C359.357,175.138,359.362,175.112,359.367,175.112Z" transform="translate(-359.32 -172.19)" fill="#ffa41b"/>
        </g>
        <g id="Group_1627" data-name="Group 1627" transform="translate(25.684)">
          <path id="Path_2889" data-name="Path 2889" d="M371.861,177.455c-.026,1.521-.079,2.848-.131,3.525.357.005.713.026,1.065.052a8.2,8.2,0,0,0,1.149-2.9c.462-1.841,1.1-4.8,1.61-6.961a2.173,2.173,0,0,0-.923.273c-.808.446-1.789,2.4-2.3,2.4a.659.659,0,0,1-.472-.247c-.005.073-.01.147-.016.215C371.882,174.459,371.893,175.844,371.861,177.455Z" transform="translate(-371.73 -171.17)" fill="#ffa41b"/>
        </g>
      </g>
    </g>
  </g>
</svg>
