<svg xmlns="http://www.w3.org/2000/svg" width="498.843" height="454.46" viewBox="0 0 498.843 454.46"><defs><style>.a{fill:#ebebeb;}.b{fill:#263238;}.c{fill:#ffa41b;}.d{opacity:0.3;}.e{fill:#ffbe9d;}.f{fill:#fafafa;}.g{fill:#e8505b;}.h{fill:#b78876;}.i{fill:#455a64;}.j{fill:#e0e0e0;}.k{fill:#000839;}.l{fill:#aa6550;}.m{fill:#d59885;}.n{fill:#fff;}.o{fill:#f5f5f5;}.p,.q{fill:none;}.p{stroke:#4e585d;stroke-miterlimit:10;}.r{fill:#005082;}</style></defs><g transform="translate(-41.587 -52.85)"><g transform="translate(163.864 123.42)"><g transform="translate(0 44.109)"><path class="a" d="M189.65,228.65a23.653,23.653,0,1,0-.28-37.13l-.01-.01-5.19-4.03-7.71,2.4.88-7.71-6.5-5.05-7.71,2.4.88-7.71-5.59-4.34-4.7,1.46.54-4.7-3.25-2.53-7.38.73-.99,11.34,38.66,30.05A23.732,23.732,0,0,0,189.65,228.65Zm28.17-8.07a6.784,6.784,0,1,1-1.19-9.52A6.782,6.782,0,0,1,217.82,220.58Z" transform="translate(-142.64 -161.7)"/></g><g transform="translate(41.85)"><path class="a" d="M220.81,138.27a12.664,12.664,0,1,0-19.87-.34h0l-2.23,2.73,1.19,4.16-4.11-.57L193,147.66l1.19,4.16-4.11-.57-2.4,2.94.72,2.53-2.51-.35-1.4,1.71.29,3.96,6.05.68,16.59-20.3A12.72,12.72,0,0,0,220.81,138.27Zm-3.96-15.18a3.631,3.631,0,1,1-5.11.51A3.633,3.633,0,0,1,216.85,123.09Z" transform="translate(-184.49 -117.591)"/></g></g><g transform="translate(45.37 495.16)"><path class="b" d="M500.79,469.2c0,.14-101.954.26-227.7.26-125.792,0-227.722-.12-227.722-.26s101.942-.26,227.722-.26C398.836,468.94,500.79,469.06,500.79,469.2Z" transform="translate(-45.37 -468.94)"/></g><g transform="translate(54.871 241.296)"><g transform="translate(0 50.394)"><g transform="translate(293.919 166.72)"><path class="b" d="M348.79,432.99l24.75,36,8.85.21-16.22-37.01Z" transform="translate(-348.79 -432.19)"/></g><g transform="translate(19.709 169.37)"><path class="b" d="M87.62,434.84,74.58,468.83H81.1l22.77-33.85Z" transform="translate(-74.58 -434.84)"/></g><g transform="translate(27.15 1.948)"><path class="c" d="M82.03,311.3l.96,43.99a11.627,11.627,0,0,0,11.36,11.37l246.19,5.48a11.627,11.627,0,0,0,11.89-11.62V307.53A31.317,31.317,0,0,0,325.4,276.5c-45.07-6.2-138.02-15.73-213.14-2.19A36.774,36.774,0,0,0,82.03,311.3Z" transform="translate(-82.021 -267.418)"/></g><g transform="translate(0 56.186)"><path class="c" d="M80.92,326.67s-20.28-9.39-24.43,0,.46,20.91,5.07,27.36,4.53,85.74,4.53,85.74l307.58-3.29,3.64-76.27s14.75-18.17,13.83-26-13.37-19.24-27.66-7.54-17.98,36.12-17.98,36.12l-245.23,1.84C100.28,364.64,101.1,330.3,80.92,326.67Z" transform="translate(-54.871 -321.656)"/></g><g transform="translate(44.119 112.3)"><path class="b" d="M342.38,378.03c0,.14-54.49.26-121.69.26-67.22,0-121.7-.12-121.7-.26s54.48-.26,121.7-.26C287.89,377.77,342.38,377.88,342.38,378.03Z" transform="translate(-98.99 -377.77)"/></g><g transform="translate(24.608 60.587)"><path class="b" d="M99,411.6a.75.75,0,0,1-.03-.24c-.01-.19-.02-.42-.03-.71-.02-.62-.04-1.54-.05-2.72-.01-2.41-.01-5.82-.03-10.02-.01-8.46.06-20.14-.33-33.03a141.851,141.851,0,0,0-1.41-18.08c-.18-.66-.36-1.32-.53-1.96-.25-.63-.49-1.25-.76-1.86-.53-1.21-1.07-2.37-1.66-3.46a36.982,36.982,0,0,0-3.74-5.76,26.667,26.667,0,0,0-3.97-4.03,20.974,20.974,0,0,0-3.59-2.31,33.018,33.018,0,0,0-3.39-1.36,1.119,1.119,0,0,1,.24.04q.27.075.69.18a14.982,14.982,0,0,1,2.56.96,20.088,20.088,0,0,1,3.69,2.27,26.546,26.546,0,0,1,4.08,4.03,36.355,36.355,0,0,1,3.84,5.79c.6,1.09,1.16,2.26,1.7,3.48.27.61.52,1.24.78,1.87.18.67.37,1.35.56,2.03a136.623,136.623,0,0,1,1.46,18.16c.39,12.91.26,24.6.17,33.05-.06,4.19-.11,7.6-.14,10.02-.02,1.15-.03,2.06-.04,2.72-.01.29-.02.52-.02.71A1.555,1.555,0,0,0,99,411.6Z" transform="translate(-79.479 -326.057)"/></g><g transform="translate(20.967 78.392)"><path class="b" d="M78.53,344.37a1.5,1.5,0,0,1,.82-.25A3.527,3.527,0,0,1,82.71,346a3.1,3.1,0,0,1,.29,1.9,3.729,3.729,0,0,1-2.87,3.07,3.8,3.8,0,0,1-3.8-1.81,3.356,3.356,0,0,1-.49-1.86,3.79,3.79,0,0,1,.45-1.6,3.641,3.641,0,0,1,1.69-1.62,1.625,1.625,0,0,1,.83-.21c.01.04-.28.12-.73.39a3.752,3.752,0,0,0-1.45,1.61,3.1,3.1,0,0,0,.12,3.03,3.359,3.359,0,0,0,3.3,1.55,3.291,3.291,0,0,0,2.49-2.63,2.831,2.831,0,0,0-1.14-2.77,3.408,3.408,0,0,0-2.03-.72C78.83,344.32,78.54,344.42,78.53,344.37Z" transform="translate(-75.838 -343.862)"/></g><g transform="translate(22.228 85.308)"><path class="b" d="M79.92,364.11a4.866,4.866,0,0,1-1.39-1.64,9.812,9.812,0,0,1-1.43-4.99,10.076,10.076,0,0,1,1.31-5.03,4.76,4.76,0,0,1,1.35-1.67c.07.05-.46.69-1.03,1.85a10.536,10.536,0,0,0,.11,9.67C79.45,363.44,79.99,364.06,79.92,364.11Z" transform="translate(-77.1 -350.778)"/></g><g transform="translate(20.892 68.949)"><path class="b" d="M76.7,334.42a9.187,9.187,0,0,1-.31,1.49,9.216,9.216,0,0,0,1.46,6.87,12.68,12.68,0,0,1,.89,1.24c-.04.04-.55-.27-1.18-1.02a7.931,7.931,0,0,1-1.62-3.4,8.014,8.014,0,0,1,.1-3.77A3.19,3.19,0,0,1,76.7,334.42Z" transform="translate(-75.764 -334.419)"/></g><g transform="translate(15.829 80.003)"><path class="b" d="M70.71,345.48c.11-.1,1.05.84,2.46,1.56,1.41.75,2.71.97,2.69,1.12a4.535,4.535,0,0,1-2.93-.66A4.437,4.437,0,0,1,70.71,345.48Z" transform="translate(-70.7 -345.473)"/></g><g transform="translate(10.088 145.87)"><path class="b" d="M374.86,411.6c0,.14-69.38.26-154.94.26-85.59,0-154.96-.12-154.96-.26s69.36-.26,154.96-.26C305.49,411.34,374.86,411.45,374.86,411.6Z" transform="translate(-64.96 -411.34)"/></g><g transform="translate(286.178 97.58)"><path class="b" d="M341.31,363.05c.14,0,.26,10.86.26,24.26s-.12,24.26-.26,24.26-.26-10.86-.26-24.26S341.17,363.05,341.31,363.05Z" transform="translate(-341.05 -363.05)"/></g><g transform="translate(34.102 13.66)"><path class="b" d="M238.6,279.14s-.16.02-.48.04c-.34.01-.8.03-1.4.05-1.25.04-3.06.09-5.38.15-4.69.11-11.44.26-19.77.46-16.72.34-39.78.8-65.24,1.31-6.37.15-12.6.13-18.58.53a62.678,62.678,0,0,0-16.92,3.09,30.009,30.009,0,0,0-12.87,8.43,28.22,28.22,0,0,0-3.94,5.83,37.429,37.429,0,0,0-2.45,6.03,55.894,55.894,0,0,0-2.02,11.03c-.31,3.3-.34,6.16-.36,8.49s.04,4.15.07,5.37c.01.6.02,1.06.03,1.4,0,.32-.01.48-.01.48s-.02-.16-.05-.47c-.02-.34-.05-.8-.08-1.4-.06-1.23-.14-3.04-.17-5.38s-.01-5.2.27-8.51a56.418,56.418,0,0,1,1.96-11.11,37.579,37.579,0,0,1,2.44-6.11,28.455,28.455,0,0,1,3.97-5.93,30.228,30.228,0,0,1,13.03-8.6,63.087,63.087,0,0,1,17.05-3.15c6.01-.4,12.24-.39,18.61-.54,25.47-.45,48.53-.86,65.25-1.16,8.33-.12,15.08-.22,19.78-.29,2.32-.02,4.12-.04,5.38-.05h1.4C238.44,279.13,238.6,279.14,238.6,279.14Z" transform="translate(-88.974 -279.13)"/></g><g transform="translate(101.925 47.618)"><path class="b" d="M159.86,313.39c.02.05-.33.17-.85.56a4.567,4.567,0,0,0-1.55,2.17,3.893,3.893,0,0,0,.56,3.72,4.05,4.05,0,0,0,7.31-1.74,3.9,3.9,0,0,0-1.18-3.57,4.6,4.6,0,0,0-2.36-1.23c-.63-.11-1-.07-1.01-.11a2.147,2.147,0,0,1,1.03-.09,4.431,4.431,0,0,1,2.58,1.17,4.568,4.568,0,0,1,1.16,1.63,4.211,4.211,0,0,1,.24,2.3,4.505,4.505,0,0,1-8.16,1.95,4.126,4.126,0,0,1-.82-2.16,4.641,4.641,0,0,1,.3-1.98,4.531,4.531,0,0,1,1.78-2.21A2.193,2.193,0,0,1,159.86,313.39Z" transform="translate(-156.797 -313.088)"/></g><g transform="translate(99.688 56.613)"><path class="b" d="M155.65,339.31a12.693,12.693,0,0,1-.76-2.96,17.026,17.026,0,0,1,.16-7.38,10.136,10.136,0,0,1,4.31-5.94,6.845,6.845,0,0,1,2.09-.85,1.978,1.978,0,0,1,.82-.08,12.772,12.772,0,0,0-2.72,1.24,10.348,10.348,0,0,0-4.01,5.77,18.694,18.694,0,0,0-.29,7.19C155.49,338.15,155.73,339.29,155.65,339.31Z" transform="translate(-154.56 -322.083)"/></g><g transform="translate(101.401 32.478)"><path class="b" d="M159.29,297.95a22.92,22.92,0,0,0-1.47,2.21,8.741,8.741,0,0,0,2.58,11.27,23.751,23.751,0,0,0,2.28,1.35,1.786,1.786,0,0,1-.71-.15,7.1,7.1,0,0,1-1.78-.89,8.7,8.7,0,0,1-2.68-11.76,7.551,7.551,0,0,1,1.22-1.58C159.05,298.07,159.27,297.93,159.29,297.95Z" transform="translate(-156.272 -297.948)"/></g><g transform="translate(93.016 52.401)"><path class="b" d="M158.37,317.97a50.29,50.29,0,0,0-5.42,1.22,51.912,51.912,0,0,0-5.06,2.3,14.471,14.471,0,0,1,10.48-3.52Z" transform="translate(-147.887 -317.871)"/></g><g class="d" transform="translate(71.189 100.849)"><path d="M126.06,378.94a50.248,50.248,0,0,0,33.99,10.25q-3.795,17.64-7.58,35.27c-.67,3.14-1.3,6.63.34,9.38,2.3,3.87,7.65,4.25,12.14,4.19,5.01-.07,10.23-.19,14.67-2.51,6.29-3.29,9.67-10.24,12.11-16.9s4.55-13.8,9.57-18.81a38.991,38.991,0,0,0,22.15,12.61c2.51.46,5.34.6,7.35-.97,1.99-1.56,2.57-4.42,2.06-6.9a20.533,20.533,0,0,0-3.28-6.79q-7.32-11.355-14.63-22.7c-1.98-3.07-4.15-6.31-7.49-7.77-2.63-1.15-5.61-1.03-8.47-.87a390.049,390.049,0,0,0-70.87,10.72" transform="translate(-126.06 -366.319)"/></g><g class="d" transform="translate(50.486)"><path d="M204.28,266.4c-5.92,15.64-28.02,19.23-35.78,34.04-7.67,14.65,1.84,34.04-6.07,48.56-2.93,5.38-7.95,9.39-10.81,14.8-1.93,3.65-2.92,7.98-6.03,10.69-3.62,3.16-9.23,3.1-13.58,1.06s-7.7-5.7-10.79-9.37c-5.8-6.88-11.25-14.32-13.96-22.91-4.67-14.78-.39-31.48,8.97-43.83s23.27-20.67,37.94-25.65,30.2-6.88,45.62-8.32" transform="translate(-105.357 -265.47)"/></g></g><g transform="translate(39.229)"><g transform="translate(39.079)"><path class="b" d="M133.18,225.27a24.436,24.436,0,0,1,8.97-8.32,15.963,15.963,0,0,1,11.99-1.2,11.886,11.886,0,0,1,8.02,8.64c.63,3.2-.22,6.79,1.43,9.6,1.9,3.24,6.49,4.27,8.11,7.66a7.425,7.425,0,0,1-.48,6.53,20.518,20.518,0,0,1-4.39,5.14,10.748,10.748,0,0,1,2.74,2.46,3.734,3.734,0,0,1,.58,3.5,5.136,5.136,0,0,1-2.96,2.4,29.546,29.546,0,0,1-17.69,1.66c-1.58-.34-3.39-.77-4.69.19" transform="translate(-133.18 -215.076)"/></g><g transform="translate(68.31 15.454)"><path class="e" d="M173.21,237.14l-3.23,9.8,21.87,12.41-21.98.71,1.64,17.83,42.34-10.39c0-.02,2.54-17.29-40.64-30.36l-3.04-.71a3.465,3.465,0,0,1-2.42-2.09h0a3.75,3.75,0,0,0-1.73-1.93l-3.61-1.88.02,2.86,1.98,2.33-.32,5.53a5.012,5.012,0,0,0,3.84,5.22l2.02.48" transform="translate(-162.41 -230.53)"/></g><g transform="translate(6.359 44.384)"><path class="f" d="M125.32,272.54c-.87,0-8.94,1.96-13.56,7.84s-11.3,27.93-11.3,27.93l17.02,2.94,7.34,18.44s43.45-5.69,41.14-7.98a87.716,87.716,0,0,0-7.05-5.82l10.02-33.31,12.02-6.48-4.04-16.64-24.18,3.27Z" transform="translate(-100.46 -259.46)"/><g transform="translate(5.9 30.55)"><path class="g" d="M166.86,290.27c0,.14-13.55.26-30.25.26s-30.25-.12-30.25-.26,13.54-.26,30.25-.26S166.86,290.13,166.86,290.27Z" transform="translate(-106.36 -290.01)"/></g><g transform="translate(3.19 40.34)"><path class="g" d="M164.15,300.06c0,.14-13.55.26-30.25.26s-30.25-.12-30.25-.26,13.54-.26,30.25-.26S164.15,299.92,164.15,300.06Z" transform="translate(-103.65 -299.8)"/></g><g transform="translate(17.86 50.91)"><path class="g" d="M164.15,310.63c0,.14-10.26.26-22.91.26s-22.92-.12-22.92-.26,10.26-.26,22.92-.26S164.15,310.49,164.15,310.63Z" transform="translate(-118.32 -310.37)"/></g><g transform="translate(21.37 61.1)"><path class="g" d="M167.66,320.82c0,.14-10.26.26-22.91.26s-22.92-.12-22.92-.26,10.26-.26,22.92-.26S167.66,320.67,167.66,320.82Z" transform="translate(-121.83 -320.56)"/></g><g transform="translate(47.77 17.38)"><path class="g" d="M178.51,277.1c0,.14-6.78.26-15.14.26s-15.14-.12-15.14-.26,6.78-.26,15.14-.26S178.51,276.96,178.51,277.1Z" transform="translate(-148.23 -276.84)"/></g><g transform="translate(48.98 7.177)"><path class="g" d="M179.61,266.72c0,.14-6.75.42-15.08.61s-15.09.24-15.09.09,6.75-.42,15.08-.61S179.61,266.58,179.61,266.72Z" transform="translate(-149.44 -266.636)"/></g><g transform="translate(16.773 35.89)"><path class="b" d="M121,295.35a67.955,67.955,0,0,1-1.62,8.18,66.852,66.852,0,0,1-2.13,8.06,67.339,67.339,0,0,1,1.63-8.18A67.11,67.11,0,0,1,121,295.35Z" transform="translate(-117.233 -295.35)"/></g></g><g transform="translate(57.499 205.134)"><g transform="translate(4.04)"><path class="h" d="M168.3,420.21l-12.66,39.93,15.26,1.53,14.34-34.69Z" transform="translate(-155.64 -420.21)"/></g><g transform="translate(0 19.47)"><path class="i" d="M179.47,446.14l-7.27,18.03s15.89,13.45,14.87,16.91L151.6,468.24l10.18-28.56Z" transform="translate(-151.6 -439.68)"/><g transform="translate(8.581 18.962)"><path class="j" d="M161.79,458.66a1.544,1.544,0,0,0-1.6,1.29,1.488,1.488,0,0,0,1.26,1.6,1.636,1.636,0,0,0,1.69-1.38,1.542,1.542,0,0,0-1.5-1.52" transform="translate(-160.181 -458.642)"/></g><g transform="translate(0 25.72)"><path class="j" d="M151.6,468.24l1.14-2.84,33.58,13.38s1.33,1.26.75,2.31Z" transform="translate(-151.6 -465.4)"/></g><g transform="translate(17.289 24)"><path class="b" d="M172.84,464.2c-.07.17-.96-.06-2.02.18-1.06.22-1.77.81-1.91.69-.15-.09.49-1.03,1.77-1.31S172.93,464.05,172.84,464.2Z" transform="translate(-168.889 -463.68)"/></g><g transform="translate(21.15 27.185)"><path class="b" d="M176,467.08c-.02.18-.88.2-1.73.72-.87.49-1.3,1.23-1.47,1.16-.17-.03.07-1.09,1.15-1.72C175.01,466.62,176.06,466.92,176,467.08Z" transform="translate(-172.75 -466.865)"/></g><g transform="translate(24.824 30.086)"><path class="b" d="M176.5,472.3c-.17-.02-.1-.97.69-1.76s1.73-.87,1.76-.7c.05.18-.66.5-1.3,1.15C176.99,471.64,176.68,472.35,176.5,472.3Z" transform="translate(-176.424 -469.766)"/></g><g transform="translate(18.688 18.784)"><path class="b" d="M174.04,459.91c-.13.13-.84-.4-1.84-.68-1-.31-1.88-.26-1.91-.44-.05-.16.92-.53,2.1-.18S174.17,459.8,174.04,459.91Z" transform="translate(-170.288 -458.464)"/></g><g transform="translate(19.146 12.023)"><path class="b" d="M175.44,456.24a3.586,3.586,0,0,1-1.77-.65,8.356,8.356,0,0,1-1.65-1.24,9.1,9.1,0,0,1-.82-.91,2.294,2.294,0,0,1-.39-.61.8.8,0,0,1,.25-.95.986.986,0,0,1,.9-.12,2.831,2.831,0,0,1,.63.33,6.894,6.894,0,0,1,.97.78,6.368,6.368,0,0,1,1.25,1.67,3.122,3.122,0,0,1,.52,1.82c-.1.03-.3-.66-.91-1.59a7.674,7.674,0,0,0-1.26-1.47,6.533,6.533,0,0,0-.91-.68c-.34-.23-.66-.35-.82-.22-.06.05-.07.07-.03.21a1.791,1.791,0,0,0,.28.45,11.069,11.069,0,0,0,.74.88,10.741,10.741,0,0,0,1.48,1.28C174.83,455.86,175.48,456.15,175.44,456.24Z" transform="translate(-170.746 -451.703)"/></g><g transform="translate(23.441 11.541)"><path class="b" d="M175.12,456.41a3.043,3.043,0,0,1,.15-1.89,6.112,6.112,0,0,1,1.79-2.77,1.565,1.565,0,0,1,1.46-.49.857.857,0,0,1,.56.76,2.716,2.716,0,0,1-.05.72,4.172,4.172,0,0,1-.43,1.2,4.349,4.349,0,0,1-1.42,1.56,2.452,2.452,0,0,1-1.82.55c-.03-.11.7-.22,1.55-.91a4.2,4.2,0,0,0,1.51-2.51c.08-.4.05-.75-.11-.76-.18-.07-.58.11-.83.36a5.955,5.955,0,0,0-.79.8,7.2,7.2,0,0,0-.99,1.65C175.28,455.7,175.23,456.42,175.12,456.41Z" transform="translate(-175.041 -451.221)"/></g></g></g><g transform="translate(122.25 157.124)"><path class="h" d="M216.35,382.62l18.9,32.85,15.46-9.92L231.73,372.2Z" transform="translate(-216.35 -372.2)"/><g transform="translate(13.05 23.96)"><path class="i" d="M245.37,396.16l9.76,16.81s20.37-4.28,22.48-1.34l-31.92,20.1L229.4,406.16Z" transform="translate(-229.4 -396.16)"/><g transform="translate(14.616 21.206)"><path class="j" d="M244.39,417.81a1.544,1.544,0,0,0,.04,2.06,1.487,1.487,0,0,0,2.04-.02,1.634,1.634,0,0,0-.05-2.18,1.549,1.549,0,0,0-2.12.25" transform="translate(-244.016 -417.366)"/></g><g transform="translate(14.75 14.618)"><path class="j" d="M245.69,431.73l-1.54-2.64,31.18-18.28s1.81-.28,2.28.83Z" transform="translate(-244.15 -410.779)"/></g><g transform="translate(24.17 16.293)"><path class="b" d="M255.55,412.49c.09.16-.64.72-1.09,1.7-.48.97-.45,1.9-.63,1.93-.16.06-.52-1.02.05-2.2S255.49,412.32,255.55,412.49Z" transform="translate(-253.57 -412.453)"/></g><g transform="translate(29.216 15.588)"><path class="b" d="M259.77,411.77c.13.13-.38.82-.49,1.81-.14.99.17,1.79.01,1.88-.13.12-.81-.73-.65-1.96S259.67,411.62,259.77,411.77Z" transform="translate(-258.616 -411.748)"/></g><g transform="translate(33.804 14.954)"><path class="b" d="M264.2,414.57c-.12.12-.83-.52-.97-1.63s.38-1.9.53-1.82c.17.07-.02.83.11,1.73C263.97,413.78,264.34,414.46,264.2,414.57Z" transform="translate(-263.204 -411.114)"/></g><g transform="translate(20.269 12.639)"><path class="b" d="M252.9,408.9c.02.18-.83.42-1.67,1.03-.86.6-1.36,1.32-1.52,1.24-.16-.06.14-1.05,1.15-1.76S252.9,408.73,252.9,408.9Z" transform="translate(-249.669 -408.799)"/></g><g transform="translate(15.337 8.745)"><path class="b" d="M250.87,405.55c.04.06-.51.55-1.6,1a8.464,8.464,0,0,1-2,.54,8.05,8.05,0,0,1-1.22.09,2.392,2.392,0,0,1-.72-.07.805.805,0,0,1-.59-.78,1.01,1.01,0,0,1,.46-.79,2.139,2.139,0,0,1,.65-.29,6.192,6.192,0,0,1,1.21-.28,6.456,6.456,0,0,1,2.08.04,3.137,3.137,0,0,1,1.76.71c-.04.1-.71-.17-1.82-.26a7.663,7.663,0,0,0-1.93.09,7.786,7.786,0,0,0-1.1.29c-.39.12-.68.3-.68.51,0,.08.01.1.15.16a1.642,1.642,0,0,0,.53.05,8.626,8.626,0,0,0,1.15-.05,10.182,10.182,0,0,0,1.92-.38A11.672,11.672,0,0,1,250.87,405.55Z" transform="translate(-244.737 -404.905)"/></g><g transform="translate(18.935 3.763)"><path class="b" d="M250.81,405.9c-.04.06-.7-.31-1.39-1.28a6.042,6.042,0,0,1-.88-1.89,5.855,5.855,0,0,1-.2-1.23,1.569,1.569,0,0,1,.51-1.45.875.875,0,0,1,.95.03,2.515,2.515,0,0,1,.53.48,4.33,4.33,0,0,1,.68,1.08,4.281,4.281,0,0,1,.36,2.08c-.1,1.22-.64,1.82-.68,1.77a16.152,16.152,0,0,0,.23-1.78,4.355,4.355,0,0,0-.44-1.82,3.817,3.817,0,0,0-.61-.91c-.26-.31-.56-.5-.67-.39a1.086,1.086,0,0,0-.23.88,6.51,6.51,0,0,0,.84,2.91C250.34,405.34,250.88,405.82,250.81,405.9Z" transform="translate(-248.335 -399.923)"/></g></g></g><g transform="translate(25.874 106.634)"><g transform="translate(0 3.314)"><path class="k" d="M160.09,377.99l37.11-25.24,23.41,45.57L241.9,386.8s-24.51-59.77-33.31-61.7c-4.93-1.08-61.47,9.72-61.47,9.72l-6.32-3.18-15.99-1.95-1.02,2.59a54.576,54.576,0,0,0,1.78,44.12l.78,1.58h33.74Z" transform="translate(-119.974 -325.024)"/></g><g transform="translate(22.666)"><path class="k" d="M147.06,346.42c.28,1.25,30.96,29.98,30.96,29.98l-17.7,59.49,26.42,5.05,26.53-71.66-48.49-47.57-22.14,9.32Z" transform="translate(-142.64 -321.71)"/></g><g transform="translate(40.125 31.038)"><path class="i" d="M197.21,352.75c.08.12-8.16,5.87-18.41,12.83s-18.62,12.52-18.7,12.4,8.16-5.86,18.41-12.83S197.12,352.63,197.21,352.75Z" transform="translate(-160.099 -352.748)"/></g><g transform="translate(77.233 31.019)"><path class="i" d="M216.26,389.83a9.583,9.583,0,0,1-.9-1.38c-.55-.9-1.31-2.22-2.24-3.87-1.85-3.29-4.31-7.89-6.91-13.03s-4.89-9.82-6.5-13.24c-.81-1.71-1.45-3.09-1.88-4.06a10.3,10.3,0,0,1-.62-1.52,11.032,11.032,0,0,1,.8,1.43c.52,1.02,1.2,2.36,2.02,3.98,1.74,3.45,4.07,8.06,6.64,13.16,2.6,5.13,5.01,9.75,6.77,13.09.85,1.6,1.56,2.93,2.1,3.94A11.421,11.421,0,0,1,216.26,389.83Z" transform="translate(-197.207 -352.729)"/></g><g transform="translate(57.437 44.069)"><path class="i" d="M183.57,365.78a45.7,45.7,0,0,1-2.84,6.37,48.121,48.121,0,0,1-3.31,6.15,93.881,93.881,0,0,1,6.15-12.52Z" transform="translate(-177.411 -365.779)"/></g></g><g transform="translate(0 93.244)"><path class="e" d="M100.46,308.32,94.5,330.48a11.608,11.608,0,0,0,.99,8.53h0a11.623,11.623,0,0,0,12.86,5.81l47.55-11.71-4.97-9.87-37.46,3.25,4.01-15.23Z" transform="translate(-94.101 -308.32)"/></g><g transform="translate(27.45 73.594)"><path class="i" d="M121.55,341.95l.62-3.22,25.77-4.63,7.49-39.73,47.86-5.7-8.05,42.41Z" transform="translate(-121.55 -288.67)"/><g transform="translate(53.544 21.824)"><path class="a" d="M176.92,315.77a2.695,2.695,0,1,1,2.78-2.18A2.514,2.514,0,0,1,176.92,315.77Z" transform="translate(-175.094 -310.494)"/></g></g><g transform="translate(14.48 6.024)"><g transform="translate(19.97 4.715)"><path class="e" d="M128.55,228.02l.09,2.87,1.08,43.01c.13,4.99,4.52,8.86,9.86,8.69h0c5.4-.18,9.74-4.41,9.69-9.45-.05-5.3,0-10.87,0-10.87s6.81-1.21,8.12-10.13c.65-4.43.34-11.69-.1-17.62a9.39,9.39,0,0,0-10.47-8.64Z" transform="translate(-128.55 -225.814)"/><g transform="translate(22.703 11.316)"><g transform="translate(0.316 1.309)"><path class="b" d="M153.85,239.47a1.139,1.139,0,0,1-1.09,1.16,1.092,1.092,0,0,1-1.19-1.02,1.154,1.154,0,0,1,1.09-1.17A1.113,1.113,0,0,1,153.85,239.47Z" transform="translate(-151.569 -238.439)"/></g><path class="b" d="M155.77,238.31c-.14.15-1.01-.48-2.24-.46-1.23,0-2.12.64-2.26.49-.07-.07.07-.34.46-.63a3.149,3.149,0,0,1,1.8-.58,3.09,3.09,0,0,1,1.79.55C155.71,237.97,155.84,238.24,155.77,238.31Z" transform="translate(-151.253 -237.13)"/></g><g transform="translate(10.633 11.686)"><g transform="translate(0.266 1.379)"><path class="b" d="M141.73,239.91a1.139,1.139,0,0,1-1.09,1.16,1.092,1.092,0,0,1-1.19-1.02,1.154,1.154,0,0,1,1.09-1.17A1.12,1.12,0,0,1,141.73,239.91Z" transform="translate(-139.449 -238.879)"/></g><path class="b" d="M143.7,238.68c-.14.15-1.01-.48-2.24-.46-1.23,0-2.12.64-2.26.49-.07-.07.07-.34.46-.63a3.149,3.149,0,0,1,1.8-.58,3.09,3.09,0,0,1,1.79.55C143.63,238.34,143.77,238.61,143.7,238.68Z" transform="translate(-139.183 -237.5)"/></g><g transform="translate(19.008 11.686)"><path class="b" d="M148.26,247.73a8.086,8.086,0,0,1,1.99-.38c.31-.04.61-.1.66-.32a1.591,1.591,0,0,0-.22-.93c-.3-.76-.62-1.55-.96-2.38a42.314,42.314,0,0,1-2.16-6.22,41.233,41.233,0,0,1,2.65,6.04c.32.83.63,1.63.92,2.39a1.87,1.87,0,0,1,.18,1.23.75.75,0,0,1-.51.46,2.275,2.275,0,0,1-.53.08A7.631,7.631,0,0,1,148.26,247.73Z" transform="translate(-147.558 -237.499)"/></g><g transform="translate(8.77 33.406)"><path class="l" d="M149.28,262.26a22.619,22.619,0,0,1-11.96-3.04s2.96,6.08,11.86,5.14Z" transform="translate(-137.32 -259.22)"/></g><g transform="translate(10.014 9.808)"><path class="b" d="M144.19,236.65c-.14.33-1.35.11-2.8.22-1.45.08-2.63.45-2.81.14-.08-.15.14-.45.62-.75a4.884,4.884,0,0,1,4.28-.27C144,236.22,144.25,236.5,144.19,236.65Z" transform="translate(-138.564 -235.621)"/></g><g transform="translate(22.523 6.976)"><path class="b" d="M155.26,234.04c-.21.28-1.06,0-2.08,0-1.02-.04-1.88.21-2.08-.08-.09-.14.04-.42.42-.69a3.022,3.022,0,0,1,3.36.06C155.23,233.62,155.35,233.91,155.26,234.04Z" transform="translate(-151.073 -232.79)"/></g><g transform="translate(15.569 23.366)"><path class="m" d="M148.13,252.18a2.076,2.076,0,0,1-1.07-.11c-.35-.1-.68-.19-.96-.28s-.6-.22-.94-.34a2.047,2.047,0,0,1-.92-.55c-.21-.28-.17-.76.31-1.19a2.576,2.576,0,0,1,4.03,1.34C148.72,251.67,148.46,252.09,148.13,252.18Z" transform="translate(-144.119 -249.179)"/></g><g transform="translate(14.985 24.144)"><path class="b" d="M148.3,252.07c-.12.08-.72-1.14-2.15-1.51a5.111,5.111,0,0,0-2.61.29c-.04-.05.16-.33.65-.58a3.02,3.02,0,0,1,3.82.98C148.31,251.71,148.36,252.05,148.3,252.07Z" transform="translate(-143.535 -249.958)"/></g></g><path class="b" d="M138.85,222.22a11.208,11.208,0,0,1-1.61,13.98c-2.13,1.98-5.3,3.53-5.51,6.43-.24,3.21,3.48,5.61,3.49,8.84.01,3.31-3.82,5.42-4.56,8.65-.6,2.6.95,5.2,2.75,7.17s3.96,3.71,5.04,6.15a10.922,10.922,0,0,1-.3,8.57,27.073,27.073,0,0,1-5.03,7.2,33.662,33.662,0,0,0-8.24-1.83c.18-1.06.35-2.12.53-3.19a2.931,2.931,0,0,1-2.15,2.7,7.882,7.882,0,0,1-3.68.05,59.43,59.43,0,0,1-11-2.83,19.969,19.969,0,0,0,4.02-5.02,6.67,6.67,0,0,0,.11-6.2c-.88-1.49-2.5-2.45-3.31-3.99-1.21-2.3-.21-5.22,1.51-7.17s4.06-3.22,6.1-4.82,3.93-3.76,4.1-6.36c.21-3.37-2.51-6.43-2.17-9.79.38-3.82,4.42-6.16,6.01-9.65,1.15-2.53.99-5.65,2.76-7.8a6.694,6.694,0,0,1,5.53-2.2,12.444,12.444,0,0,1,5.76,2.03" transform="translate(-108.58 -221.099)"/><g transform="translate(40.195 31.891)"><path class="b" d="M150.02,263.22c-1.61.89-1.51,3.33-.54,4.88s2.55,2.66,3.52,4.22a6.889,6.889,0,0,1-1.63,8.81l3.84,1.45.84-.47,2.36-1.33-1.11,2.72h2.46a7.027,7.027,0,0,0,5.78-11.14c-1.01-1.4-2.58-2.51-2.92-4.21-.41-2.04,1.13-3.89,1.89-5.83a8.241,8.241,0,0,0-2.68-9.33" transform="translate(-148.775 -252.99)"/></g></g></g></g><g transform="translate(41.587 170.127)"><g transform="translate(23.944 16.476)"><g transform="translate(0 3.799)"><path class="c" d="M74.25,182.29a1.338,1.338,0,0,1,.76,1.21v6.66a1.336,1.336,0,0,1-1.7,1.29,4.125,4.125,0,0,0-3.26.5,3.529,3.529,0,0,0-1.1,5.29,4.3,4.3,0,0,0,2.75,1.82,5.015,5.015,0,0,0,5.24-3.39,1.338,1.338,0,0,1,2.55.81,7.717,7.717,0,0,1-8.21,5.22,6.927,6.927,0,0,1-4.53-2.94,6.524,6.524,0,0,1-1.1-4.97,6.417,6.417,0,0,1,3.01-4.12,6.962,6.962,0,0,1,3.67-1.03v-5.13a1.34,1.34,0,0,1,1.34-1.34A1.258,1.258,0,0,1,74.25,182.29Z" transform="translate(-65.532 -182.169)"/></g><g transform="translate(6.878)"><path class="c" d="M72.41,179.49a1.1,1.1,0,1,1,1.12,1.07A1.088,1.088,0,0,1,72.41,179.49Z" transform="translate(-72.409 -178.369)"/></g></g><g transform="translate(59.844 53.213)"><path class="b" d="M105.03,215.15c.01.03-.33.05-.88.28a4.09,4.09,0,0,0-1.86,1.59,3.771,3.771,0,0,0-.57,1.59,3.327,3.327,0,0,0,.33,1.88,3.675,3.675,0,0,0,6.88-.41,3.309,3.309,0,0,0,.11-1.91,3.843,3.843,0,0,0-.76-1.51,3.992,3.992,0,0,0-2.03-1.36c-.57-.16-.91-.14-.91-.17a.636.636,0,0,1,.24-.02,1.009,1.009,0,0,1,.29.02,2.249,2.249,0,0,1,.4.07,4.121,4.121,0,0,1,2.99,2.92,3.607,3.607,0,0,1-.09,2.05,4.221,4.221,0,0,1-1.29,1.87,3.864,3.864,0,0,1-2.25.93,3.932,3.932,0,0,1-2.34-.66,4.136,4.136,0,0,1-1.5-1.7,3.551,3.551,0,0,1-.33-2.02,4.138,4.138,0,0,1,2.63-3.26,1.657,1.657,0,0,1,.39-.11,1.175,1.175,0,0,1,.29-.05C104.95,215.14,105.03,215.14,105.03,215.15Z" transform="translate(-101.431 -215.106)"/></g><g transform="translate(70.875 62.882)"><path class="b" d="M114.76,224.82c0,.03-.21.05-.55.19a2.552,2.552,0,0,0-1.14,1,2.171,2.171,0,0,0-.14,2.14,2.265,2.265,0,0,0,4.24-.25,2.164,2.164,0,0,0-.39-2.11,2.58,2.58,0,0,0-1.25-.86c-.35-.1-.57-.1-.57-.13a1.174,1.174,0,0,1,.59.02,2.624,2.624,0,0,1,1.92,1.85,2.39,2.39,0,0,1-.05,1.32,2.519,2.519,0,0,1-4.73.28,2.312,2.312,0,0,1-.21-1.3,2.643,2.643,0,0,1,.41-1.06,2.6,2.6,0,0,1,1.27-1A1.316,1.316,0,0,1,114.76,224.82Z" transform="translate(-112.462 -224.775)"/></g><path class="b" d="M103.42,195.33s-.01-.17,0-.5.01-.83.03-1.47c.01-.32.01-.68.02-1.08-.01-.4-.06-.83-.09-1.3s-.08-.98-.12-1.52a4.851,4.851,0,0,0-.11-.83c-.05-.28-.1-.58-.16-.88a29.44,29.44,0,0,0-2.77-8.45,30.744,30.744,0,0,0-7.13-9.33c-.41-.36-.83-.72-1.25-1.09-.44-.34-.91-.66-1.37-1-.23-.17-.47-.33-.7-.5a6.131,6.131,0,0,0-.73-.48c-.51-.29-1.02-.59-1.53-.89l-.78-.45c-.27-.13-.55-.25-.83-.38-.55-.25-1.11-.51-1.68-.76s-1.18-.41-1.77-.63c-.3-.1-.6-.2-.9-.31-.15-.05-.3-.11-.45-.15l-.47-.11a28.185,28.185,0,0,0-3.85-.75c-.66-.07-1.32-.19-1.99-.23-.67-.02-1.35-.04-2.04-.05-.34,0-.69-.03-1.03-.01s-.69.05-1.04.08c-.69.06-1.39.09-2.09.17a32.891,32.891,0,0,0-4.19.88c-.35.1-.7.2-1.05.29-.17.05-.35.09-.52.15l-.51.2c-.68.27-1.37.53-2.06.8-.68.3-1.33.66-2,.99-.33.18-.68.32-.99.52l-.96.61a33.911,33.911,0,0,0-3.71,2.69c-.56.53-1.13,1.06-1.69,1.6l-.43.4c-.13.14-.26.29-.39.44l-.78.88-.78.89-.7.96-.7.97-.35.49c-.11.17-.2.34-.3.52-.4.69-.81,1.39-1.21,2.08-.34.73-.67,1.47-1.01,2.21a33.085,33.085,0,0,0-2.34,9.55,32.7,32.7,0,0,0,.83,9.8c.22.78.44,1.56.65,2.34.29.75.58,1.5.87,2.24l.22.56.27.53.54,1.06.54,1.06.63,1,.63.99.32.49.36.46c.48.62.95,1.23,1.43,1.84a34.148,34.148,0,0,0,3.25,3.23l.85.75c.28.25.6.45.9.67.61.43,1.2.89,1.82,1.29.64.37,1.28.74,1.91,1.11l.47.28c.16.08.33.15.49.23l.99.45a31.854,31.854,0,0,0,4,1.52c.68.2,1.36.33,2.04.5.34.08.68.16,1.01.24s.68.1,1.02.15c.68.09,1.35.18,2.02.26.67.06,1.34.05,2.01.08a28.312,28.312,0,0,0,3.92-.15l.48-.03c.16-.02.32-.05.47-.08.31-.05.63-.11.94-.16.62-.12,1.24-.2,1.85-.34.6-.17,1.19-.33,1.78-.5l.88-.24c.28-.11.56-.21.84-.32.56-.22,1.11-.43,1.65-.64a6.329,6.329,0,0,0,.79-.36c.26-.13.52-.26.77-.39.51-.26,1.02-.5,1.51-.77.47-.3.94-.59,1.4-.89a30.672,30.672,0,0,0,8.49-8.11c.25-.35.51-.7.75-1.04.21-.36.42-.72.62-1.07s.4-.69.6-1.03c.1-.17.2-.33.29-.5l.24-.51c.31-.68.61-1.32.89-1.94s.45-1.25.66-1.82c.1-.29.2-.57.29-.84a4.97,4.97,0,0,0,.24-.81c.13-.53.24-1.02.35-1.48s.22-.88.29-1.27c.05-.39.1-.75.15-1.07.09-.63.16-1.12.2-1.46.06-.37.09-.53.09-.53s-.01.17-.05.5-.1.82-.17,1.46c-.04.32-.08.68-.13,1.08-.07.39-.18.82-.28,1.28s-.22.96-.34,1.49a4.922,4.922,0,0,1-.23.81c-.09.28-.19.56-.29.85-.21.58-.38,1.21-.65,1.84s-.58,1.27-.89,1.96c-.08.17-.16.34-.23.52s-.19.33-.28.5c-.2.34-.39.68-.6,1.03s-.41.71-.62,1.08c-.24.35-.49.69-.75,1.05a30.831,30.831,0,0,1-8.51,8.19c-.47.3-.94.59-1.41.9-.49.27-1.01.52-1.52.78l-.78.39a7.273,7.273,0,0,1-.8.37c-.55.21-1.1.43-1.66.65-.28.11-.56.22-.85.33-.29.08-.59.16-.88.25-.59.17-1.19.33-1.79.5-.61.15-1.23.23-1.86.35-.31.06-.63.11-.94.17-.16.03-.32.06-.48.08l-.48.04a30.338,30.338,0,0,1-3.95.16c-.67-.03-1.35-.01-2.02-.08-.67-.09-1.35-.17-2.04-.26-.34-.05-.69-.07-1.03-.15l-1.02-.24c-.68-.17-1.37-.3-2.06-.5a32.324,32.324,0,0,1-4.03-1.53c-.33-.15-.66-.3-1-.46-.17-.08-.34-.15-.5-.23l-.48-.28c-.64-.37-1.28-.74-1.93-1.12-.63-.4-1.22-.87-1.84-1.3-.3-.23-.63-.43-.91-.68l-.86-.75A34.785,34.785,0,0,1,49,213.1c-.48-.62-.96-1.23-1.44-1.85l-.36-.47-.32-.5-.64-1-.64-1.01-.54-1.07-.54-1.07-.27-.54-.22-.56c-.29-.75-.59-1.51-.88-2.27-.22-.78-.44-1.57-.66-2.36a33,33,0,0,1-.83-9.89,33.378,33.378,0,0,1,2.36-9.64c.34-.74.68-1.49,1.02-2.23.41-.7.82-1.4,1.22-2.1.1-.17.2-.35.31-.52l.35-.49.7-.98.7-.97.79-.9.78-.89c.13-.15.26-.3.39-.44l.43-.4c.57-.54,1.14-1.07,1.71-1.61a34.937,34.937,0,0,1,3.75-2.71l.97-.61c.32-.2.67-.35,1-.53.68-.33,1.34-.7,2.02-1,.7-.27,1.39-.54,2.08-.81l.52-.2c.17-.06.35-.1.53-.15l1.06-.3a33.338,33.338,0,0,1,4.22-.88c.7-.09,1.41-.11,2.11-.17.35-.03.7-.05,1.04-.08s.69.01,1.04.02l2.06.06c.68.04,1.35.16,2.01.24a28.493,28.493,0,0,1,3.87.77l.47.11c.16.04.31.1.46.15.3.1.61.21.91.31.6.22,1.21.39,1.78.63.57.26,1.13.52,1.69.77.28.13.56.26.83.38.27.15.52.3.79.45.52.3,1.03.6,1.54.9a5.169,5.169,0,0,1,.73.49c.24.17.47.34.71.51.46.34.94.66,1.38,1.01.42.37.84.74,1.26,1.1a30.885,30.885,0,0,1,7.14,9.41,29.053,29.053,0,0,1,2.73,8.5c.05.3.1.6.15.88a4.964,4.964,0,0,1,.11.84c.04.54.07,1.05.11,1.52s.07.91.08,1.31c-.01.4-.03.76-.04,1.08-.02.64-.04,1.13-.05,1.47C103.43,195.16,103.42,195.33,103.42,195.33Z" transform="translate(-41.587 -161.893)"/></g><g transform="translate(308.94 52.85)"><g transform="translate(0.62 0.27)"><rect class="n" width="206.45" height="313.39"/></g><g transform="translate(0.2 16.23)"><rect class="o" width="206.51" height="134.87"/></g><g transform="translate(133.52 293.44)"><path class="p" d="M370.66,340.29" transform="translate(-370.66 -340.29)"/></g><g transform="translate(49.39 168.49)"><path class="b" d="M287.79,216.96v3.07h4.41v1.08h-4.41v3.56h-1.26v-8.8h6.21v1.09Z" transform="translate(-286.53 -215.34)"/><path class="b" d="M293.51,221.34a3.465,3.465,0,1,1,3.47,3.41A3.309,3.309,0,0,1,293.51,221.34Zm5.71,0a2.247,2.247,0,1,0-2.24,2.35A2.191,2.191,0,0,0,299.22,221.34Z" transform="translate(-286.53 -215.34)"/><path class="b" d="M305.7,217.94v1.17a2.717,2.717,0,0,0-.28-.01,1.99,1.99,0,0,0-2.1,2.25v3.32h-1.21v-6.66h1.16v1.12A2.555,2.555,0,0,1,305.7,217.94Z" transform="translate(-286.53 -215.34)"/><path class="b" d="M313.49,218.01v5.76c0,2.35-1.19,3.42-3.46,3.42a4.951,4.951,0,0,1-3.18-.99l.58-.93a4.061,4.061,0,0,0,2.57.87c1.57,0,2.29-.73,2.29-2.24v-.53a3.06,3.06,0,0,1-2.4,1.03,3.229,3.229,0,1,1,0-6.45,3.023,3.023,0,0,1,2.46,1.09v-1.03h1.14Zm-1.18,3.15a2.3,2.3,0,0,0-4.59,0,2.3,2.3,0,0,0,4.59,0Z" transform="translate(-286.53 -215.34)"/><path class="b" d="M315.18,221.34a3.465,3.465,0,1,1,3.47,3.41A3.309,3.309,0,0,1,315.18,221.34Zm5.71,0a2.247,2.247,0,1,0-2.24,2.35A2.191,2.191,0,0,0,320.89,221.34Z" transform="translate(-286.53 -215.34)"/><path class="b" d="M327.53,224.28a2.3,2.3,0,0,1-1.46.47,1.9,1.9,0,0,1-2.11-2.09V219h-1.13v-.99h1.13v-1.46h1.21v1.46h1.91V219h-1.91v3.61a.982.982,0,0,0,1.04,1.12,1.517,1.517,0,0,0,.94-.31Z" transform="translate(-286.53 -215.34)"/><path class="b" d="M339.27,221.34a3.239,3.239,0,0,1-3.37,3.41,2.856,2.856,0,0,1-2.33-1.08v3.44h-1.21v-9.1h1.16v1.06a2.851,2.851,0,0,1,2.38-1.12A3.223,3.223,0,0,1,339.27,221.34Zm-1.22,0a2.247,2.247,0,1,0-2.25,2.35A2.2,2.2,0,0,0,338.05,221.34Z" transform="translate(-286.53 -215.34)"/><path class="b" d="M346.16,220.65v4.02h-1.14v-.88a2.478,2.478,0,0,1-2.19.96c-1.51,0-2.46-.8-2.46-1.96,0-1.07.69-1.95,2.68-1.95h1.91v-.24c0-1.02-.59-1.61-1.79-1.61a3.359,3.359,0,0,0-2.11.72l-.5-.91a4.439,4.439,0,0,1,2.75-.85C345.13,217.94,346.16,218.82,346.16,220.65Zm-1.2,1.98v-.93H343.1c-1.2,0-1.53.47-1.53,1.03,0,.67.55,1.08,1.47,1.08A1.934,1.934,0,0,0,344.96,222.63Z" transform="translate(-286.53 -215.34)"/><path class="b" d="M347.56,223.97l.5-.96a4.311,4.311,0,0,0,2.34.69c1.12,0,1.58-.34,1.58-.91,0-1.5-4.21-.2-4.21-2.85,0-1.19,1.07-2,2.78-2a4.935,4.935,0,0,1,2.43.6l-.52.96a3.469,3.469,0,0,0-1.92-.53c-1.06,0-1.57.39-1.57.92,0,1.57,4.22.29,4.22,2.88,0,1.21-1.11,1.97-2.88,1.97A4.732,4.732,0,0,1,347.56,223.97Z" transform="translate(-286.53 -215.34)"/><path class="b" d="M353.86,223.97l.5-.96a4.311,4.311,0,0,0,2.34.69c1.12,0,1.58-.34,1.58-.91,0-1.5-4.21-.2-4.21-2.85,0-1.19,1.07-2,2.78-2a4.935,4.935,0,0,1,2.43.6l-.52.96a3.469,3.469,0,0,0-1.92-.53c-1.06,0-1.57.39-1.57.92,0,1.57,4.22.29,4.22,2.88,0,1.21-1.11,1.97-2.88,1.97A4.732,4.732,0,0,1,353.86,223.97Z" transform="translate(-286.53 -215.34)"/><path class="b" d="M370.96,218.01l-2.49,6.66h-1.16l-1.92-5.05-1.95,5.05h-1.16l-2.48-6.66h1.14l1.94,5.31,2.01-5.31h1.02l1.97,5.33,1.99-5.33Z" transform="translate(-286.53 -215.34)"/><path class="b" d="M371.38,221.34a3.465,3.465,0,1,1,3.47,3.41A3.309,3.309,0,0,1,371.38,221.34Zm5.7,0a2.247,2.247,0,1,0-2.24,2.35A2.185,2.185,0,0,0,377.08,221.34Z" transform="translate(-286.53 -215.34)"/><path class="b" d="M383.56,217.94v1.17a2.717,2.717,0,0,0-.28-.01,1.985,1.985,0,0,0-2.1,2.25v3.32h-1.21v-6.66h1.16v1.12A2.555,2.555,0,0,1,383.56,217.94Z" transform="translate(-286.53 -215.34)"/><path class="b" d="M391.27,215.34v9.33h-1.16v-1.06a2.832,2.832,0,0,1-2.38,1.13,3.4,3.4,0,0,1,0-6.8,2.848,2.848,0,0,1,2.33,1.07v-3.67h1.21Zm-1.2,6a2.247,2.247,0,1,0-2.24,2.35A2.2,2.2,0,0,0,390.07,221.34Z" transform="translate(-286.53 -215.34)"/><path class="b" d="M397.49,218.19c0-.8-.67-1.36-1.8-1.36a2.672,2.672,0,0,0-2.25.99l-.92-.65a3.925,3.925,0,0,1,3.26-1.41c1.81,0,2.98.84,2.98,2.24,0,2.1-2.23,2.24-2.23,3.88h-1.26C395.28,219.92,397.49,219.64,397.49,218.19Zm-2.39,5.75a.789.789,0,0,1,.82-.8.778.778,0,0,1,.8.8.81.81,0,0,1-1.62,0Z" transform="translate(-286.53 -215.34)"/></g><g transform="translate(27.44 195.62)"><path d="M422.61,242.73c0,.14-35.38.26-79.01.26-43.65,0-79.02-.12-79.02-.26s35.37-.26,79.02-.26C387.23,242.47,422.61,242.59,422.61,242.73Z" transform="translate(-264.58 -242.47)"/></g><g transform="translate(61.17 204.07)"><path d="M388.88,251.18c0,.14-20.28.26-45.28.26-25.02,0-45.29-.12-45.29-.26s20.27-.26,45.29-.26S388.88,251.03,388.88,251.18Z" transform="translate(-298.31 -250.92)"/></g><g transform="translate(52.07 52.6)"><g transform="translate(10.32)"><g transform="translate(0.81 2.73)"><g transform="translate(0.29 0.229)"><path class="b" d="M374.6,144.09a24.077,24.077,0,1,0-37.36-5.71l-4.9,4.57,1.17,8.13-7.6-2.13-6.13,5.72,1.17,8.13-7.6-2.13-5.27,4.92.71,4.96-4.63-1.3-3.07,2.86-.46,7.53,11.23,2.83,36.45-34A24.121,24.121,0,0,0,374.6,144.09Zm-3.56-29.61a6.906,6.906,0,1,1-9.76-.34A6.906,6.906,0,0,1,371.04,114.48Z" transform="translate(-300.63 -102.409)"/></g><g transform="translate(0.29 0.229)"><path class="q" d="M374.6,144.09a24.077,24.077,0,1,0-37.36-5.71l-4.9,4.57,1.17,8.13-7.6-2.13-6.13,5.72,1.17,8.13-7.6-2.13-5.27,4.92.71,4.96-4.63-1.3-3.07,2.86-.46,7.53,11.23,2.83,36.45-34A24.121,24.121,0,0,0,374.6,144.09Zm-3.56-29.61a6.906,6.906,0,1,1-9.76-.34A6.906,6.906,0,0,1,371.04,114.48Z" transform="translate(-300.63 -102.409)"/></g><g transform="translate(58.459 9.925)"><path class="b" d="M371.04,114.48c-.04.05-.45-.42-1.37-.99a6.886,6.886,0,0,0-4.35-.95,6.65,6.65,0,1,0,7.26,7.78,6.859,6.859,0,0,0-.65-4.4c-.5-.96-.94-1.4-.89-1.44q.03-.015.33.3a5.153,5.153,0,0,1,.76,1.03,6.893,6.893,0,0,1,.87,4.59,7.135,7.135,0,0,1-8.35,5.87,7.167,7.167,0,0,1-5.05-10.33,7.081,7.081,0,0,1,5.68-3.81,6.914,6.914,0,0,1,4.52,1.18,5.339,5.339,0,0,1,.97.83C370.96,114.35,371.06,114.47,371.04,114.48Z" transform="translate(-358.799 -112.105)"/></g><path class="b" d="M374.6,144.09s-.11.12-.35.33c-.25.23-.6.54-1.06.95a24.922,24.922,0,0,1-4.66,2.96,24.242,24.242,0,0,1-20.3.29l.2-.03c-9.39,8.8-21.89,20.5-36.38,34.07l-.11.1-.14-.04c-3.53-.88-7.34-1.84-11.23-2.82l-.23-.06.01-.23c.14-2.35.3-4.92.45-7.53l.01-.11.08-.08c.95-.89,2-1.87,3.06-2.86l.12-.11.16.04c1.44.4,3.03.85,4.63,1.3l-.37.32c-.22-1.55-.47-3.25-.72-4.96l-.02-.15.11-.11,5.27-4.92.12-.11.16.05c2.4.67,4.99,1.4,7.6,2.13l-.38.33c-.37-2.58-.77-5.34-1.17-8.13l-.02-.16.11-.11c.51-.48,1.07-1,1.62-1.52l4.5-4.2.12-.12.16.05q3.84,1.08,7.6,2.13l-.38.33q-.585-4.11-1.17-8.13l-.02-.15.11-.11q2.475-2.31,4.9-4.57l-.05.36a24.511,24.511,0,0,1-3.13-10.96,22.989,22.989,0,0,1,.4-5.57,24.083,24.083,0,0,1,1.6-5.24,24.256,24.256,0,0,1,46.44,11.63,23.718,23.718,0,0,1-2.7,9.27c-.15.29-.3.58-.45.86-.17.26-.34.52-.49.76-.33.49-.6.97-.91,1.37-.65.78-1.15,1.49-1.64,1.98l-1.11,1.11a3.462,3.462,0,0,1-.35.37s.11-.14.35-.4c.26-.27.61-.65,1.07-1.14.48-.5.96-1.21,1.59-2,.3-.4.57-.88.89-1.37.16-.25.32-.5.48-.76l.43-.86a23.8,23.8,0,0,0,2.59-9.2,23.849,23.849,0,0,0-45.63-11.39,23.956,23.956,0,0,0-1.94,10.56,23.931,23.931,0,0,0,3.07,10.7l.11.2-.17.16q-2.43,2.265-4.9,4.57l.09-.26q.585,4.02,1.17,8.13l.07.45-.44-.12c-2.51-.7-5.05-1.41-7.6-2.13l.29-.07-4.5,4.2c-.56.52-1.11,1.04-1.62,1.52l.09-.26c.4,2.79.8,5.55,1.17,8.13l.07.46-.44-.12c-2.61-.73-5.2-1.46-7.6-2.13l.28-.07c-1.81,1.69-3.61,3.37-5.27,4.91l.09-.26c.25,1.71.49,3.41.71,4.96l.06.45-.43-.12c-1.6-.45-3.19-.9-4.63-1.3l.28-.07c-1.06.99-2.12,1.97-3.07,2.86l.09-.19c-.16,2.61-.32,5.18-.46,7.53l-.21-.29c3.9.98,7.71,1.95,11.23,2.84l-.25.06c14.54-13.52,27.08-25.17,36.51-33.94l.09-.08.11.05a24.357,24.357,0,0,0,11.57,2.06,24.663,24.663,0,0,0,8.49-2.19,27.039,27.039,0,0,0,4.68-2.86c.47-.39.83-.69,1.09-.9A2.636,2.636,0,0,1,374.6,144.09Z" transform="translate(-300.34 -102.18)"/></g><g transform="translate(0.29 0.229)"><path class="r" d="M373.79,141.36a24.077,24.077,0,1,0-37.36-5.71l-.01.01-4.89,4.56,1.17,8.13-7.6-2.13-6.13,5.72,1.17,8.13-7.6-2.13-5.27,4.92.71,4.96-4.63-1.3-3.07,2.86-.46,7.53,11.23,2.83,36.45-34A24.121,24.121,0,0,0,373.79,141.36Zm-3.56-29.61a6.906,6.906,0,1,1-9.76-.34A6.906,6.906,0,0,1,370.23,111.75Z" transform="translate(-299.82 -99.679)"/></g><g transform="translate(0.29 0.229)"><path class="q" d="M373.79,141.36a24.077,24.077,0,1,0-37.36-5.71l-.01.01-4.89,4.56,1.17,8.13-7.6-2.13-6.13,5.72,1.17,8.13-7.6-2.13-5.27,4.92.71,4.96-4.63-1.3-3.07,2.86-.46,7.53,11.23,2.83,36.45-34A24.121,24.121,0,0,0,373.79,141.36Zm-3.56-29.61a6.906,6.906,0,1,1-9.76-.34A6.906,6.906,0,0,1,370.23,111.75Z" transform="translate(-299.82 -99.679)"/></g><g transform="translate(58.459 9.925)"><path class="r" d="M370.23,111.75c-.04.05-.45-.42-1.37-.99a6.886,6.886,0,0,0-4.35-.95,6.65,6.65,0,1,0,7.26,7.78,6.859,6.859,0,0,0-.65-4.4c-.5-.96-.93-1.4-.89-1.44q.03-.015.33.3a5.153,5.153,0,0,1,.76,1.03,6.893,6.893,0,0,1,.87,4.59,7.135,7.135,0,0,1-8.35,5.87,7.167,7.167,0,0,1-5.05-10.33,7.081,7.081,0,0,1,5.68-3.81,6.914,6.914,0,0,1,4.52,1.18,5.339,5.339,0,0,1,.97.83C370.16,111.62,370.25,111.74,370.23,111.75Z" transform="translate(-357.989 -109.375)"/></g><path class="r" d="M373.79,141.36s-.11.12-.35.33c-.25.23-.6.54-1.06.95a24.922,24.922,0,0,1-4.66,2.96,24.242,24.242,0,0,1-20.3.29l.2-.03c-9.39,8.8-21.89,20.5-36.38,34.07l-.11.1-.14-.04c-3.53-.88-7.34-1.84-11.23-2.82l-.23-.06.01-.23c.14-2.35.3-4.92.45-7.53l.01-.11.08-.08c.95-.89,2-1.87,3.06-2.86l.12-.11.16.04c1.44.4,3.03.85,4.63,1.3l-.37.32c-.22-1.55-.47-3.25-.72-4.96l-.02-.15.11-.11,5.27-4.92.12-.11.16.05c2.4.67,4.99,1.4,7.6,2.13l-.38.33c-.37-2.58-.77-5.34-1.17-8.13l-.02-.16.11-.11c.51-.48,1.07-1,1.62-1.52l4.5-4.2.12-.12.16.05q3.84,1.08,7.6,2.13l-.38.33q-.585-4.11-1.17-8.13l-.02-.15.11-.11q2.475-2.31,4.9-4.57l-.05.36A24.511,24.511,0,0,1,333,124.82a22.989,22.989,0,0,1,.4-5.57,24.083,24.083,0,0,1,1.6-5.24,24.256,24.256,0,0,1,46.44,11.63,23.666,23.666,0,0,1-2.7,9.27c-.15.29-.3.58-.45.86-.17.26-.34.52-.5.76-.33.49-.6.97-.91,1.37-.65.78-1.15,1.49-1.64,1.98l-1.11,1.11a2.975,2.975,0,0,1-.34.37s.11-.14.35-.4c.26-.27.61-.65,1.07-1.14.48-.5.96-1.21,1.59-2,.3-.4.57-.88.89-1.37.16-.25.32-.5.48-.76l.43-.86a24.092,24.092,0,0,0,.18-21.64,23.856,23.856,0,0,0-43.22,1.06,23.956,23.956,0,0,0-1.94,10.56,23.931,23.931,0,0,0,3.07,10.7l.11.2-.17.16q-2.43,2.265-4.9,4.57l.09-.26q.585,4.02,1.17,8.13l.07.45-.44-.12c-2.51-.7-5.05-1.41-7.6-2.13l.29-.07-4.5,4.2c-.56.52-1.11,1.04-1.62,1.52l.09-.26c.4,2.79.8,5.55,1.17,8.13l.07.46-.44-.12c-2.61-.73-5.2-1.46-7.6-2.13l.28-.07c-1.81,1.69-3.61,3.37-5.27,4.91l.09-.26c.25,1.71.49,3.41.71,4.96l.06.45-.43-.12c-1.6-.45-3.19-.9-4.63-1.3l.28-.07c-1.06.99-2.12,1.97-3.07,2.86l.09-.19c-.16,2.61-.32,5.18-.46,7.53l-.21-.29c3.9.98,7.71,1.95,11.23,2.84l-.25.06c14.54-13.52,27.08-25.17,36.51-33.94l.09-.08.11.05a24.357,24.357,0,0,0,11.57,2.06,24.663,24.663,0,0,0,8.49-2.19,27.039,27.039,0,0,0,4.68-2.86c.47-.39.83-.69,1.09-.9A2.426,2.426,0,0,1,373.79,141.36Z" transform="translate(-299.53 -99.45)"/><g transform="translate(36.14 3.04)"><path class="b" d="M371.58,139.48a32.011,32.011,0,0,0,3.23-4.08,20.537,20.537,0,0,0,2.48-5.54,21.122,21.122,0,0,0,.69-7.97,20.874,20.874,0,0,0-11.35-16.51,19.5,19.5,0,0,0-5.69-1.92,18.905,18.905,0,0,0-6.26-.2,20.793,20.793,0,0,0-18.06,16.85,24.375,24.375,0,0,0-.38,3.15,24.637,24.637,0,0,0,.14,3.11,19.67,19.67,0,0,0,1.52,5.81,21.038,21.038,0,0,0,23.69,12.34,19.827,19.827,0,0,0,5.7-2.09,32.377,32.377,0,0,0,4.29-2.95q.015.015-.24.24c-.19.17-.44.4-.75.67a10.759,10.759,0,0,1-1.29,1.02,14.121,14.121,0,0,1-1.89,1.21,20.355,20.355,0,0,1-5.74,2.21,21.382,21.382,0,0,1-17.24-3.6,21.432,21.432,0,0,1-7.03-8.85,20.076,20.076,0,0,1-1.58-5.97,19.784,19.784,0,0,1,.23-6.44,21.348,21.348,0,0,1,18.57-17.33,20,20,0,0,1,6.44.22,20.357,20.357,0,0,1,5.84,1.99,21.489,21.489,0,0,1,8.35,7.63,21.346,21.346,0,0,1,2.39,17.45,20.337,20.337,0,0,1-2.6,5.58,14.772,14.772,0,0,1-1.34,1.8,10.988,10.988,0,0,1-1.1,1.22c-.3.29-.54.52-.72.71A1.672,1.672,0,0,1,371.58,139.48Z" transform="translate(-335.67 -102.49)"/></g><g transform="translate(57.182 8.65)"><path class="b" d="M370.61,122.39c-.05-.05.5-.52,1.17-1.6a8.036,8.036,0,0,0,1.14-5.11,7.867,7.867,0,0,0-4.28-6.17,7.655,7.655,0,0,0-4.47-.78,7.826,7.826,0,0,0-6.27,10.8,7.882,7.882,0,0,0,5.86,4.71,8.121,8.121,0,0,0,5.18-.78c1.11-.6,1.62-1.12,1.67-1.07.01.02-.11.14-.36.38a6.158,6.158,0,0,1-1.2.89,8.186,8.186,0,0,1-8.9-.46,8.352,8.352,0,0,1,8.75-14.17,8.441,8.441,0,0,1,3.24,2.98,8.227,8.227,0,0,1-.15,8.92,6.248,6.248,0,0,1-.97,1.14C370.76,122.3,370.62,122.41,370.61,122.39Z" transform="translate(-356.712 -108.101)"/></g><g transform="translate(8.589 44.358)"><path class="b" d="M308.12,178.39c-.11-.12,8.09-7.96,18.33-17.51s18.63-17.19,18.74-17.07-8.09,7.96-18.33,17.51S308.23,178.51,308.12,178.39Z" transform="translate(-308.119 -143.809)"/></g></g><g transform="translate(21.51 30.48)"><path class="c" d="M312.64,130.67l.33-.74.45.68a3.32,3.32,0,0,0,1.46,1.24l.74.33-.68.45a3.32,3.32,0,0,0-1.24,1.46l-.33.74-.45-.68a3.32,3.32,0,0,0-1.46-1.24l-.74-.33.68-.45A3.32,3.32,0,0,0,312.64,130.67Z" transform="translate(-310.72 -129.93)"/></g><g transform="translate(0 25.23)"><path class="c" d="M290.33,125.11l.19-.43.26.4a1.92,1.92,0,0,0,.85.72l.43.19-.4.26a1.92,1.92,0,0,0-.72.85l-.19.43-.26-.4a1.92,1.92,0,0,0-.85-.72l-.43-.19.4-.26A2.121,2.121,0,0,0,290.33,125.11Z" transform="translate(-289.21 -124.68)"/></g><g transform="translate(70.27 63.26)"><path class="c" d="M360.6,163.14l.19-.43.26.4a1.92,1.92,0,0,0,.85.72l.43.19-.4.26a1.92,1.92,0,0,0-.72.85l-.19.43-.26-.4a1.92,1.92,0,0,0-.85-.72l-.43-.19.4-.26A1.92,1.92,0,0,0,360.6,163.14Z" transform="translate(-359.48 -162.71)"/></g><g transform="translate(103.88 43.45)"><path class="c" d="M395.01,143.64l.33-.74.45.68a3.32,3.32,0,0,0,1.46,1.24l.74.33-.68.45a3.32,3.32,0,0,0-1.24,1.46l-.33.74-.45-.68a3.32,3.32,0,0,0-1.46-1.24l-.74-.33.68-.45A3.454,3.454,0,0,0,395.01,143.64Z" transform="translate(-393.09 -142.9)"/></g><g transform="translate(98.09 15.62)"><path class="c" d="M390.53,116.32l.56-1.25.75,1.14a5.717,5.717,0,0,0,2.45,2.09l1.25.56-1.14.75a5.717,5.717,0,0,0-2.09,2.45l-.56,1.25-.75-1.14a5.717,5.717,0,0,0-2.45-2.09l-1.25-.56,1.14-.75A5.785,5.785,0,0,0,390.53,116.32Z" transform="translate(-387.3 -115.07)"/></g><g transform="translate(13.27 7.2)"><path class="c" d="M305.71,107.9l.56-1.25.75,1.14a5.717,5.717,0,0,0,2.45,2.09l1.25.56-1.14.75a5.717,5.717,0,0,0-2.09,2.45l-.56,1.25-.75-1.14a5.717,5.717,0,0,0-2.45-2.09l-1.25-.56,1.14-.75A5.717,5.717,0,0,0,305.71,107.9Z" transform="translate(-302.48 -106.65)"/></g></g><g transform="translate(68.82 269.77)"><path class="n" d="M310.67,323.81l-1.62-2.27a4.651,4.651,0,0,1-.66.05h-1.94v2.22h-.49v-6.78h2.43c1.71,0,2.73.85,2.73,2.29a2.074,2.074,0,0,1-1.59,2.12l1.7,2.37Zm-2.28-2.65c1.45,0,2.23-.68,2.23-1.84s-.78-1.84-2.23-1.84h-1.94v3.68Z" transform="translate(-305.96 -316.62)"/><path class="n" d="M317.05,321.4H312.7a2.163,2.163,0,0,0,3.76,1.31l.28.32a2.429,2.429,0,0,1-1.91.82,2.489,2.489,0,0,1-2.61-2.57,2.423,2.423,0,0,1,2.42-2.57,2.4,2.4,0,0,1,2.41,2.55A.655.655,0,0,1,317.05,321.4Zm-4.34-.38h3.88a1.941,1.941,0,0,0-3.88,0Z" transform="translate(-305.96 -316.62)"/><path class="n" d="M317.82,323.2l.22-.39a2.954,2.954,0,0,0,1.82.61c1.07,0,1.49-.38,1.49-.95,0-1.47-3.35-.39-3.35-2.37,0-.77.64-1.39,1.92-1.39a3.075,3.075,0,0,1,1.73.49l-.22.39a2.62,2.62,0,0,0-1.52-.46c-.99,0-1.42.41-1.42.95,0,1.52,3.35.45,3.35,2.37,0,.82-.71,1.39-2,1.39A3.1,3.1,0,0,1,317.82,323.2Z" transform="translate(-305.96 -316.62)"/><path class="n" d="M327.47,321.4h-4.35a2.163,2.163,0,0,0,3.76,1.31l.28.32a2.429,2.429,0,0,1-1.91.82,2.489,2.489,0,0,1-2.61-2.57,2.423,2.423,0,0,1,2.42-2.57,2.4,2.4,0,0,1,2.41,2.55A.655.655,0,0,1,327.47,321.4Zm-4.34-.38H327a1.936,1.936,0,0,0-3.87,0Z" transform="translate(-305.96 -316.62)"/><path class="n" d="M331.49,323.49a1.548,1.548,0,0,1-1.04.36,1.258,1.258,0,0,1-1.38-1.38v-3.3h-.93v-.42h.93v-1.1h.48v1.1h1.61v.42h-1.61v3.26c0,.65.32,1.01.94,1.01a1.209,1.209,0,0,0,.79-.28Z" transform="translate(-305.96 -316.62)"/><path class="n" d="M340.65,319.32c0,1.42-1.03,2.28-2.73,2.28h-1.94v2.22h-.49v-6.78h2.43C339.62,317.03,340.65,317.88,340.65,319.32Zm-.5,0c0-1.17-.78-1.84-2.23-1.84h-1.94v3.67h1.94C339.37,321.15,340.15,320.48,340.15,319.32Z" transform="translate(-305.96 -316.62)"/><path class="n" d="M345.77,320.6v3.21h-.46v-.9a1.945,1.945,0,0,1-1.82.94c-1.13,0-1.82-.58-1.82-1.44,0-.76.48-1.41,1.89-1.41h1.73v-.41a1.312,1.312,0,0,0-1.5-1.44,2.586,2.586,0,0,0-1.74.64l-.24-.35a3.06,3.06,0,0,1,2.03-.72A1.709,1.709,0,0,1,345.77,320.6Zm-.49,1.72v-.95h-1.72c-1.05,0-1.42.44-1.42,1.02,0,.66.51,1.07,1.41,1.07A1.743,1.743,0,0,0,345.28,322.32Z" transform="translate(-305.96 -316.62)"/><path class="n" d="M347.02,323.2l.22-.39a2.954,2.954,0,0,0,1.82.61c1.07,0,1.49-.38,1.49-.95,0-1.47-3.35-.39-3.35-2.37,0-.77.64-1.39,1.92-1.39a3.075,3.075,0,0,1,1.73.49l-.22.39a2.62,2.62,0,0,0-1.52-.46c-.99,0-1.42.41-1.42.95,0,1.52,3.35.45,3.35,2.37,0,.82-.71,1.39-2,1.39A3.082,3.082,0,0,1,347.02,323.2Z" transform="translate(-305.96 -316.62)"/><path class="n" d="M351.65,323.2l.22-.39a2.954,2.954,0,0,0,1.82.61c1.07,0,1.49-.38,1.49-.95,0-1.47-3.35-.39-3.35-2.37,0-.77.64-1.39,1.92-1.39a3.075,3.075,0,0,1,1.73.49l-.22.39a2.62,2.62,0,0,0-1.52-.46c-.99,0-1.42.41-1.42.95,0,1.52,3.35.45,3.35,2.37,0,.82-.71,1.39-2,1.39A3.1,3.1,0,0,1,351.65,323.2Z" transform="translate(-305.96 -316.62)"/><path class="n" d="M364.16,318.75l-1.92,5.06h-.46l-1.71-4.39-1.71,4.39h-.45l-1.92-5.06h.46l1.69,4.51,1.72-4.51h.42l1.71,4.5,1.71-4.5Z" transform="translate(-305.96 -316.62)"/><path class="n" d="M364.59,321.28a2.53,2.53,0,1,1,2.53,2.57A2.47,2.47,0,0,1,364.59,321.28Zm4.56,0a2.037,2.037,0,1,0-2.03,2.13A2,2,0,0,0,369.15,321.28Z" transform="translate(-305.96 -316.62)"/><path class="n" d="M373.54,318.72v.47c-.04,0-.08-.01-.12-.01-1.12,0-1.79.75-1.79,2v2.64h-.48v-5.06h.46v1.1A1.916,1.916,0,0,1,373.54,318.72Z" transform="translate(-305.96 -316.62)"/><path class="n" d="M379.32,316.62v7.19h-.47v-1.19a2.25,2.25,0,0,1-2.07,1.23,2.571,2.571,0,0,1,0-5.14,2.264,2.264,0,0,1,2.06,1.21v-3.3Zm-.48,4.66a2.037,2.037,0,1,0-2.03,2.13A2,2,0,0,0,378.84,321.28Z" transform="translate(-305.96 -316.62)"/></g><g transform="translate(0.19 15.97)"><path class="b" d="M443.84,63.08c0,.14-46.23.26-103.25.26-57.04,0-103.26-.12-103.26-.26s46.22-.26,103.26-.26C397.61,62.82,443.84,62.94,443.84,63.08Z" transform="translate(-237.33 -62.82)"/></g><g transform="translate(6.88 5.52)"><path class="b" d="M249.04,54.88a2.51,2.51,0,1,1-2.51-2.51A2.512,2.512,0,0,1,249.04,54.88Z" transform="translate(-244.02 -52.37)"/></g><g transform="translate(14.1 5.52)"><path class="b" d="M256.26,54.88a2.51,2.51,0,1,1-2.51-2.51A2.512,2.512,0,0,1,256.26,54.88Z" transform="translate(-251.24 -52.37)"/></g><g transform="translate(21.32 5.52)"><path class="b" d="M263.48,54.88a2.51,2.51,0,1,1-2.51-2.51A2.512,2.512,0,0,1,263.48,54.88Z" transform="translate(-258.46 -52.37)"/></g><path class="b" d="M444.21,360.5c0-2.14-.1-128.94-.24-313.39l.24.24c-63.21.01-133.22.01-206.79.02h-.02l.26-.26c-.02,118.26-.04,227.29-.05,313.39l-.21-.21c126.13.13,205.12.21,206.81.21-1.69,0-80.68.08-206.81.21h-.21v-.21c-.01-86.1-.03-195.13-.05-313.39v-.26h.28c73.57.01,143.58.01,206.79.02h.24v.24C444.31,231.56,444.21,358.37,444.21,360.5Z" transform="translate(-237.14 -46.85)"/></g><g transform="translate(471.288 307.36)"><g transform="translate(37.37)"><path class="b" d="M440.43,444.96a2.932,2.932,0,0,0-.17-.41c-.14-.29-.32-.68-.55-1.17a28.83,28.83,0,0,1-1.61-4.69,41.347,41.347,0,0,1,.14-18.11,97.134,97.134,0,0,1,3.36-12.16c1.42-4.32,3.07-8.9,4.42-13.85a53.471,53.471,0,0,0,2.18-15.92c-.2-5.63-1.87-11.25-3.71-16.85s-3.72-11.08-4.29-16.59a25.32,25.32,0,0,1,3.04-15.32c2.43-4.47,5.48-8.3,7.77-12.26a42.859,42.859,0,0,0,4.67-11.78,44.007,44.007,0,0,0,.3-18.26,34.325,34.325,0,0,0-1.9-6.45,2.786,2.786,0,0,0,.11.43c.1.31.22.71.39,1.24a45.639,45.639,0,0,1,1.18,4.83,44.426,44.426,0,0,1-.47,18.12,42.444,42.444,0,0,1-4.68,11.63c-2.28,3.91-5.35,7.72-7.82,12.25a25.808,25.808,0,0,0-3.14,15.64c.57,5.6,2.48,11.12,4.3,16.72s3.48,11.15,3.69,16.69a53.368,53.368,0,0,1-2.13,15.76c-1.33,4.93-2.96,9.51-4.36,13.84a94.767,94.767,0,0,0-3.3,12.24c-1.54,7.62-1.1,14.06.05,18.24a26.587,26.587,0,0,0,1.73,4.68c.25.49.45.87.6,1.15A1.7,1.7,0,0,0,440.43,444.96Z" transform="translate(-436.858 -281.14)"/></g><g transform="translate(43.595 16.71)"><path class="g" d="M447.91,321.54s4.64-14.84-3.68-23.53a.514.514,0,0,0-.88.26C442.9,300.72,442.34,308.18,447.91,321.54Z" transform="translate(-443.083 -297.85)"/><g transform="translate(2.024 5.1)"><path class="b" d="M445.13,302.95a13.272,13.272,0,0,0,.31,2.74c.31,1.89.66,4.1,1.06,6.54s.74,4.66,1.04,6.54a14.96,14.96,0,0,0,.49,2.71,11.118,11.118,0,0,0-.08-2.76c-.15-1.7-.45-4.03-.87-6.59s-.87-4.87-1.23-6.53A13.082,13.082,0,0,0,445.13,302.95Z" transform="translate(-445.107 -302.95)"/></g></g><g transform="translate(28.026 56.294)"><path class="g" d="M442.46,356.53s-2.84-15.29-14.26-19.07a.516.516,0,0,0-.66.64C428.29,340.47,431.29,347.33,442.46,356.53Z" transform="translate(-427.514 -337.434)"/><g transform="translate(3.791 3.974)"><path class="b" d="M431.31,341.41a13.5,13.5,0,0,0,1.56,2.27c1.15,1.52,2.5,3.31,4,5.29s2.83,3.77,3.98,5.3a14.912,14.912,0,0,0,1.7,2.16,12,12,0,0,0-1.36-2.4c-.93-1.43-2.28-3.35-3.85-5.42s-3.04-3.9-4.14-5.19A13.106,13.106,0,0,0,431.31,341.41Z" transform="translate(-431.306 -341.408)"/></g></g><g transform="translate(37.132 91.255)"><path class="g" d="M445.54,394.88s1.72-15.45-8.1-22.39a.519.519,0,0,0-.82.42C436.65,375.4,437.53,382.83,445.54,394.88Z" transform="translate(-436.62 -372.395)"/><g transform="translate(2.641 4.775)"><path class="b" d="M439.27,377.17a14.551,14.551,0,0,0,.83,2.63c.66,1.79,1.43,3.9,2.29,6.22s1.61,4.43,2.27,6.23a14.516,14.516,0,0,0,1,2.56,11.9,11.9,0,0,0-.61-2.69c-.47-1.64-1.21-3.87-2.11-6.3s-1.78-4.61-2.45-6.17A13.033,13.033,0,0,0,439.27,377.17Z" transform="translate(-439.261 -377.169)"/></g></g><g transform="translate(27.751 130.144)"><path class="g" d="M436.94,433.46s1.17-15.5-8.9-22.09a.516.516,0,0,0-.8.45C427.36,414.3,428.5,421.7,436.94,433.46Z" transform="translate(-427.239 -411.284)"/><g transform="translate(2.782 4.695)"><path class="b" d="M430.03,415.98a14.02,14.02,0,0,0,.92,2.6c.72,1.77,1.57,3.84,2.51,6.14s1.77,4.37,2.49,6.14a15.639,15.639,0,0,0,1.09,2.53,11.492,11.492,0,0,0-.7-2.67c-.53-1.62-1.35-3.82-2.34-6.22s-1.94-4.54-2.67-6.08A11.668,11.668,0,0,0,430.03,415.98Z" transform="translate(-430.021 -415.979)"/></g></g><g transform="translate(55.092 7.598)"><path class="g" d="M454.58,308.5s13.78-7.2,14.05-19.23a.512.512,0,0,0-.8-.44C465.77,290.25,460.1,295.12,454.58,308.5Z" transform="translate(-454.58 -288.738)"/><g transform="translate(0.106 4.67)"><path class="b" d="M465.77,293.41a14.252,14.252,0,0,0-1.72,2.15c-1.12,1.55-2.43,3.36-3.89,5.37s-2.78,3.81-3.9,5.36a15.191,15.191,0,0,0-1.57,2.26,11.076,11.076,0,0,0,1.89-2.01c1.09-1.31,2.53-3.17,4.05-5.27s2.83-4.05,3.75-5.48A12.98,12.98,0,0,0,465.77,293.41Z" transform="translate(-454.686 -293.409)"/></g></g><g transform="translate(40.292 40.325)"><path class="g" d="M439.78,340.37s14.19-6.35,15.19-18.34a.509.509,0,0,0-.77-.49C452.06,322.83,446.1,327.35,439.78,340.37Z" transform="translate(-439.78 -321.464)"/><g transform="translate(0.115 4.513)"><path class="b" d="M451.86,325.98a13.379,13.379,0,0,0-1.84,2.05c-1.21,1.48-2.63,3.21-4.2,5.13s-3,3.64-4.22,5.11a13.745,13.745,0,0,0-1.7,2.16,11.616,11.616,0,0,0,2.01-1.89c1.17-1.24,2.72-3.01,4.36-5.02s3.07-3.87,4.08-5.24A11.736,11.736,0,0,0,451.86,325.98Z" transform="translate(-439.895 -325.978)"/></g></g><g transform="translate(48.433 71.205)"><path class="g" d="M447.94,375.91s9.74-12.11,5.17-23.24a.515.515,0,0,0-.91-.09C450.89,354.7,447.65,361.45,447.94,375.91Z" transform="translate(-447.922 -352.345)"/><g transform="translate(0.132 5.255)"><path class="b" d="M452.15,357.6a13.554,13.554,0,0,0-.71,2.66c-.41,1.87-.88,4.06-1.41,6.48s-1.02,4.61-1.43,6.47a14.517,14.517,0,0,0-.53,2.7,11.6,11.6,0,0,0,.93-2.6c.48-1.63,1.05-3.91,1.6-6.45s.97-4.85,1.24-6.52A12.455,12.455,0,0,0,452.15,357.6Z" transform="translate(-448.054 -357.6)"/></g></g><g transform="translate(38.802 117.453)"><path class="g" d="M438.29,417.74s14.08-6.58,14.88-18.59a.515.515,0,0,0-.78-.48C450.28,400,444.4,404.62,438.29,417.74Z" transform="translate(-438.29 -398.593)"/><g transform="translate(0.106 4.565)"><path class="b" d="M450.13,403.16a13.2,13.2,0,0,0-1.81,2.08c-1.19,1.5-2.58,3.25-4.12,5.2s-2.94,3.69-4.13,5.18a14.867,14.867,0,0,0-1.67,2.19,11.973,11.973,0,0,0,1.98-1.92c1.15-1.26,2.67-3.05,4.27-5.09s3.01-3.92,3.99-5.31A12.5,12.5,0,0,0,450.13,403.16Z" transform="translate(-438.396 -403.158)"/></g></g><g transform="translate(0 71.94)"><g transform="translate(10.732 3.54)"><path class="b" d="M410.24,356.62a1.3,1.3,0,0,0-.02.34c.01.27.01.6.02.99.04.93.1,2.2.17,3.77.18,3.31.43,7.94.74,13.46v.03c1.01,5.63,3.87,11.86,7.72,17.92,2.82,4.46,5.78,8.51,8.33,12.29a86.441,86.441,0,0,1,6.25,10.33,43.2,43.2,0,0,1,2.92,7.58c.25.93.43,1.65.54,2.15a4.355,4.355,0,0,0,.21.75,3.7,3.7,0,0,0-.09-.77c-.07-.5-.22-1.24-.44-2.18a40.186,40.186,0,0,0-2.77-7.7,82.1,82.1,0,0,0-6.17-10.45c-2.53-3.8-5.48-7.86-8.29-12.3-3.83-6.02-6.68-12.16-7.72-17.7v.03c-.39-5.52-.71-10.14-.95-13.45-.13-1.57-.23-2.83-.3-3.76-.04-.39-.07-.72-.1-.99A1.26,1.26,0,0,0,410.24,356.62Z" transform="translate(-410.22 -356.62)"/></g><g transform="translate(16.886 14.942)"><path class="g" d="M418.62,391.98s-5.96-14.36,1.54-23.76a.515.515,0,0,1,.9.17C421.73,370.79,422.96,378.17,418.62,391.98Z" transform="translate(-416.375 -368.022)"/><g transform="translate(1.965 5.198)"><path class="b" d="M419.71,373.22a12.439,12.439,0,0,0-.47,2.72c-.21,1.69-.45,4.02-.63,6.61s-.27,4.94-.27,6.64a10.774,10.774,0,0,0,.17,2.75,14.508,14.508,0,0,0,.24-2.74c.13-1.9.28-4.14.44-6.61s.33-4.71.46-6.61A14.022,14.022,0,0,0,419.71,373.22Z" transform="translate(-418.34 -373.22)"/></g><g class="d"><path d="M418.62,391.98s-5.96-14.36,1.54-23.76a.515.515,0,0,1,.9.17C421.73,370.79,422.96,378.17,418.62,391.98Z" transform="translate(-416.375 -368.022)"/></g></g><g transform="translate(36.233 49.772)"><path class="g" d="M437.1,426.58s-4.78-14.79,3.46-23.56a.509.509,0,0,1,.88.25C441.91,405.71,442.54,413.17,437.1,426.58Z" transform="translate(-435.721 -402.852)"/><g transform="translate(1.202 5.118)"><path class="b" d="M439.7,407.97a11.9,11.9,0,0,0-.69,2.67c-.35,1.66-.77,3.97-1.17,6.54s-.67,4.9-.81,6.6a12.314,12.314,0,0,0-.06,2.76,15.171,15.171,0,0,0,.47-2.71c.28-1.89.61-4.1.98-6.55s.71-4.67,1-6.55A13.678,13.678,0,0,0,439.7,407.97Z" transform="translate(-436.923 -407.97)"/></g><g class="d"><path d="M437.1,426.58s-4.78-14.79,3.46-23.56a.509.509,0,0,1,.88.25C441.91,405.71,442.54,413.17,437.1,426.58Z" transform="translate(-435.721 -402.852)"/></g></g><path class="g" d="M411.03,374.43s-12.74-8.92-11.45-20.88a.514.514,0,0,1,.85-.34C402.28,354.88,407.28,360.45,411.03,374.43Z" transform="translate(-399.488 -353.08)"/><g class="d"><path d="M411.03,374.43s-12.74-8.92-11.45-20.88a.514.514,0,0,1,.85-.34C402.28,354.88,407.28,360.45,411.03,374.43Z" transform="translate(-399.488 -353.08)"/></g><g transform="translate(2.384 4.939)"><path class="b" d="M401.88,358.02a12.35,12.35,0,0,0,1.06,2.55c.73,1.54,1.78,3.64,3.01,5.92s2.42,4.31,3.33,5.75a11.077,11.077,0,0,0,1.62,2.23,14.781,14.781,0,0,0-1.26-2.44c-.91-1.68-1.99-3.64-3.17-5.82s-2.25-4.15-3.16-5.83A14,14,0,0,0,401.88,358.02Z" transform="translate(-401.872 -358.019)"/></g><g transform="translate(12.96 44.431)"><path class="g" d="M431.96,411.91s-15.36-2.4-19.48-13.7a.517.517,0,0,1,.62-.68C415.5,398.21,422.44,401.01,431.96,411.91Z" transform="translate(-412.449 -397.511)"/><g class="d"><path d="M431.96,411.91s-15.36-2.4-19.48-13.7a.517.517,0,0,1,.62-.68C415.5,398.21,422.44,401.01,431.96,411.91Z" transform="translate(-412.449 -397.511)"/></g><g transform="translate(4.069 3.685)"><path class="b" d="M416.52,401.2a12.484,12.484,0,0,0,2.07,1.82c1.33,1.06,3.2,2.48,5.31,3.99s4.07,2.81,5.52,3.69a11.392,11.392,0,0,0,2.44,1.29,15.43,15.43,0,0,0-2.21-1.64c-1.56-1.1-3.39-2.39-5.41-3.82s-3.85-2.73-5.4-3.84A14.087,14.087,0,0,0,416.52,401.2Z" transform="translate(-416.518 -401.196)"/></g></g></g><g transform="translate(22.722 159.04)"><path class="i" d="M450.14,440.18l-4.41,28.9-17.59-.03-5.93-28.87Z" transform="translate(-422.21 -440.18)"/></g><g transform="translate(25.292 163.099)"><path class="b" d="M434.08,449.46a4.99,4.99,0,0,0,.82-2.42,2.636,2.636,0,0,0-1.19-2.49,2.839,2.839,0,0,0-2.95.24,4.359,4.359,0,0,0-1.69,2.65,11.44,11.44,0,0,0-.22,3.26,10.974,10.974,0,0,0,.71,3.34,7.346,7.346,0,0,0,2.04,2.91,5.684,5.684,0,0,0,3.39,1.41,6.151,6.151,0,0,0,3.52-1.02,10.52,10.52,0,0,0,2.63-2.38,5.789,5.789,0,0,0,1.33-3.18,3.661,3.661,0,0,0-1.25-3.06,2.863,2.863,0,0,0-3.12-.19,3.314,3.314,0,0,0-1.8,2.36,4.532,4.532,0,0,0,2.23,4.58,6.19,6.19,0,0,0,4.25.61,9.92,9.92,0,0,0,3.03-1.18,14.679,14.679,0,0,0,1.69-1.15,3.808,3.808,0,0,0,.54-.46,5.15,5.15,0,0,0-.6.38c-.39.26-.96.64-1.73,1.06a9.806,9.806,0,0,1-2.98,1.08,6.02,6.02,0,0,1-4.03-.64,4.186,4.186,0,0,1-2.01-4.2,2.9,2.9,0,0,1,1.6-2.05,2.43,2.43,0,0,1,2.65.16,3.263,3.263,0,0,1,1.07,2.69,5.353,5.353,0,0,1-1.24,2.91,10.261,10.261,0,0,1-2.51,2.26,5.77,5.77,0,0,1-3.25.95,5.173,5.173,0,0,1-3.1-1.3,6.881,6.881,0,0,1-1.91-2.72,10.194,10.194,0,0,1-.69-3.19,10.825,10.825,0,0,1,.19-3.13,3.874,3.874,0,0,1,1.49-2.41,2.447,2.447,0,0,1,2.51-.25,2.24,2.24,0,0,1,1.02,2.12,4.652,4.652,0,0,1-.73,2.25,6.529,6.529,0,0,1-3.28,2.46,7.214,7.214,0,0,1-3.13.37,8.188,8.188,0,0,1-2.6-.77.839.839,0,0,0,.15.11,4.7,4.7,0,0,0,.46.26,6.546,6.546,0,0,0,1.97.59,7.29,7.29,0,0,0,3.24-.3,6.767,6.767,0,0,0,3.48-2.52" transform="translate(-424.78 -444.238)"/></g></g></g></svg>