<svg id="questionnaire-fill" xmlns="http://www.w3.org/2000/svg" width="26" height="26" viewBox="0 0 26 26">
  <path id="Path_4537" data-name="Path 4537" d="M0,0H26V26H0Z" fill="none"/>
  <path id="Path_4538" data-name="Path 4538" d="M6.826,20.333,2,24.125V4.083A1.083,1.083,0,0,1,3.083,3h19.5a1.083,1.083,0,0,1,1.083,1.083V19.25a1.083,1.083,0,0,1-1.083,1.083Zm4.924-5.417v2.167h2.167V14.917ZM9.114,9.3l2.125.426a1.625,1.625,0,1,1,1.594,1.944H11.75v2.167h1.083A3.792,3.792,0,1,0,9.114,9.3Z" transform="translate(0.167 0.25)" fill="#ffa41b"/>
</svg>
